<svg xmlns="http://www.w3.org/2000/svg">
<defs>
<font id="UTMAmericana" horiz-adv-x="1593" >
  <font-face 
    font-family="UTM Americana"
    font-weight="400"
    font-stretch="normal"
    units-per-em="2048"
    panose-1="2 4 6 3 5 5 6 2 2 4"
    ascent="1638"
    descent="-410"
    x-height="1065"
    cap-height="1319"
    bbox="-133 -512 4942 2048"
    underline-thickness="109"
    underline-position="-143"
    unicode-range="U+0020-2026"
  />
<missing-glyph horiz-adv-x="5040" 
d="M3351 2045h10q37 -10 37 -52q0 -12 -32 -57h-28q0 24 28 54l2 10q-5 13 -10 15h-9q-8 0 -10 -19h-30q6 49 42 49zM2019 2016l29 -31q0 -16 -40 -30h-19l-59 12l-11 -12l-28 25q11 29 43 29h11l42 -11h2q10 0 30 18zM468 1980h142v-60h-94v-75h89v-59h-89v-129l-5 -5h-49
v323zM1155 1980h43l6 -5v-78h30v-52h-30v-188l-6 -5h-49v193h-25v52h25v78zM1621 1980h42l4 -5v-94h3q23 24 54 24h2q58 0 83 -71l2 -39v-143h-52v115q0 80 -42 80h-7q-43 0 -43 -86v-109h-51v323zM2200 1980h49l5 -5v-222q10 -51 45 -51q44 7 44 59v214l5 5h49v-216
q0 -85 -66 -112q-15 -8 -35 -8q-47 0 -82 55q-14 24 -14 57v224zM2435 1980h159v-60h-56v-268h-53v268h-55v55zM2621 1980h71q7 -4 83 -251h2l80 251h73v-328h-54v242h-2l-74 -242h-44q-4 0 -58 182l-19 60h-3v-242h-55v328zM3760 1980h52v-328h-45l-5 5v11l3 2l-3 14
q-29 -40 -78 -40q-67 0 -100 91l-5 39v3q0 94 92 125l23 3q35 0 63 -32h3v107zM2057 1928h36l4 -6v-49h-45v-221h-48v23q-23 -31 -59 -31q-89 14 -89 97v156h51v-104q0 -79 26 -86l18 -5h6q26 0 39 36l3 26v133h53v25zM3476 1928v-55h-31v-221h-47v25h-2q-15 -33 -57 -33
q-68 0 -86 78l-3 29v146h52v-120q0 -50 19 -68l21 -7h9q42 0 42 69v126h27q4 0 4 28l3 3h49zM758 1905q68 0 103 -77q9 -18 12 -54q0 -88 -90 -127l-32 -3q-63 0 -101 73q-12 22 -12 52v10q0 94 101 126h19zM1011 1905h3q74 0 83 -101v-152h-51v119q0 76 -42 76h-5
q-44 0 -44 -76v-119h-52v245h46v-21q30 29 62 29zM1466 1905h7q72 0 105 -89h-60q-16 31 -42 31h-17q-53 -14 -53 -61l-3 -15q12 -69 61 -69h9q22 0 47 27h40l2 3h3l2 -3l2 3l3 -3l2 3l2 -7q-33 -81 -110 -81q-76 0 -110 94l-4 36v3q0 85 77 120q15 8 37 8zM3141 1905h2

<glyph glyph-name=".notdef" horiz-adv-x="5040" 
d="M3351 2045h10q37 -10 37 -52q0 -12 -32 -57h-28q0 24 28 54l2 10q-5 13 -10 15h-9q-8 0 -10 -19h-30q6 49 42 49zM2019 2016l29 -31q0 -16 -40 -30h-19l-59 12l-11 -12l-28 25q11 29 43 29h11l42 -11h2q10 0 30 18zM468 1980h142v-60h-94v-75h89v-59h-89v-129l-5 -5h-49
v323zM1155 1980h43l6 -5v-78h30v-52h-30v-188l-6 -5h-49v193h-25v52h25v78zM1621 1980h42l4 -5v-94h3q23 24 54 24h2q58 0 83 -71l2 -39v-143h-52v115q0 80 -42 80h-7q-43 0 -43 -86v-109h-51v323zM2200 1980h49l5 -5v-222q10 -51 45 -51q44 7 44 59v214l5 5h49v-216
q0 -85 -66 -112q-15 -8 -35 -8q-47 0 -82 55q-14 24 -14 57v224zM2435 1980h159v-60h-56v-268h-53v268h-55v55zM2621 1980h71q7 -4 83 -251h2l80 251h73v-328h-54v242h-2l-74 -242h-44q-4 0 -58 182l-19 60h-3v-242h-55v328zM3760 1980h52v-328h-45l-5 5v11l3 2l-3 14
q-29 -40 -78 -40q-67 0 -100 91l-5 39v3q0 94 92 125l23 3q35 0 63 -32h3v107zM2057 1928h36l4 -6v-49h-45v-221h-48v23q-23 -31 -59 -31q-89 14 -89 97v156h51v-104q0 -79 26 -86l18 -5h6q26 0 39 36l3 26v133h53v25zM3476 1928v-55h-31v-221h-47v25h-2q-15 -33 -57 -33
q-68 0 -86 78l-3 29v146h52v-120q0 -50 19 -68l21 -7h9q42 0 42 69v126h27q4 0 4 28l3 3h49zM758 1905q68 0 103 -77q9 -18 12 -54q0 -88 -90 -127l-32 -3q-63 0 -101 73q-12 22 -12 52v10q0 94 101 126h19zM1011 1905h3q74 0 83 -101v-152h-51v119q0 76 -42 76h-5
q-44 0 -44 -76v-119h-52v245h46v-21q30 29 62 29zM1466 1905h7q72 0 105 -89h-60q-16 31 -42 31h-17q-53 -14 -53 -61l-3 -15q12 -69 61 -69h9q22 0 47 27h40l2 3h3l2 -3l2 3l3 -3l2 3l2 -7q-33 -81 -110 -81q-76 0 -110 94l-4 36v3q0 85 77 120q15 8 37 8zM3141 1905h2
q49 0 70 -60v-14h-52q0 16 -16 16h-4q-14 0 -19 -13v-13q0 -9 68 -35q30 -19 30 -59q0 -58 -61 -80l-23 -3q-76 12 -76 83h54q0 -20 27 -25h4q19 0 24 23q0 22 -68 44q-34 27 -34 59q0 66 74 77zM4203 1905q55 0 77 -63q7 -18 7 -65v-125h-52v112q0 83 -40 83h-11
q-33 0 -40 -54v-141h-52v5h-2l2 2v238h47v-21q25 29 64 29zM4432 1905h5q40 0 69 -40v18l-3 3l3 11h47v-208q0 -97 -85 -132l-33 -4h-7q-70 0 -104 80h59q24 -22 45 -23h13q22 0 43 22q15 13 22 52h-3q-32 -40 -73 -40q-57 0 -96 70q-10 18 -14 63q0 88 87 125zM3851 1897
h53v-136q6 -59 40 -59h7q46 0 46 93v102h51v-245h-47l-3 10h3l-3 3v5l3 2v3h-4q0 -23 -57 -31h-3q-59 0 -84 75l-2 85v93zM690 1771q10 -69 63 -69h7q59 14 59 65v15q-13 65 -59 65h-5q-58 0 -65 -76zM3630 1774q13 -72 61 -72h5q58 0 66 75q0 49 -51 70h-22q-37 0 -56 -57z
M4374 1774q8 -72 65 -72h5q59 12 59 72q0 61 -59 73h-14q-56 -16 -56 -62v-11zM3928 1620h52v-57h-52v57zM1054 1402q43 -11 43 -49v-4q0 -17 -32 -60h-28q0 25 31 57v7q0 12 -7 15h-12q-10 -4 -10 -19h-28v6q0 32 33 44zM3349 1339q92 0 138 -99h-60q-37 42 -80 42
q-55 0 -87 -68q-10 -22 -10 -47q0 -78 81 -110l18 -1q36 0 75 39h61q-44 -97 -138 -97q-93 0 -141 112q-10 31 -10 62q0 97 90 152q29 15 63 15zM3664 1339q57 0 103 -47q46 -51 46 -115v-20q0 -89 -91 -146q-33 -13 -63 -13q-89 0 -138 101q-13 33 -13 60v18q0 98 98 151
q29 11 58 11zM2261 1337h2l47 -11h3q11 0 26 11l18 -36q-18 -19 -35 -19h-3l-54 10l-20 -7l-20 36q18 16 36 16zM716 1334h19q118 0 129 -26q25 -26 25 -62q-10 -57 -30 -57v-6q47 -23 47 -66v-18q0 -63 -69 -88l-54 -5h-67v328zM2550 1334h53v-217q6 -61 45 -61q29 0 44 39
l3 30v203l4 6h45l5 -6v-171q0 -118 -40 -133q-24 -26 -64 -26q-55 0 -91 76l-4 54v206zM2805 1334h59q4 0 122 -237h4v237h50l4 -6v-322h-58q-29 48 -125 238h-3v-238h-53v328zM3101 1334h54v-328h-54v328zM3859 1334h8q155 0 174 -40q23 -11 47 -75l4 -36v-11l3 -2
q0 -94 -82 -149q-35 -15 -99 -15h-55v328zM4141 1334h153v-60h-103v-75h101v-57h-101v-74l4 -5h99v-57h-157v322zM3563 1175v-10q0 -76 79 -108l19 -1q68 0 96 86l3 20v15q0 61 -60 94q-12 8 -39 11q-66 0 -96 -83zM770 1274v-67h9q54 0 54 28l3 14q-11 25 -29 25h-37z
M3912 1274v-206l2 -3v-2q104 0 122 76l2 15v29q0 34 -32 68q-25 23 -78 23h-16zM1041 1259h5q38 0 71 -40v32h49v-245h-49v32q-36 -40 -80 -40q-75 0 -101 97l-5 36q0 89 85 125zM1314 1259h3q74 0 83 -102v-151h-51v128q0 67 -42 67h-10q-34 0 -39 -62v-133h-52v245h47v-21
q28 29 61 29zM1543 1259h5q45 0 71 -40v32h47v-219q0 -95 -104 -126h-16q-74 0 -108 82h59q26 -25 44 -25h14q52 0 64 77q-33 -42 -76 -42q-60 0 -101 81l-7 44v16q0 79 85 117zM1912 1259h2q43 0 61 -37h2q32 37 69 37h4q57 0 79 -55q8 -25 8 -45v-153h-52v138q0 44 -23 55
l-12 2h-15q-32 0 -36 -65v-130h-52v136q0 59 -43 59h-8q-32 0 -36 -57v-138h-54v245h50v-21h2q6 24 54 29zM2282 1259q47 0 75 -42v34h47v-245h-47v32q-36 -40 -78 -40q-74 0 -102 92l-6 41q0 90 85 125zM985 1117q0 -48 61 -61h4q45 0 62 46l3 15v22q-12 62 -57 62h-14
q-41 0 -59 -57v-27zM1487 1128q0 -48 43 -68l18 -4h5q47 0 63 57v23q-11 65 -58 65h-12q-50 0 -59 -73zM2225 1131v-14q15 -61 57 -61h14q58 12 58 64v11q0 45 -37 65l-18 5h-10q-64 -8 -64 -70zM770 1150v-82q0 -5 7 -5q77 0 77 45q0 34 -47 42h-37zM2966 753l24 -28
l-51 -55q-18 12 -27 26zM1524 727l85 -54q0 -15 -21 -42l-87 54q18 41 23 42zM2850 693h38l55 -60h-54l-21 26l-23 -26h-54q54 60 59 60zM3422 693h40l56 -60h-54l-24 26h-1q0 -5 -19 -26h-54zM622 685h52q8 -4 47 -137l34 -110q9 8 34 100l48 147h54v-2l-112 -326h-44z
M1159 685h51v-54h-51v54zM1354 685h46l6 -5v-323h-52v328zM2317 685h45l4 -5v-78h31v-52h-31v-193h-53v193h-26v52h26v78zM2425 685h52v-98h2q23 23 54 23h3q57 0 81 -71l3 -38v-144h-52v115q0 81 -39 81h-10q-42 0 -42 -87v-109h-52v328zM2664 685h52v-54h-52v54zM3028 685
h44l6 -5v-78h29v-52h-29v-193h-54v193h-27v52h27v78zM3234 685h52v-328h-52v328zM3957 685h52v-328h-52v328zM4316 685h51v-54h-51v54zM1555 610h5q83 0 110 -102l3 -23v-11q0 -83 -85 -120l-35 -5q-76 0 -111 97l-4 32q0 97 93 130zM1811 610h4q53 0 78 -60q7 -25 7 -81
v-112h-54v146q-7 50 -37 50h-10q-38 0 -42 -57v-139h-54v245h49v-21q26 29 59 29zM2046 610h4q45 0 63 -39h3v31h49v-206q0 -102 -89 -135l-28 -3h-5q-73 0 -106 81h52l37 -20l15 -3h14q50 0 61 72q-33 -39 -73 -39q-62 0 -98 76q-11 23 -12 60q0 85 86 123zM2866 610h2
q82 0 111 -104l2 -25l-2 -27h-172q15 -45 45 -45l14 -3q29 0 49 22h57v-3q-35 -76 -108 -76q-77 0 -111 97l-1 28v8q0 49 32 89q34 39 82 39zM3429 610h5q41 0 70 -39h2v31h47v-245h-47v31h-2q-35 -39 -77 -39q-71 0 -101 89l-5 36v14q0 86 84 120zM3711 610h7
q88 0 107 -128l-2 -1v-15q0 -65 -66 -106q-21 -11 -46 -11q-34 0 -64 32v-99l-5 -5h-49v325h49v-28q31 36 69 36zM4151 610q44 0 75 -39v31h49v-245h-49v31q-35 -39 -77 -39q-92 0 -108 132q0 84 73 121q15 8 37 8zM922 602h50v-136q3 -60 42 -60h5q44 0 44 87v109h52v-245
h-47v24h-5q0 -23 -56 -32h-3q-55 0 -82 68q-4 35 -4 99v81zM1159 602h51v-245h-51v245zM2664 602h52v-245h-52v245zM4316 602h51v-245h-51v245zM1492 488v-16q13 -66 59 -66h4q59 0 66 76q-13 71 -59 71h-11q-59 -16 -59 -65zM1987 472q15 -66 59 -66h11q48 0 59 75v1
q-13 71 -59 71h-14q-39 0 -56 -57v-24zM2805 506h122v2q-16 45 -59 45h-7q-35 0 -56 -47zM3373 474q13 -68 61 -68h5q52 0 65 63v12q-10 72 -57 72h-16q-56 -14 -56 -63zM3642 478q12 -72 61 -72h3q50 0 65 60v22q0 43 -49 65h-22q-47 0 -58 -72v-3zM4095 472q10 -66 66 -66
q43 0 61 48l2 15v16q0 54 -52 68h-18q-42 0 -59 -60v-21zM3416 321h51v-52h-51v52zM4137 321h51v-52h-51v52zM2733 133h4q35 0 43 -50v-2q0 -16 -24 -41l-10 -17h-28q0 25 28 56l3 2v2q-3 19 -9 19h-10q-8 0 -9 -19h-30q6 50 42 50zM1546 116l52 -60l-26 -19l-52 52zM352 79
h4q75 -48 85 -60l-20 -37q-88 49 -88 58zM3490 79l86 -58l-18 -39q-10 0 -91 55q15 36 23 42zM4578 76l19 -42l-91 -52l-20 39l92 58v-3zM1204 53h51v-19l5 -5h14v-36h-14l-5 -5v-279h-46v31q-34 -40 -81 -40q-72 0 -102 105l-3 26q0 102 101 131h14q33 0 66 -33v59l-6 5
h-43v36h49v24zM1480 45h40l56 -61h-53l-23 27l-23 -27h-53zM2641 45h33q12 0 63 -61h-54l-23 27q-19 -21 -19 -27h-58v4zM49 37h160v-60h-56v-268h-50l-4 5v245l2 3v2l-2 2l2 3l-2 2l2 3l-2 3h-54v54zM699 37h47v-73l2 -2l-2 -3v-3l2 -2l-2 -3v-3l2 -2v-2l-2 -3l2 -3h3
q17 24 51 24h3q53 0 77 -58q7 -17 7 -42v-153h-52v127q0 68 -40 68h-8q-43 0 -43 -86v-109h-52v322zM1297 37h47l5 -6v-49h-52v55zM1987 37h52v-198l70 115h62l-78 -118l90 -125v-2h-70q-10 22 -74 115v-115h-52v328zM2271 37v-99q24 24 53 24q57 0 80 -56q10 -19 10 -77
v-120h-54v133q0 62 -41 62h-11q-31 0 -37 -55v-140h-53v314l-1 3v3l1 2l-1 3l1 3h53zM2458 37h51v-55h-51v55zM3148 37h51v-108q27 33 68 33h3q75 0 105 -94l5 -37q0 -75 -64 -120q-30 -11 -49 -11q-41 0 -72 40v-31h-47v328zM4275 37h52v-99h2q23 24 54 24h3q60 0 82 -74
l2 -41v-138h-52v111q0 82 -32 82l-10 2h-12q-37 0 -37 -80v-115h-52v328zM329 -38h3v-58h-5q-42 0 -42 -57v-138h-53v245h47v-21q18 29 50 29zM564 -38q71 0 86 -87v-166h-51v136q-6 59 -41 59h-6q-45 0 -45 -84v-111h-52v245h50v-21q25 29 59 29zM1504 -38q72 0 105 -94
l5 -39q-2 -24 -7 -24h-169q17 -47 62 -47q24 0 48 21h57q-33 -79 -108 -79q-82 0 -113 105v37q0 81 89 117zM2657 -38h5q77 0 107 -97l3 -26v-21l-3 -13h-170q18 -47 53 -47h12q21 0 42 21h59q-34 -79 -105 -79q-84 0 -115 102l-2 29q0 93 91 128zM2915 -38h4q54 0 78 -60
q7 -25 7 -82v-111h-54v138q0 48 -35 57h-11q-38 0 -43 -57v-138h-54v245h50v-21q25 29 58 29zM3508 -38h6q40 0 70 -40h2v32h47v-245h-47v31h-2q-34 -40 -78 -40q-71 0 -101 90l-4 37v12q0 82 77 117q11 6 30 6zM3781 -38h4q62 0 82 -78l3 -84v-91h-54v138q0 48 -38 57h-9
q-38 0 -42 -52v-143h-54v245h49v-21q26 29 59 29zM4133 -38h1q74 0 104 -93l4 -40q0 -88 -84 -126l-25 -3q-41 0 -68 34v-106h-52v326h47v-29q30 37 73 37zM4714 -38h5q34 0 63 -37q27 37 69 37h6q56 0 79 -66l6 -51v-136h-52v122q0 73 -39 73h-7q-35 0 -41 -50v-140l-5 -5
h-48v140q0 42 -31 55h-17q-40 0 -40 -77v-118h-51v245h47v-21q22 29 56 29zM359 -46h49l5 -6v-234l-5 -5h-49v245zM1297 -46h52v-245h-52v245zM1649 -46h52v-136q4 -60 43 -60h4q44 0 44 81v115h52v-245h-47v24h-5q-12 -33 -59 -33q-52 0 -79 63q-5 12 -5 34v157zM2458 -46
h51v-245h-51v245zM4515 -46h51v-245h-51v245zM1077 -169q0 -53 51 -73h12q54 0 66 66v10q0 53 -54 70h-17q-38 0 -58 -57v-16zM1438 -143h122q-18 47 -53 47h-7q-43 0 -62 -44v-3zM2599 -143h122q-21 47 -54 47h-7q-46 0 -61 -47zM3196 -158v-11q10 -73 61 -73h5q64 8 64 71
v5q0 45 -38 65l-18 5h-14q-60 -14 -60 -62zM3452 -173q14 -69 62 -69h11q41 0 59 60v13q-8 73 -56 73h-17q-47 0 -59 -73v-4zM4062 -158v-22q0 -47 59 -62h9q50 0 61 76q-13 70 -58 70h-15q-56 -17 -56 -62z" />
    <glyph glyph-name=".null" horiz-adv-x="0" 
 />
    <glyph glyph-name="nonmarkingreturn" horiz-adv-x="571" 
 />
    <glyph glyph-name="space" unicode=" " horiz-adv-x="663" 
 />
    <glyph glyph-name="exclam" unicode="!" horiz-adv-x="569" 
d="M264 229q0 241 -35 453l-14 90q-10 60 -17 110q-18 137 -18 208l2 67q4 50 13 87q26 108 89 108q64 0 90 -108q9 -37 12 -87l3 -67q0 -71 -19 -208q-6 -50 -16 -110l-14 -90q-35 -212 -35 -453h-41zM284 174q99 0 99 -100q0 -99 -99 -99q-100 0 -100 99q0 100 100 100z
" />
    <glyph glyph-name="quotedbl" unicode="&#x22;" horiz-adv-x="681" 
d="M518 751l-4 -21q-8 -25 -29 -25q-19 0 -27 25l-6 38l-36 440l-1 25q0 32 5 55q13 64 65 64q53 0 67 -64q5 -23 5 -55l-1 -25zM223 751l-4 -21q-8 -25 -29 -25q-19 0 -27 25l-6 38l-36 440l-1 25q0 32 5 55q13 64 65 64q53 0 67 -64q5 -23 5 -55l-1 -25z" />
    <glyph glyph-name="numbersign" unicode="#" horiz-adv-x="1327" 
d="M872 494h224v-91h-236l-55 -403h-101l58 403h-246l-55 -403h-101l58 403h-242v91h254l39 272h-240v90h252l55 404h101l-58 -404h246l56 404h100l-57 -404h225v-90h-238zM567 766l-39 -272h246l37 272h-244z" />
    <glyph glyph-name="dollar" unicode="$" horiz-adv-x="1327" 
d="M659 1413h69v-188q192 -12 373 -84l-43 -146q-11 -37 -27 -37q-8 0 -22 39q-34 93 -146 139q-81 33 -188 38q-109 4 -189 -55q-83 -61 -83 -156q0 -127 103 -181q40 -21 102 -36l260 -47q87 -19 143 -45q151 -71 151 -234q0 -153 -144 -264q-130 -101 -290 -111v-197h-69
v197q-134 0 -257 25q-145 30 -239 90l66 194q5 15 12 15q5 0 8 -13q34 -113 156 -188q116 -72 247 -72q146 0 236 54q111 65 111 200q0 117 -140 168q-48 17 -127 32l-125 23q-92 24 -144 43q-72 26 -117 58q-107 74 -107 215q0 154 138 248q119 83 282 88v188z" />
    <glyph glyph-name="percent" unicode="%" horiz-adv-x="1366" 
d="M117 1141q83 119 223 119q137 0 216 -110q71 -97 71 -241q0 -154 -70 -255q-78 -113 -221 -113q-134 0 -218 114q-75 102 -75 236q0 145 74 250zM480 686q15 42 20 102q4 41 4 105l-1 48l-3 53q-5 63 -19 107q-39 120 -145 120t-146 -117q-15 -43 -20 -105l-3 -52l-1 -48
q0 -52 4 -95q7 -60 22 -105q41 -119 144 -119q106 0 144 106zM811 601q84 118 223 118q138 0 217 -109q70 -98 70 -241q0 -155 -69 -255q-79 -114 -222 -114q-134 0 -218 114q-75 103 -75 236q0 146 74 251zM1174 146q15 41 20 101q4 41 4 105l-1 48l-2 54q-6 62 -20 107
q-39 119 -145 119t-146 -116q-14 -44 -20 -105l-3 -53l-1 -48q0 -52 5 -94q6 -61 21 -105q41 -120 144 -120q106 0 144 107zM1126 1290l-786 -1321h-90l786 1321h90z" />
    <glyph glyph-name="ampersand" unicode="&#x26;" horiz-adv-x="1441" 
d="M398 113q115 -103 259 -103q174 0 315 131q-151 126 -268 233q-141 128 -254 249q-172 -99 -172 -261q0 -142 120 -249zM596 1208q-175 0 -175 -174q0 -79 49 -166q39 -71 105 -141q209 56 209 281q0 210 -188 200zM1276 657q8 -91 -46 -228q-48 -121 -112 -204
q108 -88 178 -129q87 -50 176 -67q27 -3 27 -17q0 -8 -9 -10q-5 -2 -18 -2h-297q-20 1 -82 48l-80 63q-191 -152 -426 -152q-188 -3 -324 78q-161 95 -161 268q0 119 107 218q42 39 103 77q46 28 109 59q-122 127 -122 277q0 137 103 232q99 92 232 92q289 0 289 -234
q0 -124 -102 -214q-42 -36 -103 -69q-46 -26 -112 -53q213 -232 463 -420q49 74 49 164q0 172 -166 203q-14 3 -14 10q0 10 18 10h320z" />
    <glyph glyph-name="quotesingle" unicode="'" horiz-adv-x="266" 
d="M142 1352q107 0 107 -146q0 -84 -67 -184q-61 -92 -97 -92q-10 0 -10 8t4 12q42 57 59 95q23 50 23 108q-125 0 -125 90q0 109 106 109z" />
    <glyph glyph-name="parenleft" unicode="(" horiz-adv-x="530" 
d="M450 1352q-65 -92 -111 -205q-41 -103 -66 -222q-23 -106 -34 -225q-8 -102 -8 -215q0 -221 57 -466q30 -131 71 -232q46 -112 101 -176h-47q-33 38 -79 110q-62 96 -112 201q-64 134 -100 264q-43 157 -43 299q0 235 90 458q40 101 102 207q55 95 132 202h47z" />
    <glyph glyph-name="parenright" unicode=")" horiz-adv-x="530" 
d="M126 1352q77 -107 132 -202q62 -106 102 -207q90 -223 90 -458q0 -142 -43 -299q-36 -130 -100 -264q-50 -105 -112 -201q-46 -72 -79 -110h-47q55 64 101 176q41 101 71 232q57 245 57 466q0 113 -9 215q-10 119 -33 225q-25 119 -66 222q-46 113 -111 205h47z" />
    <glyph glyph-name="asterisk" unicode="*" horiz-adv-x="909" 
d="M161 1143q129 -125 271 -156l-7 83q-5 46 -10 82q-15 90 -45 159h176q-60 -143 -63 -324q130 33 256 156l59 -178q-104 0 -149 -5q-70 -6 -150 -30q104 -142 227 -215l-135 -125q-51 166 -135 307l-44 -71q-23 -40 -40 -75q-40 -85 -47 -161l-143 129q133 72 235 211
q-147 42 -309 39z" />
    <glyph glyph-name="plus" unicode="+" horiz-adv-x="1228" 
d="M554 1065h119v-473h471v-119h-471v-473h-119v473h-471v119h471v473z" />
    <glyph glyph-name="comma" unicode="," horiz-adv-x="663" 
d="M331 174q107 0 107 -145q0 -85 -67 -185q-61 -92 -97 -92q-10 0 -10 8q0 9 4 13q42 56 59 94q23 50 23 108q-125 0 -125 91q0 108 106 108z" />
    <glyph glyph-name="hyphen" unicode="-" horiz-adv-x="530" 
d="M12 473l37 119h469l-37 -119h-469z" />
    <glyph glyph-name="hyphen" unicode="&#x2010;" horiz-adv-x="530" 
d="M12 473l37 119h469l-37 -119h-469z" />
    <glyph glyph-name="period" unicode="." horiz-adv-x="663" 
d="M331 174q99 0 99 -100q0 -99 -99 -99q-100 0 -100 99q0 100 100 100z" />
    <glyph glyph-name="slash" unicode="/" horiz-adv-x="569" 
d="M495 1352h114l-534 -1393h-115z" />
    <glyph glyph-name="zero" unicode="0" horiz-adv-x="1327" 
d="M436 1177q-79 -53 -125 -153q-38 -83 -53 -199q-6 -47 -9 -101q-2 -44 -2 -95q0 -52 2 -95q3 -54 9 -101q15 -116 53 -198q46 -100 125 -153q91 -62 227 -62q134 0 225 62q79 53 124 153q38 82 53 198q7 47 9 101q2 43 2 95q0 51 -2 95q-2 54 -9 101q-15 116 -53 199
q-45 100 -124 153q-91 62 -225 62q-136 0 -227 -62zM1112 1105q177 -186 177 -474q0 -290 -177 -476t-451 -186t-450 186q-177 186 -177 476q0 288 177 474q176 185 450 185t451 -185z" />
    <glyph glyph-name="one" unicode="1" horiz-adv-x="1327" 
d="M745 371q0 -200 28 -271q20 -53 84 -77q33 -11 31 -19q0 -8 -37 -8l-133 3h-141l-117 -3q-41 0 -41 10q0 7 45 27q69 27 91 88q26 68 26 252v600q0 120 -19 159t-88 56q-28 6 -28 10q0 9 36 23l263 90v-940z" />
    <glyph glyph-name="two" unicode="2" horiz-adv-x="1327" 
d="M71 0q0 21 24 77q29 68 74 136q52 73 161 150q94 66 210 120q371 170 371 441q0 315 -338 315q-263 0 -393 -233q-5 -9 -13 -9q-12 0 -12 9l-47 178q107 54 242 81q122 25 253 25q199 0 349 -98q172 -113 172 -301q0 -137 -107 -244q-90 -91 -235 -143l-213 -74
q-139 -48 -238 -142q-86 -82 -86 -134h436q94 0 180 14q106 19 173 55q20 12 49 38q33 29 43 46q10 10 14 10q12 0 12 -14l-12 -45l-84 -258h-985z" />
    <glyph glyph-name="three" unicode="3" horiz-adv-x="1327" 
d="M450 727q56 -20 137 -20q147 0 237 59q105 71 105 211q0 129 -96 199q-85 63 -222 63q-245 9 -378 -203q-13 -20 -21 -30q-11 -13 -16 -13q-8 0 -15 29l-43 162q119 61 246 85q109 21 260 21q77 0 155 -13q92 -16 162 -48q83 -36 129 -91q52 -62 52 -145
q0 -137 -135 -220q-53 -33 -127 -56q-60 -20 -131 -31v-4q87 -17 148 -34q87 -26 148 -60q158 -89 158 -246q0 -103 -62 -181q-55 -68 -155 -114q-85 -40 -197 -60q-95 -18 -190 -18q-156 0 -290 31q-149 34 -271 106l49 148q24 68 37 68q11 0 18 -37q35 -133 171 -204
q117 -61 268 -61q164 0 278 77q131 88 131 243q0 147 -124 236q-111 79 -265 79q-77 0 -151 -22v94z" />
    <glyph glyph-name="four" unicode="4" horiz-adv-x="1327" 
d="M882 317v-75q0 -180 112 -213l41 -12q17 -6 17 -11q0 -6 -4 -8q-5 -2 -21 -2l-282 3l-134 -3q-32 0 -32 10q0 5 9 8l28 9q102 37 102 219v80h-680q0 44 19 78q8 13 21 28l750 840l25 30q8 13 16 13q13 0 13 -31v-864q46 0 79 2q50 3 90 10q107 21 148 76q11 15 24 31
l19 24q15 14 21 14t6 -6l-1 -6l-75 -244h-311zM165 412h553v661h-4z" />
    <glyph glyph-name="five" unicode="5" horiz-adv-x="1327" 
d="M127 295q10 24 18 24t16 -18l17 -41q55 -118 189 -183q118 -57 261 -57q156 0 264 84q117 91 117 242q0 177 -129 270q-113 80 -297 80q-111 0 -211 -26q-82 -22 -200 -74l53 664h766q56 0 88 12q14 5 24 13q9 6 17 15q7 11 12 11q6 0 6 -8l-57 -197h-690
q-122 0 -131 -141l-21 -287q196 70 369 70q96 0 193 -18q113 -20 200 -59q102 -47 158 -115q63 -79 63 -183q0 -192 -176 -300q-168 -104 -444 -104q-127 0 -279 35q-166 38 -264 96z" />
    <glyph glyph-name="six" unicode="6" horiz-adv-x="1327" 
d="M1123 975q-2 -4 -8 -4q-2 0 -6 8q-72 260 -375 260q-242 0 -356 -177q-50 -76 -75 -186q-22 -97 -25 -221q0 -55 6 -92q51 131 181 204q119 67 267 67q200 0 347 -104q165 -116 165 -310q0 -213 -167 -338q-151 -113 -367 -113q-291 0 -461 178q-168 175 -168 469
q0 287 188 480q189 194 474 194q190 0 419 -96q27 -11 27 -23q0 -22 -12 -53zM941 674q-106 108 -266 108t-266 -108q-107 -108 -107 -273q0 -164 107 -272q106 -109 266 -109t266 109q107 108 107 272q0 165 -107 273z" />
    <glyph glyph-name="seven" unicode="7" horiz-adv-x="1327" 
d="M1261 1260q-1 -80 -91 -199q-29 -38 -92 -112l-105 -125q-60 -76 -104 -144q-54 -83 -91 -164q-42 -94 -64 -190q-24 -107 -24 -220q0 -71 2 -106h-260q2 191 109 386q44 82 108 167q53 70 124 148q29 32 63 67l118 121q31 31 51 53q105 113 105 164h-688
q-172 0 -252 -107q-5 -6 -15 -13t-16 -7t-6 14q0 5 5 16q2 7 4 10l81 241h1038z" />
    <glyph glyph-name="eight" unicode="8" horiz-adv-x="1327" 
d="M379 94q113 -74 272 -74q71 0 139 13q79 15 139 44q150 74 150 220q0 99 -73 161q-52 45 -163 85q-23 8 -66 21l-97 29q-57 16 -95 25q-45 10 -59 9q-112 -13 -194 -98q-85 -87 -85 -197q0 -152 132 -238zM889 1193q-86 46 -222 46q-59 0 -112 -9q-64 -11 -111 -33
q-119 -57 -119 -175q0 -115 140 -197q121 -71 243 -71q112 0 198 70q93 75 93 186q0 124 -110 183zM1043 807q-94 -61 -233 -82v-2q13 -3 34 -10q28 -9 57 -20q83 -31 151 -71q90 -52 141 -111q62 -72 62 -151q0 -113 -66 -195q-57 -73 -162 -120q-90 -40 -209 -60
q-98 -16 -202 -16q-85 0 -173 17q-100 20 -177 57q-90 43 -139 106q-56 71 -56 164q0 141 132 232q54 38 127 64q64 23 134 36v4q-122 27 -207 105q-96 89 -96 209q0 179 181 263q72 34 171 50q83 14 176 14q76 0 150 -12q87 -14 154 -43q170 -74 170 -227q0 -122 -120 -201
z" />
    <glyph glyph-name="nine" unicode="9" horiz-adv-x="1327" 
d="M935 1117q-107 124 -284 122q-178 2 -285 -122q-98 -115 -98 -286q0 -170 98 -285q107 -124 285 -122q177 -2 284 122q99 115 99 285q0 171 -99 286zM206 285q2 4 8 4q2 0 7 -8q72 -261 385 -261q213 0 339 170q113 152 113 367q0 63 -8 98h-4q-42 -130 -161 -208
q-114 -74 -255 -74q-207 0 -372 112q-187 126 -187 324q0 228 177 363q156 118 372 118q292 0 464 -177q171 -176 171 -470q0 -286 -191 -480q-192 -194 -477 -194q-191 0 -420 97q-26 11 -26 22q0 23 12 53z" />
    <glyph glyph-name="colon" unicode=":" horiz-adv-x="663" 
d="M331 174q99 0 99 -100q0 -99 -99 -99q-100 0 -100 99q0 100 100 100zM331 932q99 0 99 -101q0 -98 -99 -98q-100 0 -100 98q0 101 100 101z" />
    <glyph glyph-name="semicolon" unicode=";" horiz-adv-x="663" 
d="M331 174q107 0 107 -145q0 -85 -67 -185q-61 -92 -97 -92q-10 0 -10 8q0 9 4 13q42 56 59 94q23 50 23 108q-125 0 -125 91q0 108 106 108zM331 932q99 0 99 -101q0 -98 -99 -98q-100 0 -100 98q0 101 100 101z" />
    <glyph glyph-name="less" unicode="&#x3c;" horiz-adv-x="1228" 
d="M1134 -2l-1040 475v119l1040 475v-127l-893 -408l893 -407v-127z" />
    <glyph glyph-name="equal" unicode="=" horiz-adv-x="1228" 
d="M1144 674h-1061v119h1061v-119zM1144 272h-1061v119h1061v-119z" />
    <glyph glyph-name="greater" unicode="&#x3e;" horiz-adv-x="1228" 
d="M987 532l-893 408v127l1040 -475v-119l-1040 -475v127z" />
    <glyph glyph-name="question" unicode="?" horiz-adv-x="1024" 
d="M30 1268q197 84 393 84q208 0 347 -92q163 -107 163 -304q0 -100 -77 -195q-31 -37 -79 -81l-90 -76q-59 -50 -88 -78q-46 -44 -75 -83q-73 -98 -66 -207h-45q-7 102 42 209q20 43 52 94q19 32 60 90l62 91q33 51 54 94q54 107 54 208q0 278 -289 278q-259 0 -359 -268z
M438 174q98 0 98 -100q0 -99 -98 -99q-101 0 -101 99q0 100 101 100z" />
    <glyph glyph-name="at" unicode="@" horiz-adv-x="1638" 
d="M956 928q-90 0 -181 -105q-106 -123 -106 -295q0 -168 135 -168q71 0 141 111q80 128 99 326q0 131 -88 131zM1234 987l-133 -522q-4 -11 -5 -29q-2 -22 3 -41q15 -53 78 -53q117 6 199 144q75 126 75 272q0 220 -159 376q-169 166 -433 166q-254 0 -415 -179
q-170 -191 -170 -517q0 -227 161 -394q173 -179 437 -179q122 0 227 28q43 12 91 30q20 8 44 18l43 18l27 -49q-60 -27 -100 -44q-56 -22 -104 -37q-118 -36 -228 -36q-187 0 -340 66q-136 59 -235 165q-181 195 -181 435q0 320 220 527q213 200 523 200q291 0 479 -173
q183 -169 183 -419q0 -174 -98 -318q-110 -163 -279 -163q-91 0 -144 61q-18 21 -29 47q-8 20 -7 31l-4 4q-31 -51 -101 -95q-73 -46 -133 -46q-12 0 -23 1q-16 1 -30 4q-36 9 -64 31q-77 60 -77 211q0 141 97 294q55 86 125 134q81 56 177 56q87 -3 146 -107l20 82h137z
" />
    <glyph glyph-name="A" unicode="A" 
d="M743 1133l-247 -443h479zM471 639l-131 -248q-38 -70 -60 -129q-30 -79 -30 -133q0 -53 51 -90l38 -20q19 -8 19 -15q0 -8 -30 -8l-181 3l-112 -3q-19 0 -25 1q-12 2 -12 9t17 20q2 1 7 5l19 14q55 52 119 149l90 150l541 995q6 13 14 13h4q14 0 14 -13l605 -1163
q47 -92 129 -147q30 -21 30 -23q0 -4 -3 -7q-5 -3 -17 -3l-244 3q-18 0 -54 -1l-102 -2q-16 0 -16 6q0 8 12 13q2 1 12 5l15 7q37 20 37 73q0 39 -29 115q-25 65 -70 154l-133 270h-524z" />
    <glyph glyph-name="B" unicode="B" horiz-adv-x="1554" 
d="M364 729h325q93 0 156 7q86 11 146 36q151 66 151 242q0 254 -455 254h-323v-539zM188 1036q0 123 -12 164q-16 59 -72 86q-25 9 -25 21q0 4 9 7q13 5 36 5h436q191 0 318 -11q153 -12 252 -43q225 -70 225 -255q0 -81 -53 -144q-44 -55 -123 -94q-65 -32 -144 -50
q-65 -15 -112 -15v-5l80 -8q47 -7 89 -15q105 -20 182 -53q95 -41 146 -101q60 -69 60 -165q0 -155 -157 -260q-133 -89 -290 -96q-167 -10 -282 -10l-242 6l-356 -1h-7l-42 -1l-54 -4q-14 0 -14 8t45 23q47 16 73 89q34 92 34 267v655zM364 406q0 -228 21 -285
q27 -70 132 -70l185 -6q77 0 208 8q163 10 253 81q98 77 98 218q0 115 -65 189q-56 63 -161 96q-85 27 -209 36l-107 4l-355 1v-272z" />
    <glyph glyph-name="C" unicode="C" horiz-adv-x="1554" 
d="M1420 1019l-9 -24q-9 -20 -16 -20q-11 0 -15 18q-57 166 -198 243q-118 64 -293 64q-273 0 -432 -179q-152 -173 -152 -453q0 -282 147 -463q158 -195 435 -195q193 0 334 81q126 71 184 188l10 23q6 9 12 9q7 0 21 -49l33 -127q-245 -176 -584 -176q-322 0 -554 173
q-121 90 -186 212q-71 133 -71 293q0 331 243 530q226 185 562 185q338 0 579 -183z" />
    <glyph glyph-name="D" unicode="D" horiz-adv-x="1630" 
d="M364 377q0 -183 31 -253q27 -62 96 -69q105 -10 191 -10q77 0 153 6q235 20 352 155q134 155 134 478q0 316 -151 453q-144 131 -462 131h-344v-891zM188 1036q0 129 -19 182q-16 42 -59 62l-15 10q-7 6 -7 13t10 11q14 5 51 5h629q184 0 333 -53q139 -50 238 -142
q191 -177 191 -442q0 -282 -184 -469q-186 -189 -492 -213q-77 -6 -158 -6l-239 6l-319 -3q-11 0 -23 -1l-60 -4q-14 0 -14 6q0 8 23 20q78 45 98 104q16 51 16 218v696z" />
    <glyph glyph-name="E" unicode="E" horiz-adv-x="1441" 
d="M360 412q0 -56 4 -119l11 -119q9 -81 65 -104q49 -19 213 -19q88 0 153 3q84 4 155 15q172 24 292 91q44 24 73 53l50 57q10 11 19 11q10 0 10 -11l-1 -10l-85 -260h-1245q-29 0 -29 6q0 16 37 25q62 17 87 152q9 49 13 112q1 24 2 50v757q0 72 -11 107q-17 52 -67 77
q-14 7 -14 12q0 9 15 11q5 1 14 2h1104l62 -206q13 -48 13 -54q0 -9 -12 -9q-8 0 -20 21q-75 108 -213 155q-123 42 -322 42h-373v-531h199q409 0 469 57q35 35 57 86q7 11 15 11q10 0 10 -33l-1 -322q-2 -12 -7 -12q-6 0 -13 10q-25 56 -69 86q-64 43 -222 58q-58 5 -130 7
l-308 1v-266z" />
    <glyph glyph-name="F" unicode="F" horiz-adv-x="1327" 
d="M1288 1172l33 -121q0 -9 -12 -9q-9 0 -21 21q-73 106 -243 155q-146 42 -365 42h-320v-531h330q173 0 254 18q64 14 106 50q29 25 41 63q8 19 15 19q12 0 12 -29v-348q0 -10 -6 -10q-10 0 -21 30q-23 68 -106 107q-102 49 -285 49h-340v-328q0 -146 20 -216
q24 -87 89 -116q20 -8 20 -16t-20 -8l-195 6q-73 0 -144 -3q-11 -1 -24 -1l-43 -2q-14 0 -14 8q0 6 18 10q75 26 100 116q10 39 14 99q3 44 3 121v809q0 92 -78 127q-8 2 -13 5q-7 5 -7 11q0 11 47 11h1112z" />
    <glyph glyph-name="G" unicode="G" horiz-adv-x="1669" 
d="M1489 145q-271 -186 -600 -186q-332 0 -561 192q-242 203 -242 523q0 159 75 295q67 120 188 212q224 171 474 171q222 0 406 -51q166 -45 258 -119l-58 -174l-8 -19q-6 -10 -12 -10q-3 0 -7 11l-11 32q-53 125 -199 203q-141 75 -305 75q-292 0 -444 -187
q-138 -172 -138 -468q0 -298 162 -467q160 -168 442 -168q144 0 247 45q132 58 136 172v174q0 150 -40 190q-32 31 -193 68q-6 0 -6 9q0 12 41 12l295 -8l96 5l80 3q43 0 43 -16q0 -10 -19 -13q-100 -31 -100 -108v-398z" />
    <glyph glyph-name="H" unicode="H" horiz-adv-x="1630" 
d="M190 1112q0 68 -11 105q-17 58 -65 75q-14 7 -14 15t6 10q5 2 27 2l53 -4q48 -4 92 -4q24 0 72 4t71 4h9q7 -1 12 -1q14 -3 14 -9q0 -14 -14 -17q-47 -14 -64 -68q-12 -37 -12 -112v-383h899v383q0 75 -12 112q-17 54 -64 68q-14 3 -14 17q0 6 14 9q5 0 12 1h9
q23 0 72 -4q48 -4 71 -4q44 0 92 4l54 4q21 0 26 -2q6 -2 6 -10t-14 -15q-48 -17 -65 -75q-11 -37 -11 -105v-721q0 -61 3 -105q3 -61 12 -107q22 -118 82 -156q4 -4 10 -7l5 -3q3 -2 4 -3q9 -6 9 -8q0 -8 -24 -8l-84 4q-14 1 -30 1l-195 -2q-9 -1 -21 -1l-39 -2
q-23 0 -23 6q0 10 23 18q62 28 81 132q7 44 10 110q1 27 1 63v355h-899v-355q1 -36 1 -63q3 -66 11 -110q18 -104 80 -132q23 -8 23 -18q0 -6 -23 -6l-85 4q-14 1 -28 1l-197 -2q-10 -1 -21 -1l-37 -2q-25 0 -25 8q0 2 9 8q1 1 4 3l5 3q6 3 11 7q59 38 82 156q8 46 12 107
q2 44 2 105v721z" />
    <glyph glyph-name="I" unicode="I" horiz-adv-x="569" 
d="M196 1112q0 68 -11 105q-17 58 -65 75q-14 7 -14 15t6 10q5 2 27 2l53 -4q48 -4 92 -4q24 0 72 4t71 4h9q7 -1 12 -1q14 -3 14 -9q0 -14 -14 -17q-47 -14 -64 -68q-12 -37 -12 -112v-789q1 -36 1 -63q3 -66 11 -110q18 -104 80 -132q23 -8 23 -18q0 -6 -23 -6l-85 4
q-14 1 -28 1l-197 -2q-10 -1 -21 -1l-37 -2q-25 0 -25 8q0 2 9 8q1 1 4 3l5 3q6 3 11 7q59 38 82 156q8 46 12 107q2 44 2 105v721z" />
    <glyph glyph-name="J" unicode="J" horiz-adv-x="872" 
d="M41 174q4 21 12 21t11 -9q48 -163 219 -163q138 0 191 162q19 60 27 143q5 56 5 131v700q0 88 -76 133q-14 11 -14 15q0 12 33 12l53 -4q48 -4 92 -4l154 8q10 0 15 -1q9 -3 9 -9q0 -7 -14 -15q-76 -43 -76 -135v-704q0 -217 -142 -357q-142 -139 -360 -139
q-114 0 -190 41z" />
    <glyph glyph-name="K" unicode="K" horiz-adv-x="1478" 
d="M860 436q-34 47 -60 79q-37 46 -72 78q-92 83 -182 83q-147 0 -147 -127v-246q0 -101 14 -166q20 -89 66 -108q45 -18 45 -27q0 -8 -21 -8l-98 4q-15 1 -28 1h-131l-103 -5q-35 0 -35 8q0 7 43 25q35 14 55 107q17 78 17 169v741q0 210 -76 248q-14 6 -14 17q0 10 22 10
l56 -4q24 -2 46 -3q28 -1 54 -1q23 0 71 4q49 4 72 4q21 0 21 -12q0 -11 -29 -25q-28 -11 -39 -65q-8 -39 -8 -105v-420l358 269q61 47 106 83q53 44 90 78q87 81 87 113q0 30 -23 45q-3 3 -9 7l-8 5q-7 6 -7 11q0 16 35 16q19 0 59 -4t59 -4l162 8q78 0 78 -16
q0 -7 -34 -21l-75 -31q-115 -53 -231 -137l-514 -387v-4q253 -11 354 -70q94 -54 234 -260l66 -96q39 -54 75 -96q90 -107 176 -156q13 -8 29 -16l22 -12q21 -10 21 -15q0 -3 -9 -6q-8 -2 -16 -2l-94 5l-159 -2q-4 0 -10 -1l-58 -2z" />
    <glyph glyph-name="L" unicode="L" horiz-adv-x="1366" 
d="M159 -1h-6l-36 -1l-43 -4q-23 0 -23 12q0 9 29 17q76 23 104 96q27 73 27 256v719q0 172 -84 196q-17 6 -17 15q0 14 37 14l54 -4q47 -4 92 -4l188 8q10 0 14 -2q9 -2 9 -10q0 -6 -6 -9l-11 -6q-56 -15 -80 -68q-18 -41 -20 -112v-580q0 -334 40 -412q35 -69 189 -69
q89 0 169 6q104 8 191 27q104 22 181 58q88 42 137 102l16 21q9 9 17 9q10 0 10 -14q0 -8 -4 -24l-78 -236z" />
    <glyph glyph-name="M" unicode="M" horiz-adv-x="1781" 
d="M892 256l525 1055h233q23 0 29 -2t6 -9q-1 -6 -11 -10q-1 0 -4 -1q-4 -2 -5 -2l-11 -5q-61 -34 -61 -170v-666q0 -247 49 -364q14 -33 48 -53l21 -11q9 -6 9 -12q0 -12 -27 -12l-182 6q-66 0 -138 -3q-11 -1 -24 -1l-41 -2q-14 0 -14 12q0 2 24 12l22 11q12 8 21 18
q56 55 56 256v868h-4l-553 -1134q-14 -26 -24 -38q-12 -15 -21 -15q-12 0 -22 19q-4 6 -10 19l-542 1135h-4v-829q0 -142 32 -210q21 -46 79 -89q24 -19 24 -27t-39 -8l-30 2q-8 0 -14 1q-41 3 -85 3l-64 -1l-95 -5q-23 0 -23 10q0 4 12 12q2 1 11 7l12 8q64 53 92 150
q23 81 23 206v686q0 170 -82 213l-19 11q-8 5 -8 12q1 5 15 8q9 2 18 2q22 0 67 -4t68 -4l71 7q13 1 23 1l19 -1q10 -1 18 -5z" />
    <glyph glyph-name="N" unicode="N" horiz-adv-x="1554" 
d="M184 1073q-2 93 -21 137q-24 58 -90 80q-18 8 -18 15q0 14 27 14l65 -4q58 -4 86 -4q68 0 154 4q52 -74 119 -150q56 -64 131 -139l682 -727v684q0 120 -37 199q-30 65 -78 94l-34 14q-13 5 -13 10q0 19 35 19l76 -4q62 -4 83 -4q22 0 71 4t71 4q19 0 28 -6q6 -4 6 -10
q0 -8 -32 -23q-49 -19 -75 -73q-36 -75 -36 -224v-829q0 -87 -5 -138q-5 -57 -15 -57h-4q-12 0 -47 42l-125 151l-208 235q-123 138 -235 261q-132 143 -249 265q-133 138 -246 248v-833q0 -140 35 -217q14 -31 34 -52q15 -16 35 -28q9 -6 19 -11l13 -7q11 -5 11 -11
q0 -8 -16 -8l-207 5l-137 -5q-23 0 -23 8q0 6 29 18q37 15 53 29q88 77 88 322v702z" />
    <glyph glyph-name="O" unicode="O" horiz-adv-x="1705" 
d="M1271 192q128 164 128 449q0 305 -128 474q-140 185 -419 185q-280 0 -419 -185q-128 -169 -128 -474q0 -285 128 -449q141 -182 419 -182t419 182zM325 143q-112 94 -173 220q-66 136 -66 296q0 158 66 292q61 125 173 217q221 184 527 184t527 -184q112 -92 173 -217
q66 -134 66 -292q0 -160 -66 -296q-61 -126 -173 -220q-220 -184 -527 -184t-527 184z" />
    <glyph glyph-name="P" unicode="P" horiz-adv-x="1402" 
d="M360 680q86 -14 188 -14l89 1q54 1 100 5q117 9 201 36q105 33 161 93q65 71 65 178q0 147 -112 215q-48 29 -120 46q-61 14 -144 20l-109 5q-61 3 -113 3q-45 0 -104 -2l-102 -2v-584zM183 1110q0 61 -14 103q-20 56 -65 77q-19 11 -19 17q0 12 29 12h598q326 0 505 -98
q167 -91 167 -242q0 -117 -93 -198q-77 -68 -219 -110q-113 -32 -261 -47q-58 -5 -120 -8q-49 -2 -98 -2l-233 4v-251q0 -310 104 -338l41 -13q10 -4 10 -14q0 -8 -22 -8l-219 6q-79 0 -151 -3q-12 -1 -25 -1l-42 -2q-20 0 -20 10q0 7 19 14l19 7q12 5 21 10q43 26 64 107
q24 90 24 257v711z" />
    <glyph glyph-name="Q" unicode="Q" horiz-adv-x="1705" 
d="M1271 192q128 164 128 449q0 305 -128 474q-140 185 -419 185q-280 0 -419 -185q-128 -169 -128 -474q0 -285 128 -449q141 -182 419 -182t419 182zM1364 -420q-17 -6 -33 -6q-17 0 -84 35l-436 224q-1 1 -4 3q-3 1 -5 2l-9 4q-20 10 -33 14q-34 13 -76 13
q-90 0 -180 -84q-20 -16 -27 -16q-6 0 -11 20q-3 16 -3 27q0 8 12 18q11 8 29 18l235 93q31 12 56 12v6q-291 18 -491 199q-218 197 -218 497q0 158 66 292q61 125 173 217q221 184 527 184t527 -184q112 -92 173 -217q66 -134 66 -292q0 -311 -231 -508
q-213 -183 -515 -190v-10l504 -211q85 -33 119 -33q58 0 88 17q8 4 14 4q9 0 9 -9q0 -20 -56 -49z" />
    <glyph glyph-name="R" unicode="R" horiz-adv-x="1554" 
d="M360 717h379q89 0 156 10q84 12 142 41q143 70 143 242q0 131 -112 199q-95 59 -241 59h-467v-551zM360 367q0 -143 20 -226q25 -104 83 -123q14 -4 22 -7q11 -5 11 -9q0 -8 -41 -8l-104 5l-236 -2q-10 -1 -20 -1l-30 -2q-18 0 -18 8q0 3 11 9l22 12q104 52 104 407v680
q0 61 -14 103q-20 55 -66 73q-30 11 -30 23q0 10 41 10h602q197 0 336 -25q129 -24 209 -69q137 -78 137 -228q0 -91 -58 -159q-49 -58 -137 -97q-71 -32 -160 -48q-72 -13 -131 -13v-4q100 -28 152 -48q67 -27 112 -61q90 -69 154 -237l30 -81q20 -53 35 -85
q44 -99 95 -131q11 -8 22 -12l15 -6q12 -4 12 -9q0 -6 -14 -6h-236q-54 0 -74 55l-76 210q-47 126 -75 188q-62 133 -151 173t-330 40h-224v-299z" />
    <glyph glyph-name="S" unicode="S" horiz-adv-x="1366" 
d="M536 625q-75 14 -135 34q-78 25 -134 59q-144 87 -144 228q0 191 171 302q160 104 410 104q296 0 537 -127l-70 -198q-6 -13 -10 -13t-8 12l-10 31q-22 66 -84 117q-53 45 -134 75q-69 26 -151 40q-69 11 -131 11q-135 0 -228 -57q-116 -71 -116 -211q0 -127 144 -193
q52 -24 129 -42l364 -70q153 -29 240 -102q104 -87 104 -230q0 -115 -69 -205q-61 -79 -170 -135q-95 -48 -214 -74q-104 -22 -201 -22q-137 0 -308 43q-159 39 -288 100q-20 9 -20 13t4 12l68 207q3 14 16 14q11 0 14 -16q19 -156 205 -247q154 -75 334 -75q172 0 297 67
q156 82 156 236q0 122 -91 184q-39 27 -99 46q-46 15 -120 30z" />
    <glyph glyph-name="T" unicode="T" horiz-adv-x="1441" 
d="M1347 1311l66 -228l4 -20q0 -8 -4 -8q-6 0 -13 6l-14 16q-62 93 -204 142q-117 41 -251 41q-123 0 -123 -84v-775q0 -343 99 -376q51 -17 51 -23q0 -8 -23 -8l-82 4q-16 1 -34 1h-193l-135 -5q-18 0 -18 12q0 7 14 10l37 7q57 14 85 135q23 104 23 280v738q0 84 -123 84
q-133 0 -251 -41q-141 -49 -203 -142l-14 -16q-7 -6 -13 -6q-4 0 -4 8l70 248h1253z" />
    <glyph glyph-name="U" unicode="U" 
d="M184 1112q0 96 -22 137q-8 16 -20 25l-11 7q-3 2 -10 5q-31 12 -31 21q0 12 23 12l151 -8l180 8q12 0 21 -3q10 -3 10 -7q0 -5 -6 -10q-8 -7 -23 -13q-55 -19 -73 -106q-8 -36 -11 -86q-2 -36 -2 -95v-514q0 -216 111 -341q119 -134 346 -134q128 0 219 23q101 25 168 80
q146 122 146 419v449q0 248 -113 299q-41 19 -41 29q0 5 10 8q7 2 14 2l46 -4q21 -2 47 -3q33 -1 73 -1l146 4q22 0 22 -8q0 -4 -11 -11l-23 -14q-61 -35 -82 -91q-23 -61 -23 -210v-414q0 -353 -163 -492q-75 -64 -191 -91q-103 -25 -254 -25q-341 0 -488 123
q-135 112 -135 356v674z" />
    <glyph glyph-name="V" unicode="V" horiz-adv-x="1554" 
d="M792 -16q-6 -13 -9 -17q-6 -8 -13 -8h-4q-7 0 -13 8q-4 4 -10 17l-516 1042q-41 84 -96 156q-47 62 -84 90l-31 17q-12 7 -12 14q0 16 18 16l170 -8l184 8q9 -1 15 -2q14 -3 14 -12q0 -5 -11 -11l-23 -14q-37 -25 -37 -74q0 -20 16 -62q19 -53 55 -120l441 -801l379 735
q33 64 56 142l13 51q4 20 4 27q0 72 -57 94l-24 10q-12 5 -19 8q-16 8 -16 15q0 14 24 14l162 -8l160 8q22 0 22 -12q0 -4 -13 -12q-9 -6 -16 -10q-11 -8 -22 -17q-67 -62 -125 -174z" />
    <glyph glyph-name="W" unicode="W" horiz-adv-x="2048" 
d="M696 287l365 993q26 72 32 72h4q7 0 33 -72l373 -993l264 692q42 107 39 213q0 63 -61 90q-7 3 -15 6l-14 5q-12 5 -12 12q0 8 10 11q7 3 20 3l66 -4q56 -4 82 -4q25 0 74 4q50 4 73 4q13 0 21 -2q10 -3 10 -8q0 -7 -12 -19q-10 -9 -25 -18q-42 -25 -96 -106
q-63 -97 -117 -240l-356 -940q-11 -27 -17 -27h-4q-7 0 -32 72l-365 1007h-4l-381 -1052q-11 -27 -16 -27h-4q-8 0 -33 72l-420 1034q-63 158 -125 205l-34 24q-9 6 -9 13q0 8 15 10q6 1 15 2h312q57 0 57 -14q0 -5 -16 -12l-29 -13q-37 -25 -37 -74q0 -80 70 -239z" />
    <glyph glyph-name="X" unicode="X" horiz-adv-x="1441" 
d="M749 766l188 217q62 72 97 127q41 65 41 102q0 39 -27 58q-7 5 -17 10l-8 5q-6 3 -7 3q-15 9 -15 15q0 16 18 16l168 -8l154 8q12 0 18 -8q4 -6 4 -13q0 -3 -8 -7l-18 -9q-55 -32 -97 -68q-95 -82 -191 -186q-82 -88 -175 -203l-88 -106l365 -461q67 -81 128 -147
q24 -25 55 -51q25 -21 48 -35l28 -15q11 -5 11 -10q0 -3 -6 -5q-10 -3 -35 -3l-189 8q-88 0 -155 -4l-56 -4q-14 0 -14 6q0 8 29 22q22 12 22 50q0 61 -145 258l-191 264l-85 -101q-63 -77 -111 -143q-63 -85 -98 -147q-42 -75 -42 -113q0 -56 35 -70q16 -7 25 -11
q10 -6 10 -9q0 -6 -18 -6l-176 8q-47 0 -84 -1q-28 -1 -50 -3l-43 -4q-16 0 -16 8q0 2 15 9l40 20q69 35 153 129l62 73q7 7 9 11q46 54 73 84l264 317l-317 428q-126 169 -172 193q-53 31 -53 45q0 10 18 10l64 -4q67 -4 135 -4l172 8q18 0 18 -10q0 -12 -37 -27
q-28 -12 -28 -76q0 -39 67 -129z" />
    <glyph glyph-name="Y" unicode="Y" horiz-adv-x="1441" 
d="M791 303q0 -203 53 -256q12 -10 25 -18l23 -13q21 -11 21 -12q0 -8 -22 -8l-118 3h-137l-124 -3q-18 0 -18 8q0 3 22 14l21 11q13 8 22 18q55 55 55 256v260l-309 410l-119 144q-84 102 -127 140l-37 26q-24 15 -24 24q0 12 14 12l181 -8q38 0 121 4l104 4q16 0 16 -16
q0 -4 -10 -7l-20 -6q-54 -16 -54 -67q0 -72 123 -217l289 -349l282 326q36 43 61 77q73 100 73 154q0 32 -23 54l-21 15l-33 14q-7 4 -7 10q0 12 10 12l158 -6l174 6q10 -5 10 -14t-14 -21q-211 -169 -377 -379l-264 -321v-281z" />
    <glyph glyph-name="Z" unicode="Z" horiz-adv-x="1290" 
d="M761 684q-159 -217 -258 -367q-113 -172 -113 -208q0 -39 78 -51q31 -4 81 -6l95 -1q179 0 302 36q153 44 261 151q32 34 41 34q11 0 11 -12q0 -8 -2 -12l-82 -248h-1135l565 738l196 267q59 83 88 132q34 55 34 73q0 13 -7 21q-9 10 -30 15q-48 14 -180 14
q-256 0 -392 -47q-61 -21 -110 -55q-39 -27 -82 -71l-20 -21q-7 -7 -13 -7t-6 10q0 6 5 26l5 15l68 201h1061z" />
    <glyph glyph-name="bracketleft" unicode="[" horiz-adv-x="530" 
d="M253 -131q0 -205 148 -205v-31q-139 0 -209 82q-80 94 -80 303v949q0 209 80 303q70 82 209 82v-31q-148 0 -148 -205v-1247z" />
    <glyph glyph-name="backslash" unicode="\" horiz-adv-x="569" 
d="M611 -41h-114l-535 1393h115z" />
    <glyph glyph-name="bracketright" unicode="]" horiz-adv-x="530" 
d="M276 1116q0 205 -147 205v31q139 0 209 -82q80 -94 80 -303v-949q0 -209 -80 -303q-70 -82 -209 -82v31q147 0 147 205v1247z" />
    <glyph glyph-name="asciicircum" unicode="^" horiz-adv-x="1228" 
d="M186 512l375 748h106l375 -748h-127l-301 604l-301 -604h-127z" />
    <glyph glyph-name="underscore" unicode="_" horiz-adv-x="1024" 
d="M1024 -154v-102h-1024v102h1024z" />
    <glyph glyph-name="grave" unicode="`" horiz-adv-x="266" 
d="M122 930q-106 0 -106 145q0 85 67 185q61 92 97 92q10 0 10 -9q0 -8 -4 -12q-42 -56 -59 -94q-23 -51 -23 -109q125 0 125 -90q0 -108 -107 -108z" />
    <glyph glyph-name="a" unicode="a" horiz-adv-x="1251" 
d="M775 606q-94 0 -170 -10q-96 -14 -164 -44q-171 -77 -171 -259q0 -130 90 -204q84 -69 215 -69q208 0 291 155q35 64 49 158q12 77 12 183v90h-152zM1091 307q0 -111 15 -182q18 -86 57 -98q16 -7 16 -17q0 -14 -19 -14l-99 3q-7 0 -20 -1l-36 -2q-25 0 -25 16
q0 28 -15 94l-12 52q-6 28 -8 47h-4q-63 -126 -178 -184q-103 -52 -254 -52q-167 0 -292 80q-144 93 -144 248q0 110 77 188q65 68 185 110q99 34 230 50q100 12 206 12h156q0 194 -66 284q-77 103 -262 103q-127 0 -243 -59q-137 -69 -150 -180q0 -8 -10 -8q-6 0 -8 6
l-56 194q115 50 241 76q114 23 220 23q266 0 389 -111q109 -98 109 -289v-389z" />
    <glyph glyph-name="b" unicode="b" horiz-adv-x="1366" 
d="M396 882q-93 -139 -93 -366q0 -215 89 -344q104 -152 315 -152q196 0 304 156q97 140 97 361q0 214 -85 348q-100 159 -302 159q-216 0 -325 -162zM303 834h4q115 262 412 262q247 0 413 -149q173 -153 173 -394q0 -248 -155 -414q-158 -170 -405 -170q-167 0 -266 51
q-87 45 -184 166l-68 -186h-178q-6 0 -6 6q0 4 18 23q55 50 75 171q9 55 12 133q4 65 4 163v731q0 151 -80 174q-25 6 -25 14q0 4 9 8l247 62v-651z" />
    <glyph glyph-name="c" unicode="c" horiz-adv-x="1214" 
d="M1087 799q-6 -19 -15 -19q-6 0 -15 17q-11 17 -32 65q-29 90 -146 140q-92 39 -204 42q-214 0 -317 -157q-86 -133 -86 -365q0 -211 103 -349q114 -153 316 -153q86 0 165 32q66 27 126 75q46 37 86 84l47 63q12 23 23 23q7 0 12 -12q4 -10 4 -17q0 -10 -8 -22
q-184 -277 -491 -277q-241 0 -408 156q-172 159 -172 399q0 255 172 415q168 157 428 157q157 -6 299 -48q123 -36 164 -75z" />
    <glyph glyph-name="d" unicode="d" horiz-adv-x="1366" 
d="M354 874q-42 -72 -63 -169q-19 -87 -19 -185q0 -200 89 -339q104 -161 289 -161q220 0 329 158q93 136 93 369q0 228 -94 355q-106 142 -321 142q-201 0 -303 -170zM1228 1485v-1032q0 -361 72 -412q28 -22 28 -29q0 -12 -18 -12q-11 0 -24 1l-68 7q-11 0 -24 -1l-68 -7
l-50 225q-155 -256 -432 -256q-244 0 -406 155q-163 157 -163 396q0 258 170 418q167 158 426 158q117 0 237 -61q95 -48 168 -122v285q0 68 -13 113q-18 59 -58 71q-21 6 -28 10q-7 3 -7 7q0 9 18 16z" />
    <glyph glyph-name="e" unicode="e" horiz-adv-x="1290" 
d="M284 676q-3 -13 -5 -24l-4 -26q-3 -28 -3 -51q0 -246 96 -386q112 -160 340 -160q107 0 202 47q79 40 144 110q52 55 88 122q29 53 35 85q2 11 8 19q7 10 18 10q17 0 17 -19q0 -23 -10 -51q-56 -179 -217 -282q-156 -101 -365 -101q-235 0 -396 172q-157 169 -157 406
q0 214 154 375q167 174 424 174q212 0 364 -107q165 -115 182 -313h-915zM1003 727q0 146 -97 233q-93 84 -241 84q-305 0 -377 -317h715z" />
    <glyph glyph-name="f" unicode="f" horiz-adv-x="645" 
d="M52 1004h152v98q0 176 147 276q61 42 148 69q75 24 168 38l-56 -172q-26 33 -55 51q-38 25 -84 25q-117 0 -117 -136v-249h189l-14 -52h-175v-491q0 -356 80 -422q6 -5 16 -11l12 -7q3 -1 4 -2q17 -9 17 -15q0 -8 -20 -8l-184 4l-146 -4q-22 0 -22 6q0 3 9 9l19 14
q37 29 52 80q12 40 12 100v747h-166z" />
    <glyph glyph-name="g" unicode="g" horiz-adv-x="1290" 
d="M556 96q-69 0 -121 -6q-71 -8 -121 -28q-130 -51 -130 -183q0 -121 153 -185q59 -25 133 -37q62 -11 117 -11q492 0 492 237q0 72 -64 120q-54 40 -151 64q-75 18 -173 25l-76 4h-59zM284 717q0 -328 344 -328q328 0 328 338q0 328 -340 328q-332 0 -332 -338zM1179 1065
q-53 38 -79 50q-39 18 -91 18q-92 0 -158 -76q131 -49 200 -124q81 -88 81 -214q0 -161 -141 -264q-122 -89 -293 -103q-50 -4 -118 -4h-118q-86 0 -86 -53q0 -28 56 -48q45 -16 126 -28q58 -8 139 -14l91 -6q68 -4 131 -15q82 -15 143 -40q162 -68 162 -201
q0 -104 -62 -177q-56 -66 -159 -106q-89 -36 -213 -52q-102 -14 -223 -14q-205 0 -359 72q-184 85 -184 236q0 93 126 157q49 24 111 41q51 15 99 21v4l-49 11q-29 8 -49 19q-52 29 -52 81q0 60 77 101q64 34 132 36v4q-117 27 -209 119q-102 102 -102 223q0 176 166 283
q144 94 330 94q47 0 104 -8q43 -6 102 -19q77 94 193 137q106 40 235 33z" />
    <glyph glyph-name="h" unicode="h" horiz-adv-x="1327" 
d="M311 829h6q104 267 406 267q185 0 304 -87q142 -105 142 -309v-401q0 -241 64 -272l28 -15q11 -5 11 -8q0 -4 -7 -6q-6 -2 -14 -2l-114 3h-100l-120 -3q-14 0 -14 8q0 6 11 11l12 5q7 3 12 7q39 26 55 78q12 39 12 100v401q0 242 -96 350q-79 88 -227 88
q-162 0 -268 -130q-103 -127 -103 -312v-315q0 -213 74 -260l26 -16q11 -6 11 -9q0 -6 -17 -6l-123 3h-93l-124 -3q-18 0 -18 10q0 4 12 10l27 15q43 25 61 75q13 38 13 99v1079q0 98 -74 111l-12 4q-7 3 -7 8q0 3 7 8q7 4 12 4l225 66v-656z" />
    <glyph glyph-name="i" unicode="i" horiz-adv-x="530" 
d="M348 365q0 -319 86 -345l13 -2q7 -2 10 -3q10 -4 10 -11q0 -4 -9 -6q-6 -2 -16 -2l-123 3l-217 -3q-16 0 -16 8q0 11 35 25q76 35 76 290v599q0 26 -22 41q-7 5 -22 12l-12 6q-7 3 -12 6q-18 7 -18 12q0 7 14 11l223 59v-700zM369 1315q0 -98 -97 -98q-96 0 -96 98t96 98
q97 0 97 -98z" />
    <glyph glyph-name="j" unicode="j" horiz-adv-x="530" 
d="M367 215q0 -107 -5 -169q-4 -52 -14 -101q-29 -146 -145 -245q-116 -101 -264 -106q-42 0 -72 17l47 133l9 13q5 7 10 7q8 0 20 -24q37 -66 115 -66q81 0 114 118q33 116 33 403v628q0 90 -22 126q-8 14 -22 24q-5 3 -12 7l-31 16q-7 4 -7 8t16 10l230 51v-850zM387 1315
q0 -98 -96 -98t-96 98t96 98t96 -98z" />
    <glyph glyph-name="k" unicode="k" horiz-adv-x="1175" 
d="M338 606q35 22 105 71q80 57 151 114q86 68 135 119q59 60 59 87q0 39 -26 54l-16 6q-7 2 -7 4q0 10 31 10l83 -4q13 -1 25 -1h105q10 0 22 1l86 4q17 0 31 -3q16 -3 16 -7q0 -8 -32 -14q-56 -11 -147 -62q-82 -46 -177 -117l-311 -231v-4q174 0 272 -73q44 -33 88 -90
q32 -42 84 -126q48 -77 78 -120q42 -60 80 -99q57 -62 123 -92l14 -7q10 -4 13 -6q12 -6 12 -10q0 -10 -33 -10h-275l-202 342l-50 78q-32 45 -63 78q-83 86 -164 86q-68 0 -94 -67q-16 -44 -16 -138v-133q0 -78 16 -135q20 -70 59 -84q19 -6 32 -12q15 -7 15 -13t-28 -6
l-123 3h-94l-123 -3q-35 0 -35 6q0 3 16 12l35 21q78 51 78 340v807q0 198 -72 217q-30 6 -30 14q0 7 11 11l243 61v-879z" />
    <glyph glyph-name="l" unicode="l" horiz-adv-x="530" 
d="M348 297q0 -108 13 -168q18 -80 63 -98l29 -13q14 -7 14 -14q0 -4 -14 -6q-10 -2 -21 -2l-113 3h-94l-123 -3q-27 0 -36 2q-9 1 -9 6q0 7 17 15l38 16q51 22 70 144q8 53 12 128q2 62 2 152v727q0 192 -71 219q-21 6 -21 12q0 8 19 13l225 55v-1188z" />
    <glyph glyph-name="m" unicode="m" horiz-adv-x="2048" 
d="M300 1065v-240h4q114 271 363 271q181 0 277 -77q79 -63 135 -212h4q81 289 352 289q247 0 360 -129q97 -110 97 -320v-358q0 -221 59 -264l25 -14q12 -5 12 -7q0 -8 -14 -8l-124 3l-204 -3q-19 0 -19 8q0 9 23 19q78 40 78 235v356q0 233 -97 343q-78 87 -202 87
q-172 0 -249 -144q-67 -127 -67 -376v-319q0 -60 13 -104q16 -55 49 -70q15 -8 27 -16t12 -11q0 -8 -21 -8l-126 3l-208 -3q-16 0 -16 8q0 3 10 8l23 15q74 47 74 295v378q0 174 -97 268q-79 76 -186 76q-142 0 -248 -146q-102 -142 -102 -316v-344q0 -162 67 -215
q3 -2 9 -5q7 -2 8 -3q10 -5 10 -11q0 -8 -23 -8l-78 3l-219 -3q-18 0 -18 8q0 6 9 11l9 5q6 4 11 7q36 28 51 117q12 69 12 182v501q0 75 -20 109q-8 13 -19 22l-18 11q-29 14 -29 20q0 12 14 15z" />
    <glyph glyph-name="n" unicode="n" horiz-adv-x="1327" 
d="M295 1065v-236h6q41 126 163 199q114 68 259 68q185 0 304 -87q142 -105 142 -309v-401q0 -161 14 -211q11 -41 52 -59q37 -17 37 -25q0 -4 -7 -6q-6 -2 -14 -2l-114 3h-100l-120 -3q-28 0 -28 6q0 8 16 16l14 6q8 3 11 5q45 25 62 106q13 64 13 193v278q0 242 -96 350
q-79 88 -227 88q-162 0 -268 -130q-103 -127 -103 -312v-315q0 -213 74 -260l26 -16q11 -6 11 -9q0 -6 -17 -6l-123 3h-93l-124 -3q-18 0 -18 10q0 4 12 10l27 15q43 25 61 117q13 67 13 176v458q0 106 -21 152q-16 34 -49 45q-27 7 -27 20q0 6 10 9q3 1 8 2z" />
    <glyph glyph-name="o" unicode="o" horiz-adv-x="1366" 
d="M362 172q105 -152 319 -152t319 152q92 132 91 360q1 229 -91 361q-105 151 -319 151t-319 -151q-92 -132 -90 -361q-2 -228 90 -360zM262 941q178 155 419 155q242 0 419 -155q187 -164 187 -409q0 -244 -187 -408q-177 -155 -419 -155q-241 0 -419 155
q-187 164 -187 408q0 245 187 409z" />
    <glyph glyph-name="p" unicode="p" horiz-adv-x="1366" 
d="M384 891q-96 -133 -96 -338q0 -241 89 -375q104 -158 325 -158q212 0 311 161q84 135 84 372q0 214 -94 346q-105 145 -301 145q-208 0 -318 -153zM272 799h6q63 141 169 215q114 80 282 82q232 0 398 -159q167 -160 167 -390q0 -243 -161 -408q-166 -170 -423 -170
q-130 5 -256 71q-117 61 -162 136h-4v-309q0 -94 12 -138q17 -64 68 -96q7 -3 16 -7l8 -4q4 -1 6 -2q13 -6 13 -11q0 -10 -26 -10l-94 5h-150l-92 -5q-33 0 -33 8q0 6 9 11l44 17q68 24 68 375v803q0 96 -25 138q-10 16 -24 24q-10 6 -23 8q-20 3 -20 10q0 10 22 13
q108 19 205 59v-266z" />
    <glyph glyph-name="q" unicode="q" horiz-adv-x="1366" 
d="M369 891q-107 -141 -107 -338q0 -103 21 -191q23 -99 68 -171q107 -171 324 -171q212 0 312 161q84 135 84 372q0 214 -95 346q-105 145 -301 145q-189 0 -306 -153zM1284 1065q12 0 12 -10q0 -7 -12 -17q-37 -31 -52 -81q-12 -40 -12 -99v-813q0 -239 31 -335
q23 -72 76 -87q22 -6 22 -14q0 -7 -8 -9q-5 -1 -16 -1l-274 3l-95 -3q-17 0 -17 8q0 12 29 20q101 25 101 340v256l-5 4q-117 -258 -436 -258q-238 0 -400 158q-163 160 -163 399q0 243 172 408q170 162 414 162q134 0 236 -46q90 -40 182 -128l38 143h177z" />
    <glyph glyph-name="r" unicode="r" horiz-adv-x="757" 
d="M667 891q-2 2 -9 8t-11 9l-24 17q-31 19 -66 19q-123 0 -179 -144q-49 -128 -49 -386v-125q0 -246 101 -258q35 -3 35 -25q0 -10 -17 -10l-128 3h-108l-128 -3q-9 0 -17 3t-8 7q0 13 35 27q84 42 84 293v594q0 55 -70 79q-31 8 -31 17q0 4 27 12l213 57v-286h4
q137 297 416 297z" />
    <glyph glyph-name="s" unicode="s" horiz-adv-x="1175" 
d="M981 846q-9 -27 -18 -27q-10 0 -25 47q-26 87 -137 136q-95 42 -209 42q-119 0 -201 -50q-94 -58 -94 -163q0 -132 136 -182q50 -18 125 -27l191 -19q38 -4 69 -9q78 -14 130 -38q137 -62 137 -212q0 -182 -174 -286q-147 -89 -340 -89q-156 0 -271 21q-145 26 -255 88
l43 133q12 40 20 55t17 15q7 0 12 -12l12 -31q40 -116 172 -173q105 -45 246 -45t234 48q121 61 121 188q0 131 -136 178q-50 17 -127 26q-28 3 -67 5l-64 4q-69 7 -132 25q-74 20 -128 53q-135 80 -135 219q0 169 169 259q69 36 159 54q79 17 162 17q214 0 411 -86z" />
    <glyph glyph-name="t" unicode="t" horiz-adv-x="645" 
d="M96 952q-39 0 -39 13q0 11 33 28q87 45 149 115q70 79 94 176q8 29 23 29q10 0 10 -27v-282h180q29 0 29 -9l-8 -43h-201v-358q0 -124 5 -209q6 -105 20 -176q34 -166 121 -189q14 -2 14 -8q0 -8 -35 -8l-64 -3q-36 -1 -65 -1q-85 0 -113 36q-34 45 -34 195v721h-119z
" />
    <glyph glyph-name="u" unicode="u" horiz-adv-x="1327" 
d="M325 1065v-686q0 -156 73 -250q83 -109 249 -109q180 0 278 160q88 145 88 377v201q0 110 -14 153q-13 39 -51 58l-22 9q-11 5 -11 13q0 5 18 10l232 64v-686q0 -47 2 -88q3 -55 9 -101q17 -120 60 -157l10 -9l7 -7q6 -5 6 -9q0 -8 -33 -8h-149l-62 213
q-153 -244 -438 -244q-193 0 -306 107q-110 104 -110 276v463q0 140 -59 152q-37 9 -37 22q0 9 23 12z" />
    <glyph glyph-name="v" unicode="v" horiz-adv-x="1251" 
d="M688 190l190 373q65 124 102 213q44 104 44 146q0 82 -53 108l-36 19q-16 8 -16 12q0 14 13 14l60 -5q56 -5 91 -5q48 0 95 5l49 5q18 0 18 -12q0 -7 -6 -12l-14 -11q-49 -34 -115 -140q-55 -88 -135 -249l-297 -592q-29 -58 -40 -76q-8 -14 -14 -14h-4q-3 0 -18 30
l-21 45q-4 8 -8 15l-375 736q-105 207 -163 243q-27 17 -27 23q0 14 33 14l61 -5q53 -5 88 -5q37 0 87 5l57 5q41 0 41 -12q0 -5 -9 -12l-24 -17q-33 -20 -33 -69q0 -45 76 -197z" />
    <glyph glyph-name="w" unicode="w" horiz-adv-x="1896" 
d="M633 221l354 854q4 8 8 8h2q2 0 6 -8l383 -848l254 572q29 74 29 141q0 58 -51 92q-8 5 -18 10q-4 2 -9 4l-7 3q-15 7 -15 14q0 12 14 12l53 -5q54 -5 90 -5q48 0 95 5l49 5q18 0 18 -12q0 -7 -6 -12l-14 -11q-48 -47 -93 -125q-19 -33 -42 -77l-402 -854q-5 -15 -16 -15
h-4q-8 0 -17 19l-348 829l-348 -829q-9 -19 -17 -19h-4q-11 0 -16 15l-336 712q-59 127 -105 208q-57 104 -87 130l-17 15q-8 10 -8 14q0 12 35 12l62 -5q52 -5 87 -5q37 0 87 5l57 5q41 0 41 -12q0 -4 -11 -12l-22 -15q-36 -21 -39 -67q-1 -52 56 -192q21 -51 47 -108z" />
    <glyph glyph-name="x" unicode="x" horiz-adv-x="1175" 
d="M885 296q11 -14 18 -23l78 -92q91 -104 170 -165l6 -6q4 -3 4 -4q0 -6 -15 -6h-358q-10 0 -10 2q0 1 9 7l17 11q35 18 35 48q0 35 -92 155l-192 256l-183 -215q-35 -41 -60 -87q-30 -56 -30 -97q0 -44 21 -60l26 -18q0 -2 -5 -4q-7 -2 -23 -2l-224 1h-16l-29 -1
q-14 0 -14 6q0 3 10 7l19 9q50 28 109 88q25 25 62 66l306 342l-339 434q-55 65 -101 94l-16 12q-11 7 -11 11t6 7q9 3 31 3l56 -5q23 -2 43 -3q27 -2 52 -2q37 0 88 5l56 5q22 0 22 -12q0 -6 -16 -19q-34 -21 -31 -59q0 -27 35 -84l31 -46l184 -228l147 166
q103 116 103 190q0 29 -27 55q-4 4 -9 7l-15 12q-5 8 0 14q5 4 12 4q20 0 65 -5q46 -5 70 -5q52 0 99 5l44 5q15 0 15 -18q0 -10 -17 -17q-55 -33 -137 -113l-66 -67q-25 -27 -55 -59l-198 -215z" />
    <glyph glyph-name="y" unicode="y" horiz-adv-x="1251" 
d="M641 -27q-86 -162 -183 -256q-131 -126 -336 -123l56 179q7 20 12 20q6 0 10 -4q35 -61 121 -61q87 0 169 91q79 89 79 177q0 70 -33 139l-327 664q-93 191 -162 229q-31 15 -31 29t27 14l95 -5l52 -1q37 0 88 3l57 3q23 0 32 -5q7 -3 7 -9t-10 -14l-22 -15
q-8 -6 -12 -10q-6 -7 -10 -13q-11 -17 -11 -40q0 -49 80 -201l299 -574l190 373q33 63 56 111l48 104q46 108 46 158q0 62 -58 92l-24 15q-15 9 -15 12q0 4 5 8q5 6 12 6l135 -4l137 4q6 0 13 -5q6 -4 6 -7q0 -7 -15 -17q-48 -34 -115 -140q-54 -88 -135 -249z" />
    <glyph glyph-name="z" unicode="z" horiz-adv-x="1138" 
d="M802 936q2 2 5 6t4 6l10 14q10 17 10 27q0 25 -41 25h-266q-134 0 -232 -53q-74 -40 -151 -127q-3 -7 -10 -7q-11 0 -11 11l76 227h836q33 0 33 -14q0 -11 -19 -35l-676 -887q-15 -19 -20 -32q-4 -10 -4 -19q0 -27 39 -27h313q82 0 191 49q121 53 196 136l11 11q6 5 9 5
q11 0 11 -10q0 -6 -4 -19l-74 -223h-969q-8 0 -8 4q0 7 12 24q10 14 17 21l73 84z" />
    <glyph glyph-name="braceleft" unicode="{" horiz-adv-x="681" 
d="M263 1077q0 167 84 228q64 47 211 47v-31q-26 0 -49 -8q-29 -10 -50 -32q-54 -58 -54 -191v-345q0 -214 -176 -258v-4q176 -43 176 -258v-352q0 -133 54 -191q21 -22 50 -32q23 -8 49 -8v-31q-145 0 -211 51q-84 64 -84 232v360q0 107 -24 151q-29 54 -119 80
q90 26 119 81q24 44 24 151v360z" />
    <glyph glyph-name="bar" unicode="|" horiz-adv-x="454" 
d="M286 1536v-2048h-119v2048h119z" />
    <glyph glyph-name="braceright" unicode="}" horiz-adv-x="681" 
d="M417 717q0 -107 24 -151q29 -55 119 -81q-90 -26 -119 -80q-24 -44 -24 -151v-360q0 -168 -84 -232q-66 -51 -211 -51v31q26 0 49 8q29 10 50 32q55 58 55 191v352q0 215 176 258v4q-176 44 -176 258v345q0 133 -55 191q-21 22 -50 32q-23 8 -49 8v31q148 0 211 -47
q84 -61 84 -228v-360z" />
    <glyph glyph-name="asciitilde" unicode="~" horiz-adv-x="1228" 
d="M1087 582q-29 -42 -48 -64q-28 -34 -55 -57q-68 -55 -153 -55q-54 0 -112 21q-22 9 -51 23q-10 5 -25 12l-25 13q-66 34 -106 48q-62 22 -125 22q-61 0 -108 -47q-34 -35 -64 -101l-74 86q41 78 93 121q70 55 163 55q51 0 118 -21q47 -16 118 -48l57 -26q31 -14 53 -22
q57 -22 90 -22q55 0 103 47q30 29 77 101z" />
    <glyph glyph-name="dieresis" unicode="&#xa8;" horiz-adv-x="1024" 
 />
    <glyph glyph-name="copyright" unicode="&#xa9;" horiz-adv-x="1638" 
d="M1333 1146q211 -205 211 -497q0 -288 -211 -489t-514 -201q-302 0 -513 201q-212 201 -212 489q0 291 212 497t513 206q302 0 514 -206zM384 1084q-181 -185 -181 -435q0 -246 182 -428q183 -182 434 -182q252 0 435 182q181 181 181 428q0 250 -180 435
q-183 188 -436 188q-252 0 -435 -188zM1179 477l-34 -139q0 -22 -56 -39q-41 -14 -91 -23q-67 -12 -134 -12q-198 0 -318 94q-135 105 -135 310q0 145 113 257q132 132 352 132q75 0 132 -12q23 -4 47 -12l43 -13q47 -12 47 -41v-141h-33q-7 75 -59 122q-64 58 -185 58
q-151 0 -232 -97q-75 -90 -77 -245q-2 -170 77 -267q85 -106 249 -106q102 0 172 54q56 43 90 120h32z" />
    <glyph glyph-name="registered" unicode="&#xae;" horiz-adv-x="1638" 
d="M1333 1146q211 -205 211 -497q0 -288 -211 -489t-514 -201q-302 0 -513 201q-212 201 -212 489q0 291 212 497t513 206q302 0 514 -206zM384 1084q-181 -185 -181 -435q0 -246 182 -428q183 -182 434 -182q252 0 435 182q181 181 181 428q0 250 -180 435
q-183 188 -436 188q-252 0 -435 -188zM475 1034h371q105 0 174 -43q78 -49 78 -139q0 -159 -175 -213l125 -164q105 -135 170 -172v-18h-127q-45 0 -107 89l-32 48l-27 41q-5 8 -10 15q-51 77 -94 136h-113v-198q0 -69 12 -80t95 -21v-30h-340v30q81 10 93 21q11 11 11 80
v489q0 71 -11 82q-12 11 -93 21v26zM708 653h101q159 0 159 191q0 151 -165 151h-95v-342z" />
    <glyph glyph-name="acute" unicode="&#xb4;" horiz-adv-x="1024" 
 />
    <glyph glyph-name="paragraph" unicode="&#xb6;" horiz-adv-x="1024" 
 />
    <glyph glyph-name="Eth" unicode="&#xd0;" horiz-adv-x="1630" 
d="M733 678h-369v-301q0 -183 30 -253q27 -62 97 -69q105 -10 190 -10q77 0 154 6q237 20 353 155q132 154 132 478q0 316 -151 453q-143 131 -461 131h-344v-539h369v-51zM28 729h160v307q0 129 -20 182q-16 42 -58 62l-16 10q-7 6 -7 13t10 11q14 5 52 5h629
q184 0 333 -53q139 -50 238 -142q190 -177 190 -442q0 -282 -184 -469q-185 -189 -491 -213q-77 -6 -158 -6l-240 6l-319 -3q-11 0 -23 -1l-59 -4q-14 0 -14 6q0 8 22 20q79 45 98 104q17 51 17 218v338h-160v51z" />
    <glyph glyph-name="onequarter" unicode="&#xbc;" horiz-adv-x="1990" 
d="M927 248h358v397zM1408 190v-45q0 -109 74 -129l26 -7q11 -2 11 -5q0 -6 -17 -6h-286q-21 0 -21 10q0 7 25 17q65 21 65 120v48h-442q0 26 13 46l28 33l457 469l32 37q6 6 19 6q4 0 9 -3q7 -5 7 -13v-518h19q12 0 23 1q30 2 54 6q68 13 95 46l26 33q11 8 15 8t4 -4
l-2 -12l-48 -138h-186zM1365 1290l-917 -1321h-103l918 1321h102zM474 662q0 -89 68 -121q14 -6 14 -19q0 -8 -22 -8l-190 1l-66 -1q-8 0 -13 1q-14 2 -14 7q0 4 12 10l19 9q69 33 69 121v438q0 49 -8 72q-14 36 -55 45l-10 1q-6 1 -10 2q-11 3 -11 9q0 8 13 13q5 2 12 4
q2 1 6 2l186 55v-641z" />
    <glyph glyph-name="onehalf" unicode="&#xbd;" horiz-adv-x="1990" 
d="M1341 1290l-924 -1321h-102l923 1321h103zM1021 0q0 13 16 47q18 40 48 80q32 44 104 90q60 39 137 74q127 53 180 118q48 59 48 146q0 168 -207 168q-182 0 -256 -119q0 -6 -8 -6q-9 0 -9 6l-30 107q138 63 323 63q130 0 227 -59q111 -68 111 -180q0 -83 -69 -147
q-59 -54 -154 -85l-137 -45q-89 -27 -156 -84q-55 -47 -55 -72h282q68 0 118 6q71 7 112 25q45 28 61 51q3 6 8 6q9 0 9 -8q0 -7 -9 -26l-55 -156h-639zM470 662q0 -89 68 -121q14 -6 14 -19q0 -8 -22 -8l-190 1l-66 -1q-8 0 -13 1q-14 2 -14 7q0 4 12 10l19 9q69 33 69 121
v438q0 49 -8 72q-14 36 -55 45l-10 1q-6 1 -10 2q-11 3 -11 9q0 8 13 13q5 2 12 4q2 1 6 2l186 55v-641z" />
    <glyph glyph-name="threequarters" unicode="&#xbe;" horiz-adv-x="1990" 
d="M1572 190v-45q0 -109 74 -129l26 -7q11 -2 11 -5q0 -6 -17 -6h-287q-20 0 -20 10q0 7 25 17q65 21 65 120v48h-442q0 26 13 46l28 33l456 469l33 37q6 6 19 6q4 0 9 -3q7 -5 7 -13v-518h19q12 0 23 1q30 2 54 6q68 13 94 46l27 33q11 8 14 8q5 0 5 -4l-3 -12l-47 -138
h-186zM1091 248h358v395zM1586 1290l-923 -1321h-103l924 1321h102zM390 952q19 -1 45 -1l45 -1q96 0 147 31q62 37 62 121q0 137 -194 137q-172 6 -246 -100q-15 -27 -25 -27q-5 0 -8 16l-28 99q78 36 161 51q70 12 168 12q117 0 207 -37q117 -48 117 -141q0 -82 -87 -132
q-65 -36 -169 -52v-4q55 -9 96 -20q56 -14 96 -35q103 -53 103 -148q0 -117 -141 -177q-56 -24 -128 -36q-62 -10 -124 -10q-212 0 -365 82l33 88q14 41 24 41q8 0 13 -23q21 -77 110 -111q68 -26 174 -26q110 0 175 36q79 44 77 136q0 88 -74 136q-65 42 -165 42h-50
l-49 -4v57z" />
    <glyph glyph-name="Agrave" unicode="&#xc0;" 
d="M743 1133l-247 -443h479zM471 639l-131 -248q-38 -70 -60 -129q-30 -79 -30 -133q0 -53 51 -90l38 -20q19 -8 19 -15q0 -8 -30 -8l-181 3l-112 -3q-19 0 -25 1q-12 2 -12 9t17 20q2 1 7 5l19 14q55 52 119 149l90 150l541 995q6 13 14 13h4q14 0 14 -13l605 -1163
q47 -92 129 -147q30 -21 30 -23q0 -4 -3 -7q-5 -3 -17 -3l-244 3q-18 0 -54 -1l-102 -2q-16 0 -16 6q0 8 12 13q2 1 12 5l15 7q37 20 37 73q0 39 -29 115q-25 65 -70 154l-133 270h-524zM580 1595q-72 54 -72 88q0 70 65 70q45 0 93 -51l303 -301h-86z" />
    <glyph glyph-name="Aacute" unicode="&#xc1;" 
d="M743 1133l-247 -443h479zM471 639l-131 -248q-38 -70 -60 -129q-30 -79 -30 -133q0 -53 51 -90l38 -20q19 -8 19 -15q0 -8 -30 -8l-181 3l-112 -3q-19 0 -25 1q-12 2 -12 9t17 20q2 1 7 5l19 14q55 52 119 149l90 150l541 995q6 13 14 13h4q14 0 14 -13l605 -1163
q47 -92 129 -147q30 -21 30 -23q0 -4 -3 -7q-5 -3 -17 -3l-244 3q-18 0 -54 -1l-102 -2q-16 0 -16 6q0 8 12 13q2 1 12 5l15 7q37 20 37 73q0 39 -29 115q-25 65 -70 154l-133 270h-524zM660 1401l303 301q47 51 92 51q65 0 65 -70q0 -34 -71 -88l-303 -194h-86z" />
    <glyph glyph-name="uni1EA2" unicode="&#x1ea2;" 
d="M743 1133l-247 -443h479zM471 639l-131 -248q-38 -70 -60 -129q-30 -79 -30 -133q0 -53 51 -90l38 -20q19 -8 19 -15q0 -8 -30 -8l-181 3l-112 -3q-19 0 -25 1q-12 2 -12 9t17 20q2 1 7 5l19 14q55 52 119 149l90 150l541 995q6 13 14 13h4q14 0 14 -13l605 -1163
q47 -92 129 -147q30 -21 30 -23q0 -4 -3 -7q-5 -3 -17 -3l-244 3q-18 0 -54 -1l-102 -2q-16 0 -16 6q0 8 12 13q2 1 12 5l15 7q37 20 37 73q0 39 -29 115q-25 65 -70 154l-133 270h-524zM645 1781q88 35 167 35q85 0 142 -34q69 -42 69 -118q0 -39 -33 -76q-12 -13 -31 -29
l-35 -27q-22 -18 -34 -29q-16 -14 -27 -28q-25 -31 -22 -78h-47q-3 49 17 90q7 15 21 35q7 10 22 31l24 32q12 18 21 34q19 35 19 69q0 88 -96 88q-88 0 -140 -131z" />
    <glyph glyph-name="Atilde" unicode="&#xc3;" 
d="M743 1133l-247 -443h479zM471 639l-131 -248q-38 -70 -60 -129q-30 -79 -30 -133q0 -53 51 -90l38 -20q19 -8 19 -15q0 -8 -30 -8l-181 3l-112 -3q-19 0 -25 1q-12 2 -12 9t17 20q2 1 7 5l19 14q55 52 119 149l90 150l541 995q6 13 14 13h4q14 0 14 -13l605 -1163
q47 -92 129 -147q30 -21 30 -23q0 -4 -3 -7q-5 -3 -17 -3l-244 3q-18 0 -54 -1l-102 -2q-16 0 -16 6q0 8 12 13q2 1 12 5l15 7q37 20 37 73q0 39 -29 115q-25 65 -70 154l-133 270h-524zM1153 1669q-42 -215 -225 -215q-38 0 -79 14q-30 11 -73 33l-8 4q-1 1 -4 3q-3 1 -4 2
q-10 5 -17 8l-32 14q-34 14 -60 14q-88 0 -112 -92h-62q22 94 69 145q55 60 144 60q36 0 80 -14q29 -10 76 -31q48 -24 70 -33q37 -14 63 -14q87 0 115 102h59z" />
    <glyph glyph-name="uni1EA0" unicode="&#x1ea0;" 
d="M743 1133l-247 -443h479zM471 639l-131 -248q-38 -70 -60 -129q-30 -79 -30 -133q0 -53 51 -90l38 -20q19 -8 19 -15q0 -8 -30 -8l-181 3l-112 -3q-19 0 -25 1q-12 2 -12 9t17 20q2 1 7 5l19 14q55 52 119 149l90 150l541 995q6 13 14 13h4q14 0 14 -13l605 -1163
q47 -92 129 -147q30 -21 30 -23q0 -4 -3 -7q-5 -3 -17 -3l-244 3q-18 0 -54 -1l-102 -2q-16 0 -16 6q0 8 12 13q2 1 12 5l15 7q37 20 37 73q0 39 -29 115q-25 65 -70 154l-133 270h-524zM734 -180q99 0 99 -100q0 -98 -99 -98q-100 0 -100 98q0 100 100 100z" />
    <glyph glyph-name="Acircumflex" unicode="&#xc2;" 
d="M743 1133l-247 -443h479zM471 639l-131 -248q-38 -70 -60 -129q-30 -79 -30 -133q0 -53 51 -90l38 -20q19 -8 19 -15q0 -8 -30 -8l-181 3l-112 -3q-19 0 -25 1q-12 2 -12 9t17 20q2 1 7 5l19 14q55 52 119 149l90 150l541 995q6 13 14 13h4q14 0 14 -13l605 -1163
q47 -92 129 -147q30 -21 30 -23q0 -4 -3 -7q-5 -3 -17 -3l-244 3q-18 0 -54 -1l-102 -2q-16 0 -16 6q0 8 12 13q2 1 12 5l15 7q37 20 37 73q0 39 -29 115q-25 65 -70 154l-133 270h-524zM567 1401h-71l254 342h129l256 -342h-72l-248 211z" />
    <glyph glyph-name="uni1EA6" unicode="&#x1ea6;" 
d="M743 1133l-247 -443h479zM471 639l-131 -248q-38 -70 -60 -129q-30 -79 -30 -133q0 -53 51 -90l38 -20q19 -8 19 -15q0 -8 -30 -8l-181 3l-112 -3q-19 0 -25 1q-12 2 -12 9t17 20q2 1 7 5l19 14q55 52 119 149l90 150l541 995q6 13 14 13h4q14 0 14 -13l605 -1163
q47 -92 129 -147q30 -21 30 -23q0 -4 -3 -7q-5 -3 -17 -3l-244 3q-18 0 -54 -1l-102 -2q-16 0 -16 6q0 8 12 13q2 1 12 5l15 7q37 20 37 73q0 39 -29 115q-25 65 -70 154l-133 270h-524zM749 1880q-72 54 -72 88q0 70 65 70q45 0 93 -51l303 -301h-86zM567 1401h-71l254 342
h129l256 -342h-72l-248 211z" />
    <glyph glyph-name="uni1EA4" unicode="&#x1ea4;" 
d="M743 1133l-247 -443h479zM471 639l-131 -248q-38 -70 -60 -129q-30 -79 -30 -133q0 -53 51 -90l38 -20q19 -8 19 -15q0 -8 -30 -8l-181 3l-112 -3q-19 0 -25 1q-12 2 -12 9t17 20q2 1 7 5l19 14q55 52 119 149l90 150l541 995q6 13 14 13h4q14 0 14 -13l605 -1163
q47 -92 129 -147q30 -21 30 -23q0 -4 -3 -7q-5 -3 -17 -3l-244 3q-18 0 -54 -1l-102 -2q-16 0 -16 6q0 8 12 13q2 1 12 5l15 7q37 20 37 73q0 39 -29 115q-25 65 -70 154l-133 270h-524zM1016 1659l303 301q47 51 92 51q65 0 65 -70q0 -34 -71 -88l-303 -194h-86zM567 1401
h-71l254 342h129l256 -342h-72l-248 211z" />
    <glyph glyph-name="uni1EA8" unicode="&#x1ea8;" 
d="M743 1133l-247 -443h479zM471 639l-131 -248q-38 -70 -60 -129q-30 -79 -30 -133q0 -53 51 -90l38 -20q19 -8 19 -15q0 -8 -30 -8l-181 3l-112 -3q-19 0 -25 1q-12 2 -12 9t17 20q2 1 7 5l19 14q55 52 119 149l90 150l541 995q6 13 14 13h4q14 0 14 -13l605 -1163
q47 -92 129 -147q30 -21 30 -23q0 -4 -3 -7q-5 -3 -17 -3l-244 3q-18 0 -54 -1l-102 -2q-16 0 -16 6q0 8 12 13q2 1 12 5l15 7q37 20 37 73q0 39 -29 115q-25 65 -70 154l-133 270h-524zM868 2012q88 35 167 35q85 0 142 -34q69 -42 69 -118q0 -39 -33 -76q-12 -13 -31 -29
l-35 -27q-22 -18 -34 -29q-16 -14 -27 -28q-25 -31 -22 -78h-47q-3 49 17 90q7 15 21 35q7 10 22 31l24 32q12 18 21 34q19 35 19 69q0 88 -96 88q-88 0 -140 -131zM567 1401h-71l254 342h129l256 -342h-72l-248 211z" />
    <glyph glyph-name="uni1EAA" unicode="&#x1eaa;" 
d="M743 1133l-247 -443h479zM471 639l-131 -248q-38 -70 -60 -129q-30 -79 -30 -133q0 -53 51 -90l38 -20q19 -8 19 -15q0 -8 -30 -8l-181 3l-112 -3q-19 0 -25 1q-12 2 -12 9t17 20q2 1 7 5l19 14q55 52 119 149l90 150l541 995q6 13 14 13h4q14 0 14 -13l605 -1163
q47 -92 129 -147q30 -21 30 -23q0 -4 -3 -7q-5 -3 -17 -3l-244 3q-18 0 -54 -1l-102 -2q-16 0 -16 6q0 8 12 13q2 1 12 5l15 7q37 20 37 73q0 39 -29 115q-25 65 -70 154l-133 270h-524zM1224 1981q-42 -215 -225 -215q-38 0 -79 14q-30 11 -73 33l-8 4q-1 1 -4 3q-3 1 -4 2
q-10 5 -17 8l-32 14q-34 14 -60 14q-88 0 -112 -92h-62q22 94 69 145q55 60 144 60q36 0 80 -14q29 -10 76 -31q48 -24 70 -33q37 -14 63 -14q87 0 115 102h59zM567 1401h-71l254 342h129l256 -342h-72l-248 211z" />
    <glyph glyph-name="uni1EAC" unicode="&#x1eac;" 
d="M743 1133l-247 -443h479zM471 639l-131 -248q-38 -70 -60 -129q-30 -79 -30 -133q0 -53 51 -90l38 -20q19 -8 19 -15q0 -8 -30 -8l-181 3l-112 -3q-19 0 -25 1q-12 2 -12 9t17 20q2 1 7 5l19 14q55 52 119 149l90 150l541 995q6 13 14 13h4q14 0 14 -13l605 -1163
q47 -92 129 -147q30 -21 30 -23q0 -4 -3 -7q-5 -3 -17 -3l-244 3q-18 0 -54 -1l-102 -2q-16 0 -16 6q0 8 12 13q2 1 12 5l15 7q37 20 37 73q0 39 -29 115q-25 65 -70 154l-133 270h-524zM734 -180q99 0 99 -100q0 -98 -99 -98q-100 0 -100 98q0 100 100 100zM567 1401h-71
l254 342h129l256 -342h-72l-248 211z" />
    <glyph glyph-name="Abreve" unicode="&#x102;" 
d="M743 1133l-247 -443h479zM471 639l-131 -248q-38 -70 -60 -129q-30 -79 -30 -133q0 -53 51 -90l38 -20q19 -8 19 -15q0 -8 -30 -8l-181 3l-112 -3q-19 0 -25 1q-12 2 -12 9t17 20q2 1 7 5l19 14q55 52 119 149l90 150l541 995q6 13 14 13h4q14 0 14 -13l605 -1163
q47 -92 129 -147q30 -21 30 -23q0 -4 -3 -7q-5 -3 -17 -3l-244 3q-18 0 -54 -1l-102 -2q-16 0 -16 6q0 8 12 13q2 1 12 5l15 7q37 20 37 73q0 39 -29 115q-25 65 -70 154l-133 270h-524zM572 1687q48 -137 227 -137q178 0 226 137h73q-12 -92 -74 -160q-84 -92 -225 -92
q-142 0 -226 92q-62 68 -74 160h73z" />
    <glyph glyph-name="uni1EB0" unicode="&#x1eb0;" 
d="M743 1133l-247 -443h479zM471 639l-131 -248q-38 -70 -60 -129q-30 -79 -30 -133q0 -53 51 -90l38 -20q19 -8 19 -15q0 -8 -30 -8l-181 3l-112 -3q-19 0 -25 1q-12 2 -12 9t17 20q2 1 7 5l19 14q55 52 119 149l90 150l541 995q6 13 14 13h4q14 0 14 -13l605 -1163
q47 -92 129 -147q30 -21 30 -23q0 -4 -3 -7q-5 -3 -17 -3l-244 3q-18 0 -54 -1l-102 -2q-16 0 -16 6q0 8 12 13q2 1 12 5l15 7q37 20 37 73q0 39 -29 115q-25 65 -70 154l-133 270h-524zM561 1880q-72 54 -72 88q0 70 65 70q45 0 93 -51l303 -301h-86zM572 1697
q48 -137 227 -137q178 0 226 137h73q-12 -92 -74 -160q-84 -92 -225 -92q-142 0 -226 92q-62 68 -74 160h73z" />
    <glyph glyph-name="uni1EAE" unicode="&#x1eae;" 
d="M743 1133l-247 -443h479zM471 639l-131 -248q-38 -70 -60 -129q-30 -79 -30 -133q0 -53 51 -90l38 -20q19 -8 19 -15q0 -8 -30 -8l-181 3l-112 -3q-19 0 -25 1q-12 2 -12 9t17 20q2 1 7 5l19 14q55 52 119 149l90 150l541 995q6 13 14 13h4q14 0 14 -13l605 -1163
q47 -92 129 -147q30 -21 30 -23q0 -4 -3 -7q-5 -3 -17 -3l-244 3q-18 0 -54 -1l-102 -2q-16 0 -16 6q0 8 12 13q2 1 12 5l15 7q37 20 37 73q0 39 -29 115q-25 65 -70 154l-133 270h-524zM695 1659l303 301q47 51 92 51q65 0 65 -70q0 -34 -71 -88l-303 -194h-86zM572 1697
q48 -137 227 -137q178 0 226 137h73q-12 -92 -74 -160q-84 -92 -225 -92q-142 0 -226 92q-62 68 -74 160h73z" />
    <glyph glyph-name="uni1EB2" unicode="&#x1eb2;" 
d="M743 1133l-247 -443h479zM471 639l-131 -248q-38 -70 -60 -129q-30 -79 -30 -133q0 -53 51 -90l38 -20q19 -8 19 -15q0 -8 -30 -8l-181 3l-112 -3q-19 0 -25 1q-12 2 -12 9t17 20q2 1 7 5l19 14q55 52 119 149l90 150l541 995q6 13 14 13h4q14 0 14 -13l605 -1163
q47 -92 129 -147q30 -21 30 -23q0 -4 -3 -7q-5 -3 -17 -3l-244 3q-18 0 -54 -1l-102 -2q-16 0 -16 6q0 8 12 13q2 1 12 5l15 7q37 20 37 73q0 39 -29 115q-25 65 -70 154l-133 270h-524zM644 2012q88 35 167 35q85 0 142 -34q69 -42 69 -118q0 -39 -33 -76q-12 -13 -31 -29
l-35 -27q-22 -18 -34 -29q-16 -14 -27 -28q-25 -31 -22 -78h-47q-3 49 17 90q7 15 21 35q7 10 22 31l24 32q12 18 21 34q19 35 19 69q0 88 -96 88q-88 0 -140 -131zM572 1697q48 -137 227 -137q178 0 226 137h73q-12 -92 -74 -160q-84 -92 -225 -92q-142 0 -226 92
q-62 68 -74 160h73z" />
    <glyph glyph-name="uni1EB4" unicode="&#x1eb4;" 
d="M743 1133l-247 -443h479zM471 639l-131 -248q-38 -70 -60 -129q-30 -79 -30 -133q0 -53 51 -90l38 -20q19 -8 19 -15q0 -8 -30 -8l-181 3l-112 -3q-19 0 -25 1q-12 2 -12 9t17 20q2 1 7 5l19 14q55 52 119 149l90 150l541 995q6 13 14 13h4q14 0 14 -13l605 -1163
q47 -92 129 -147q30 -21 30 -23q0 -4 -3 -7q-5 -3 -17 -3l-244 3q-18 0 -54 -1l-102 -2q-16 0 -16 6q0 8 12 13q2 1 12 5l15 7q37 20 37 73q0 39 -29 115q-25 65 -70 154l-133 270h-524zM1233 1954q-42 -215 -225 -215q-38 0 -79 14q-30 11 -73 33l-8 4q-1 1 -4 3q-3 1 -4 2
q-10 5 -17 8l-32 14q-34 14 -60 14q-88 0 -112 -92h-62q22 94 69 145q55 60 144 60q36 0 80 -14q29 -10 76 -31q48 -24 70 -33q37 -14 63 -14q87 0 115 102h59zM572 1697q48 -137 227 -137q178 0 226 137h73q-12 -92 -74 -160q-84 -92 -225 -92q-142 0 -226 92
q-62 68 -74 160h73z" />
    <glyph glyph-name="uni1EB6" unicode="&#x1eb6;" 
d="M743 1133l-247 -443h479zM471 639l-131 -248q-38 -70 -60 -129q-30 -79 -30 -133q0 -53 51 -90l38 -20q19 -8 19 -15q0 -8 -30 -8l-181 3l-112 -3q-19 0 -25 1q-12 2 -12 9t17 20q2 1 7 5l19 14q55 52 119 149l90 150l541 995q6 13 14 13h4q14 0 14 -13l605 -1163
q47 -92 129 -147q30 -21 30 -23q0 -4 -3 -7q-5 -3 -17 -3l-244 3q-18 0 -54 -1l-102 -2q-16 0 -16 6q0 8 12 13q2 1 12 5l15 7q37 20 37 73q0 39 -29 115q-25 65 -70 154l-133 270h-524zM734 -180q99 0 99 -100q0 -98 -99 -98q-100 0 -100 98q0 100 100 100zM572 1697
q48 -137 227 -137q178 0 226 137h73q-12 -92 -74 -160q-84 -92 -225 -92q-142 0 -226 92q-62 68 -74 160h73z" />
    <glyph glyph-name="Egrave" unicode="&#xc8;" horiz-adv-x="1441" 
d="M360 412q0 -56 4 -119l11 -119q9 -81 65 -104q49 -19 213 -19q88 0 153 3q84 4 155 15q172 24 292 91q44 24 73 53l50 57q10 11 19 11q10 0 10 -11l-1 -10l-85 -260h-1245q-29 0 -29 6q0 16 37 25q62 17 87 152q9 49 13 112q1 24 2 50v757q0 72 -11 107q-17 52 -67 77
q-14 7 -14 12q0 9 15 11q5 1 14 2h1104l62 -206q13 -48 13 -54q0 -9 -12 -9q-8 0 -20 21q-75 108 -213 155q-123 42 -322 42h-373v-531h199q409 0 469 57q35 35 57 86q7 11 15 11q10 0 10 -33l-1 -322q-2 -12 -7 -12q-6 0 -13 10q-25 56 -69 86q-64 43 -222 58q-58 5 -130 7
l-308 1v-266zM475 1595q-72 54 -72 88q0 70 66 70q45 0 92 -51l303 -301h-86z" />
    <glyph glyph-name="Eacute" unicode="&#xc9;" horiz-adv-x="1441" 
d="M360 412q0 -56 4 -119l11 -119q9 -81 65 -104q49 -19 213 -19q88 0 153 3q84 4 155 15q172 24 292 91q44 24 73 53l50 57q10 11 19 11q10 0 10 -11l-1 -10l-85 -260h-1245q-29 0 -29 6q0 16 37 25q62 17 87 152q9 49 13 112q1 24 2 50v757q0 72 -11 107q-17 52 -67 77
q-14 7 -14 12q0 9 15 11q5 1 14 2h1104l62 -206q13 -48 13 -54q0 -9 -12 -9q-8 0 -20 21q-75 108 -213 155q-123 42 -322 42h-373v-531h199q409 0 469 57q35 35 57 86q7 11 15 11q10 0 10 -33l-1 -322q-2 -12 -7 -12q-6 0 -13 10q-25 56 -69 86q-64 43 -222 58q-58 5 -130 7
l-308 1v-266zM555 1401l303 301q48 51 92 51q66 0 66 -70q0 -34 -72 -88l-303 -194h-86z" />
    <glyph glyph-name="uni1EBA" unicode="&#x1eba;" horiz-adv-x="1441" 
d="M360 412q0 -56 4 -119l11 -119q9 -81 65 -104q49 -19 213 -19q88 0 153 3q84 4 155 15q172 24 292 91q44 24 73 53l50 57q10 11 19 11q10 0 10 -11l-1 -10l-85 -260h-1245q-29 0 -29 6q0 16 37 25q62 17 87 152q9 49 13 112q1 24 2 50v757q0 72 -11 107q-17 52 -67 77
q-14 7 -14 12q0 9 15 11q5 1 14 2h1104l62 -206q13 -48 13 -54q0 -9 -12 -9q-8 0 -20 21q-75 108 -213 155q-123 42 -322 42h-373v-531h199q409 0 469 57q35 35 57 86q7 11 15 11q10 0 10 -33l-1 -322q-2 -12 -7 -12q-6 0 -13 10q-25 56 -69 86q-64 43 -222 58q-58 5 -130 7
l-308 1v-266zM526 1781q88 35 167 35q85 0 142 -34q69 -42 69 -118q0 -39 -33 -76q-12 -13 -31 -29l-35 -27q-22 -18 -34 -29q-16 -14 -27 -28q-25 -31 -22 -78h-47q-3 49 17 90q7 15 20 35q8 10 23 31l24 32q12 18 20 34q19 35 19 69q0 88 -95 88q-88 0 -141 -131z" />
    <glyph glyph-name="uni1EBC" unicode="&#x1ebc;" horiz-adv-x="1441" 
d="M360 412q0 -56 4 -119l11 -119q9 -81 65 -104q49 -19 213 -19q88 0 153 3q84 4 155 15q172 24 292 91q44 24 73 53l50 57q10 11 19 11q10 0 10 -11l-1 -10l-85 -260h-1245q-29 0 -29 6q0 16 37 25q62 17 87 152q9 49 13 112q1 24 2 50v757q0 72 -11 107q-17 52 -67 77
q-14 7 -14 12q0 9 15 11q5 1 14 2h1104l62 -206q13 -48 13 -54q0 -9 -12 -9q-8 0 -20 21q-75 108 -213 155q-123 42 -322 42h-373v-531h199q409 0 469 57q35 35 57 86q7 11 15 11q10 0 10 -33l-1 -322q-2 -12 -7 -12q-6 0 -13 10q-25 56 -69 86q-64 43 -222 58q-58 5 -130 7
l-308 1v-266zM1037 1669q-42 -215 -225 -215q-38 0 -79 14q-30 11 -73 33l-8 4q-1 1 -4 3q-3 1 -5 2l-16 8l-32 14q-34 14 -60 14q-88 0 -112 -92h-62q22 94 69 145q55 60 144 60q36 0 79 -14q30 -10 77 -31q48 -24 70 -33q37 -14 63 -14q87 0 115 102h59z" />
    <glyph glyph-name="uni1EB8" unicode="&#x1eb8;" horiz-adv-x="1441" 
d="M360 412q0 -56 4 -119l11 -119q9 -81 65 -104q49 -19 213 -19q88 0 153 3q84 4 155 15q172 24 292 91q44 24 73 53l50 57q10 11 19 11q10 0 10 -11l-1 -10l-85 -260h-1245q-29 0 -29 6q0 16 37 25q62 17 87 152q9 49 13 112q1 24 2 50v757q0 72 -11 107q-17 52 -67 77
q-14 7 -14 12q0 9 15 11q5 1 14 2h1104l62 -206q13 -48 13 -54q0 -9 -12 -9q-8 0 -20 21q-75 108 -213 155q-123 42 -322 42h-373v-531h199q409 0 469 57q35 35 57 86q7 11 15 11q10 0 10 -33l-1 -322q-2 -12 -7 -12q-6 0 -13 10q-25 56 -69 86q-64 43 -222 58q-58 5 -130 7
l-308 1v-266zM734 -180q99 0 99 -100q0 -98 -99 -98q-100 0 -100 98q0 100 100 100z" />
    <glyph glyph-name="Ecircumflex" unicode="&#xca;" horiz-adv-x="1441" 
d="M360 412q0 -56 4 -119l11 -119q9 -81 65 -104q49 -19 213 -19q88 0 153 3q84 4 155 15q172 24 292 91q44 24 73 53l50 57q10 11 19 11q10 0 10 -11l-1 -10l-85 -260h-1245q-29 0 -29 6q0 16 37 25q62 17 87 152q9 49 13 112q1 24 2 50v757q0 72 -11 107q-17 52 -67 77
q-14 7 -14 12q0 9 15 11q5 1 14 2h1104l62 -206q13 -48 13 -54q0 -9 -12 -9q-8 0 -20 21q-75 108 -213 155q-123 42 -322 42h-373v-531h199q409 0 469 57q35 35 57 86q7 11 15 11q10 0 10 -33l-1 -322q-2 -12 -7 -12q-6 0 -13 10q-25 56 -69 86q-64 43 -222 58q-58 5 -130 7
l-308 1v-266zM463 1401h-72l254 342h129l256 -342h-72l-247 211z" />
    <glyph glyph-name="uni1EC0" unicode="&#x1ec0;" horiz-adv-x="1441" 
d="M360 412q0 -56 4 -119l11 -119q9 -81 65 -104q49 -19 213 -19q88 0 153 3q84 4 155 15q172 24 292 91q44 24 73 53l50 57q10 11 19 11q10 0 10 -11l-1 -10l-85 -260h-1245q-29 0 -29 6q0 16 37 25q62 17 87 152q9 49 13 112q1 24 2 50v757q0 72 -11 107q-17 52 -67 77
q-14 7 -14 12q0 9 15 11q5 1 14 2h1104l62 -206q13 -48 13 -54q0 -9 -12 -9q-8 0 -20 21q-75 108 -213 155q-123 42 -322 42h-373v-531h199q409 0 469 57q35 35 57 86q7 11 15 11q10 0 10 -33l-1 -322q-2 -12 -7 -12q-6 0 -13 10q-25 56 -69 86q-64 43 -222 58q-58 5 -130 7
l-308 1v-266zM662 1864q-72 54 -72 88q0 70 66 70q45 0 92 -51l303 -301h-86zM463 1401h-72l254 342h129l256 -342h-72l-247 211z" />
    <glyph glyph-name="uni1EBE" unicode="&#x1ebe;" horiz-adv-x="1441" 
d="M360 412q0 -56 4 -119l11 -119q9 -81 65 -104q49 -19 213 -19q88 0 153 3q84 4 155 15q172 24 292 91q44 24 73 53l50 57q10 11 19 11q10 0 10 -11l-1 -10l-85 -260h-1245q-29 0 -29 6q0 16 37 25q62 17 87 152q9 49 13 112q1 24 2 50v757q0 72 -11 107q-17 52 -67 77
q-14 7 -14 12q0 9 15 11q5 1 14 2h1104l62 -206q13 -48 13 -54q0 -9 -12 -9q-8 0 -20 21q-75 108 -213 155q-123 42 -322 42h-373v-531h199q409 0 469 57q35 35 57 86q7 11 15 11q10 0 10 -33l-1 -322q-2 -12 -7 -12q-6 0 -13 10q-25 56 -69 86q-64 43 -222 58q-58 5 -130 7
l-308 1v-266zM885 1669l303 301q48 51 92 51q66 0 66 -70q0 -34 -72 -88l-303 -194h-86zM463 1401h-72l254 342h129l256 -342h-72l-247 211z" />
    <glyph glyph-name="uni1EC2" unicode="&#x1ec2;" horiz-adv-x="1441" 
d="M360 412q0 -56 4 -119l11 -119q9 -81 65 -104q49 -19 213 -19q88 0 153 3q84 4 155 15q172 24 292 91q44 24 73 53l50 57q10 11 19 11q10 0 10 -11l-1 -10l-85 -260h-1245q-29 0 -29 6q0 16 37 25q62 17 87 152q9 49 13 112q1 24 2 50v757q0 72 -11 107q-17 52 -67 77
q-14 7 -14 12q0 9 15 11q5 1 14 2h1104l62 -206q13 -48 13 -54q0 -9 -12 -9q-8 0 -20 21q-75 108 -213 155q-123 42 -322 42h-373v-531h199q409 0 469 57q35 35 57 86q7 11 15 11q10 0 10 -33l-1 -322q-2 -12 -7 -12q-6 0 -13 10q-25 56 -69 86q-64 43 -222 58q-58 5 -130 7
l-308 1v-266zM794 2013q88 35 167 35q85 0 142 -34q69 -42 69 -118q0 -39 -33 -76q-12 -13 -31 -29l-35 -27q-22 -18 -34 -29q-16 -14 -27 -28q-25 -31 -22 -78h-47q-3 49 17 90q7 15 20 35q8 10 23 31l24 32q12 18 20 34q19 35 19 69q0 88 -95 88q-88 0 -141 -131z
M463 1401h-72l254 342h129l256 -342h-72l-247 211z" />
    <glyph glyph-name="uni1EC4" unicode="&#x1ec4;" horiz-adv-x="1441" 
d="M360 412q0 -56 4 -119l11 -119q9 -81 65 -104q49 -19 213 -19q88 0 153 3q84 4 155 15q172 24 292 91q44 24 73 53l50 57q10 11 19 11q10 0 10 -11l-1 -10l-85 -260h-1245q-29 0 -29 6q0 16 37 25q62 17 87 152q9 49 13 112q1 24 2 50v757q0 72 -11 107q-17 52 -67 77
q-14 7 -14 12q0 9 15 11q5 1 14 2h1104l62 -206q13 -48 13 -54q0 -9 -12 -9q-8 0 -20 21q-75 108 -213 155q-123 42 -322 42h-373v-531h199q409 0 469 57q35 35 57 86q7 11 15 11q10 0 10 -33l-1 -322q-2 -12 -7 -12q-6 0 -13 10q-25 56 -69 86q-64 43 -222 58q-58 5 -130 7
l-308 1v-266zM1135 2017q-42 -215 -225 -215q-38 0 -79 14q-30 11 -73 33l-8 4q-1 1 -4 3q-3 1 -5 2l-16 8l-32 14q-34 14 -60 14q-88 0 -112 -92h-62q22 94 69 145q55 60 144 60q36 0 79 -14q30 -10 77 -31q48 -24 70 -33q37 -14 63 -14q87 0 115 102h59zM463 1401h-72
l254 342h129l256 -342h-72l-247 211z" />
    <glyph glyph-name="uni1EC6" unicode="&#x1ec6;" horiz-adv-x="1441" 
d="M360 412q0 -56 4 -119l11 -119q9 -81 65 -104q49 -19 213 -19q88 0 153 3q84 4 155 15q172 24 292 91q44 24 73 53l50 57q10 11 19 11q10 0 10 -11l-1 -10l-85 -260h-1245q-29 0 -29 6q0 16 37 25q62 17 87 152q9 49 13 112q1 24 2 50v757q0 72 -11 107q-17 52 -67 77
q-14 7 -14 12q0 9 15 11q5 1 14 2h1104l62 -206q13 -48 13 -54q0 -9 -12 -9q-8 0 -20 21q-75 108 -213 155q-123 42 -322 42h-373v-531h199q409 0 469 57q35 35 57 86q7 11 15 11q10 0 10 -33l-1 -322q-2 -12 -7 -12q-6 0 -13 10q-25 56 -69 86q-64 43 -222 58q-58 5 -130 7
l-308 1v-266zM734 -180q99 0 99 -100q0 -98 -99 -98q-100 0 -100 98q0 100 100 100zM463 1401h-72l254 342h129l256 -342h-72l-247 211z" />
    <glyph glyph-name="Igrave" unicode="&#xcc;" horiz-adv-x="569" 
d="M197 1112q0 68 -11 105q-17 58 -64 75q-15 7 -15 15t7 10q5 2 26 2l54 -4q47 -4 91 -4q24 0 72 4t72 4h9q6 -1 11 -1q15 -3 15 -9q0 -14 -15 -17q-47 -14 -64 -68q-11 -37 -11 -112v-789q0 -36 1 -63q2 -66 10 -110q19 -104 81 -132q22 -8 22 -18q0 -6 -22 -6l-85 4
q-14 1 -29 1l-197 -2q-10 -1 -20 -1l-38 -2q-25 0 -25 8q0 2 9 8q2 1 5 3l5 3q6 3 10 7q60 38 82 156q9 46 12 107q2 44 2 105v721zM40 1595q-72 54 -72 88q0 70 66 70q44 0 92 -51l303 -301h-86z" />
    <glyph glyph-name="Iacute" unicode="&#xcd;" horiz-adv-x="569" 
d="M196 1112q0 68 -11 105q-17 58 -65 75q-14 7 -14 15t6 10q5 2 27 2l53 -4q48 -4 92 -4q24 0 72 4t71 4h9q7 -1 12 -1q14 -3 14 -9q0 -14 -14 -17q-47 -14 -64 -68q-12 -37 -12 -112v-789q1 -36 1 -63q3 -66 11 -110q18 -104 80 -132q23 -8 23 -18q0 -6 -23 -6l-85 4
q-14 1 -28 1l-197 -2q-10 -1 -21 -1l-37 -2q-25 0 -25 8q0 2 9 8q1 1 4 3l5 3q6 3 11 7q59 38 82 156q8 46 12 107q2 44 2 105v721zM118 1401l303 301q48 51 92 51q66 0 66 -70q0 -34 -72 -88l-303 -194h-86z" />
    <glyph glyph-name="uni1EC8" unicode="&#x1ec8;" horiz-adv-x="569" 
d="M196 1112q0 68 -11 105q-17 58 -65 75q-14 7 -14 15t6 10q5 2 27 2l53 -4q48 -4 92 -4q24 0 72 4t71 4h9q7 -1 12 -1q14 -3 14 -9q0 -14 -14 -17q-47 -14 -64 -68q-12 -37 -12 -112v-789q1 -36 1 -63q3 -66 11 -110q18 -104 80 -132q23 -8 23 -18q0 -6 -23 -6l-85 4
q-14 1 -28 1l-197 -2q-10 -1 -21 -1l-37 -2q-25 0 -25 8q0 2 9 8q1 1 4 3l5 3q6 3 11 7q59 38 82 156q8 46 12 107q2 44 2 105v721zM115 1781q89 35 168 35q84 0 141 -34q69 -42 69 -118q0 -39 -33 -76q-11 -13 -31 -29l-34 -27q-23 -18 -35 -29q-15 -14 -27 -28
q-24 -31 -21 -78h-48q-3 49 17 90q8 15 21 35q7 10 22 31l24 32q12 18 21 34q19 35 19 69q0 88 -96 88q-88 0 -140 -131z" />
    <glyph glyph-name="Itilde" unicode="&#x128;" horiz-adv-x="569" 
d="M195 1112q0 68 -11 105q-17 58 -64 75q-15 7 -15 15t7 10q5 2 26 2l54 -4q47 -4 91 -4q24 0 72 4t72 4h9q6 -1 11 -1q15 -3 15 -9q0 -14 -15 -17q-47 -14 -64 -68q-11 -37 -11 -112v-789q0 -36 1 -63q2 -66 10 -110q19 -104 81 -132q22 -8 22 -18q0 -6 -22 -6l-85 4
q-14 1 -28 1l-198 -2q-10 -1 -20 -1l-38 -2q-25 0 -25 8q0 2 9 8q2 1 5 3l5 3q6 3 10 7q60 38 82 156q9 46 12 107q2 44 2 105v721zM635 1669q-42 -215 -225 -215q-38 0 -79 14q-30 11 -73 33l-8 4q-1 1 -5 3l-4 2l-16 8l-32 14q-34 14 -60 14q-88 0 -113 -92h-61
q22 94 69 145q55 60 144 60q36 0 79 -14q30 -10 77 -31q48 -24 70 -33q37 -14 63 -14q87 0 114 102h60z" />
    <glyph glyph-name="uni1ECA" unicode="&#x1eca;" horiz-adv-x="569" 
d="M196 1112q0 68 -11 105q-17 58 -65 75q-14 7 -14 15t6 10q5 2 27 2l53 -4q48 -4 92 -4q24 0 72 4t71 4h9q7 -1 12 -1q14 -3 14 -9q0 -14 -14 -17q-47 -14 -64 -68q-12 -37 -12 -112v-789q1 -36 1 -63q3 -66 11 -110q18 -104 80 -132q23 -8 23 -18q0 -6 -23 -6l-85 4
q-14 1 -28 1l-197 -2q-10 -1 -21 -1l-37 -2q-25 0 -25 8q0 2 9 8q1 1 4 3l5 3q6 3 11 7q59 38 82 156q8 46 12 107q2 44 2 105v721zM280 -180q98 0 98 -100q0 -98 -98 -98q-101 0 -101 98q0 100 101 100z" />
    <glyph glyph-name="Ograve" unicode="&#xd2;" horiz-adv-x="1705" 
d="M1271 192q128 164 128 449q0 305 -128 474q-140 185 -419 185q-280 0 -419 -185q-128 -169 -128 -474q0 -285 128 -449q141 -182 419 -182t419 182zM325 143q-112 94 -173 220q-66 136 -66 296q0 158 66 292q61 125 173 217q221 184 527 184t527 -184q112 -92 173 -217
q66 -134 66 -292q0 -160 -66 -296q-61 -126 -173 -220q-220 -184 -527 -184t-527 184zM618 1595q-71 54 -71 88q0 70 65 70q45 0 92 -51l304 -301h-86z" />
    <glyph glyph-name="Oacute" unicode="&#xd3;" horiz-adv-x="1705" 
d="M1271 192q128 164 128 449q0 305 -128 474q-140 185 -419 185q-280 0 -419 -185q-128 -169 -128 -474q0 -285 128 -449q141 -182 419 -182t419 182zM325 143q-112 94 -173 220q-66 136 -66 296q0 158 66 292q61 125 173 217q221 184 527 184t527 -184q112 -92 173 -217
q66 -134 66 -292q0 -160 -66 -296q-61 -126 -173 -220q-220 -184 -527 -184t-527 184zM698 1401l303 301q48 51 93 51q65 0 65 -70q0 -34 -72 -88l-303 -194h-86z" />
    <glyph glyph-name="uni1ECE" unicode="&#x1ece;" horiz-adv-x="1705" 
d="M1271 192q128 164 128 449q0 305 -128 474q-140 185 -419 185q-280 0 -419 -185q-128 -169 -128 -474q0 -285 128 -449q141 -182 419 -182t419 182zM325 143q-112 94 -173 220q-66 136 -66 296q0 158 66 292q61 125 173 217q221 184 527 184t527 -184q112 -92 173 -217
q66 -134 66 -292q0 -160 -66 -296q-61 -126 -173 -220q-220 -184 -527 -184t-527 184zM660 1781q88 35 167 35q85 0 142 -34q69 -42 69 -118q0 -39 -33 -76q-12 -13 -31 -29l-35 -27q-22 -18 -34 -29q-16 -14 -27 -28q-25 -31 -22 -78h-47q-3 49 17 90q7 15 21 35
q7 10 22 31l24 32q12 18 20 34q19 35 19 69q0 88 -95 88q-88 0 -141 -131z" />
    <glyph glyph-name="Otilde" unicode="&#xd5;" horiz-adv-x="1705" 
d="M1271 192q128 164 128 449q0 305 -128 474q-140 185 -419 185q-280 0 -419 -185q-128 -169 -128 -474q0 -285 128 -449q141 -182 419 -182t419 182zM325 143q-112 94 -173 220q-66 136 -66 296q0 158 66 292q61 125 173 217q221 184 527 184t527 -184q112 -92 173 -217
q66 -134 66 -292q0 -160 -66 -296q-61 -126 -173 -220q-220 -184 -527 -184t-527 184zM1192 1669q-42 -215 -225 -215q-38 0 -79 14q-30 11 -73 33l-8 4q-1 1 -4 3q-3 1 -5 2l-16 8l-32 14q-34 14 -60 14q-88 0 -112 -92h-62q22 94 69 145q55 60 144 60q36 0 79 -14
q30 -10 77 -31q48 -24 70 -33q37 -14 63 -14q87 0 115 102h59z" />
    <glyph glyph-name="uni1ECC" unicode="&#x1ecc;" horiz-adv-x="1705" 
d="M1271 192q128 164 128 449q0 305 -128 474q-140 185 -419 185q-280 0 -419 -185q-128 -169 -128 -474q0 -285 128 -449q141 -182 419 -182t419 182zM325 143q-112 94 -173 220q-66 136 -66 296q0 158 66 292q61 125 173 217q221 184 527 184t527 -184q112 -92 173 -217
q66 -134 66 -292q0 -160 -66 -296q-61 -126 -173 -220q-220 -184 -527 -184t-527 184zM853 -180q98 0 98 -100q0 -98 -98 -98q-100 0 -100 98q0 100 100 100z" />
    <glyph glyph-name="Ocircumflex" unicode="&#xd4;" horiz-adv-x="1705" 
d="M1271 192q128 164 128 449q0 305 -128 474q-140 185 -419 185q-280 0 -419 -185q-128 -169 -128 -474q0 -285 128 -449q141 -182 419 -182t419 182zM325 143q-112 94 -173 220q-66 136 -66 296q0 158 66 292q61 125 173 217q221 184 527 184t527 -184q112 -92 173 -217
q66 -134 66 -292q0 -160 -66 -296q-61 -126 -173 -220q-220 -184 -527 -184t-527 184zM606 1401h-71l253 342h129l256 -342h-71l-248 211z" />
    <glyph glyph-name="uni1ED2" unicode="&#x1ed2;" horiz-adv-x="1705" 
d="M1271 192q128 164 128 449q0 305 -128 474q-140 185 -419 185q-280 0 -419 -185q-128 -169 -128 -474q0 -285 128 -449q141 -182 419 -182t419 182zM325 143q-112 94 -173 220q-66 136 -66 296q0 158 66 292q61 125 173 217q221 184 527 184t527 -184q112 -92 173 -217
q66 -134 66 -292q0 -160 -66 -296q-61 -126 -173 -220q-220 -184 -527 -184t-527 184zM803 1881q-71 54 -71 88q0 70 65 70q45 0 92 -51l304 -301h-86zM606 1401h-71l253 342h129l256 -342h-71l-248 211z" />
    <glyph glyph-name="uni1ED0" unicode="&#x1ed0;" horiz-adv-x="1705" 
d="M1271 192q128 164 128 449q0 305 -128 474q-140 185 -419 185q-280 0 -419 -185q-128 -169 -128 -474q0 -285 128 -449q141 -182 419 -182t419 182zM325 143q-112 94 -173 220q-66 136 -66 296q0 158 66 292q61 125 173 217q221 184 527 184t527 -184q112 -92 173 -217
q66 -134 66 -292q0 -160 -66 -296q-61 -126 -173 -220q-220 -184 -527 -184t-527 184zM1048 1668l303 301q48 51 93 51q65 0 65 -70q0 -34 -72 -88l-303 -194h-86zM606 1401h-71l253 342h129l256 -342h-71l-248 211z" />
    <glyph glyph-name="uni1ED4" unicode="&#x1ed4;" horiz-adv-x="1705" 
d="M1271 192q128 164 128 449q0 305 -128 474q-140 185 -419 185q-280 0 -419 -185q-128 -169 -128 -474q0 -285 128 -449q141 -182 419 -182t419 182zM325 143q-112 94 -173 220q-66 136 -66 296q0 158 66 292q61 125 173 217q221 184 527 184t527 -184q112 -92 173 -217
q66 -134 66 -292q0 -160 -66 -296q-61 -126 -173 -220q-220 -184 -527 -184t-527 184zM954 2004q88 35 167 35q85 0 142 -34q69 -42 69 -118q0 -39 -33 -76q-12 -13 -31 -29l-35 -27q-22 -18 -34 -29q-16 -14 -27 -28q-25 -31 -22 -78h-47q-3 49 17 90q7 15 21 35
q7 10 22 31l24 32q12 18 20 34q19 35 19 69q0 88 -95 88q-88 0 -141 -131zM606 1401h-71l253 342h129l256 -342h-71l-248 211z" />
    <glyph glyph-name="uni1ED6" unicode="&#x1ed6;" horiz-adv-x="1705" 
d="M1271 192q128 164 128 449q0 305 -128 474q-140 185 -419 185q-280 0 -419 -185q-128 -169 -128 -474q0 -285 128 -449q141 -182 419 -182t419 182zM325 143q-112 94 -173 220q-66 136 -66 296q0 158 66 292q61 125 173 217q221 184 527 184t527 -184q112 -92 173 -217
q66 -134 66 -292q0 -160 -66 -296q-61 -126 -173 -220q-220 -184 -527 -184t-527 184zM1290 2008q-42 -215 -225 -215q-38 0 -79 14q-30 11 -73 33l-8 4q-1 1 -4 3q-3 1 -5 2l-16 8l-32 14q-34 14 -60 14q-88 0 -112 -92h-62q22 94 69 145q55 60 144 60q36 0 79 -14
q30 -10 77 -31q48 -24 70 -33q37 -14 63 -14q87 0 115 102h59zM606 1401h-71l253 342h129l256 -342h-71l-248 211z" />
    <glyph glyph-name="uni1ED8" unicode="&#x1ed8;" horiz-adv-x="1705" 
d="M1271 192q128 164 128 449q0 305 -128 474q-140 185 -419 185q-280 0 -419 -185q-128 -169 -128 -474q0 -285 128 -449q141 -182 419 -182t419 182zM325 143q-112 94 -173 220q-66 136 -66 296q0 158 66 292q61 125 173 217q221 184 527 184t527 -184q112 -92 173 -217
q66 -134 66 -292q0 -160 -66 -296q-61 -126 -173 -220q-220 -184 -527 -184t-527 184zM853 -180q98 0 98 -100q0 -98 -98 -98q-100 0 -100 98q0 100 100 100zM606 1401h-71l253 342h129l256 -342h-71l-248 211z" />
    <glyph glyph-name="Ugrave" unicode="&#xd9;" 
d="M184 1112q0 96 -22 137q-8 16 -20 25l-11 7q-3 2 -10 5q-31 12 -31 21q0 12 23 12l151 -8l180 8q12 0 21 -3q10 -3 10 -7q0 -5 -6 -10q-8 -7 -23 -13q-55 -19 -73 -106q-8 -36 -11 -86q-2 -36 -2 -95v-514q0 -216 111 -341q119 -134 346 -134q128 0 219 23q101 25 168 80
q146 122 146 419v449q0 248 -113 299q-41 19 -41 29q0 5 10 8q7 2 14 2l46 -4q21 -2 47 -3q33 -1 73 -1l146 4q22 0 22 -8q0 -4 -11 -11l-23 -14q-61 -35 -82 -91q-23 -61 -23 -210v-414q0 -353 -163 -492q-75 -64 -191 -91q-103 -25 -254 -25q-341 0 -488 123
q-135 112 -135 356v674zM604 1595q-72 54 -72 88q0 70 66 70q45 0 92 -51l303 -301h-86z" />
    <glyph glyph-name="Uacute" unicode="&#xda;" 
d="M184 1112q0 96 -22 137q-8 16 -20 25l-11 7q-3 2 -10 5q-31 12 -31 21q0 12 23 12l151 -8l180 8q12 0 21 -3q10 -3 10 -7q0 -5 -6 -10q-8 -7 -23 -13q-55 -19 -73 -106q-8 -36 -11 -86q-2 -36 -2 -95v-514q0 -216 111 -341q119 -134 346 -134q128 0 219 23q101 25 168 80
q146 122 146 419v449q0 248 -113 299q-41 19 -41 29q0 5 10 8q7 2 14 2l46 -4q21 -2 47 -3q33 -1 73 -1l146 4q22 0 22 -8q0 -4 -11 -11l-23 -14q-61 -35 -82 -91q-23 -61 -23 -210v-414q0 -353 -163 -492q-75 -64 -191 -91q-103 -25 -254 -25q-341 0 -488 123
q-135 112 -135 356v674zM684 1401l303 301q48 51 92 51q66 0 66 -70q0 -34 -72 -88l-303 -194h-86z" />
    <glyph glyph-name="uni1EE6" unicode="&#x1ee6;" 
d="M184 1112q0 96 -22 137q-8 16 -20 25l-11 7q-3 2 -10 5q-31 12 -31 21q0 12 23 12l151 -8l180 8q12 0 21 -3q10 -3 10 -7q0 -5 -6 -10q-8 -7 -23 -13q-55 -19 -73 -106q-8 -36 -11 -86q-2 -36 -2 -95v-514q0 -216 111 -341q119 -134 346 -134q128 0 219 23q101 25 168 80
q146 122 146 419v449q0 248 -113 299q-41 19 -41 29q0 5 10 8q7 2 14 2l46 -4q21 -2 47 -3q33 -1 73 -1l146 4q22 0 22 -8q0 -4 -11 -11l-23 -14q-61 -35 -82 -91q-23 -61 -23 -210v-414q0 -353 -163 -492q-75 -64 -191 -91q-103 -25 -254 -25q-341 0 -488 123
q-135 112 -135 356v674zM660 1781q88 35 167 35q85 0 142 -34q69 -42 69 -118q0 -39 -33 -76q-12 -13 -31 -29l-35 -27q-22 -18 -34 -29q-16 -14 -27 -28q-25 -31 -22 -78h-47q-3 49 17 90q7 15 20 35q7 10 23 31l24 32q12 18 20 34q19 35 19 69q0 88 -95 88
q-88 0 -141 -131z" />
    <glyph glyph-name="Utilde" unicode="&#x168;" 
d="M184 1112q0 96 -22 137q-8 16 -20 25l-11 7q-3 2 -10 5q-31 12 -31 21q0 12 23 12l151 -8l180 8q12 0 21 -3q10 -3 10 -7q0 -5 -6 -10q-8 -7 -23 -13q-55 -19 -73 -106q-8 -36 -11 -86q-2 -36 -2 -95v-514q0 -216 111 -341q119 -134 346 -134q128 0 219 23q101 25 168 80
q146 122 146 419v449q0 248 -113 299q-41 19 -41 29q0 5 10 8q7 2 14 2l46 -4q21 -2 47 -3q33 -1 73 -1l146 4q22 0 22 -8q0 -4 -11 -11l-23 -14q-61 -35 -82 -91q-23 -61 -23 -210v-414q0 -353 -163 -492q-75 -64 -191 -91q-103 -25 -254 -25q-341 0 -488 123
q-135 112 -135 356v674zM1192 1669q-42 -215 -225 -215q-38 0 -79 14q-30 11 -73 33l-8 4q-1 1 -5 3l-4 2l-16 8l-32 14q-34 14 -60 14q-88 0 -113 -92h-61q22 94 69 145q55 60 144 60q36 0 79 -14q30 -10 77 -31q48 -24 70 -33q37 -14 63 -14q87 0 114 102h60z" />
    <glyph glyph-name="uni1EE4" unicode="&#x1ee4;" 
d="M184 1112q0 96 -22 137q-8 16 -20 25l-11 7q-3 2 -10 5q-31 12 -31 21q0 12 23 12l151 -8l180 8q12 0 21 -3q10 -3 10 -7q0 -5 -6 -10q-8 -7 -23 -13q-55 -19 -73 -106q-8 -36 -11 -86q-2 -36 -2 -95v-514q0 -216 111 -341q119 -134 346 -134q128 0 219 23q101 25 168 80
q146 122 146 419v449q0 248 -113 299q-41 19 -41 29q0 5 10 8q7 2 14 2l46 -4q21 -2 47 -3q33 -1 73 -1l146 4q22 0 22 -8q0 -4 -11 -11l-23 -14q-61 -35 -82 -91q-23 -61 -23 -210v-414q0 -353 -163 -492q-75 -64 -191 -91q-103 -25 -254 -25q-341 0 -488 123
q-135 112 -135 356v674zM853 -180q98 0 98 -100q0 -98 -98 -98q-100 0 -100 98q0 100 100 100z" />
    <glyph glyph-name="Uhorn" unicode="&#x1af;" 
d="M1526 1524q102 -30 61 -169q-24 -81 -116 -158q-85 -71 -120 -61q-9 3 -7 10q2 8 7 11q57 42 84 74q36 42 52 97q-111 29 -94 122q29 94 133 74zM1420 1101q-5 -51 -5 -120v-414q0 -353 -163 -492q-74 -64 -191 -91q-103 -25 -254 -25q-341 0 -488 123q-135 112 -135 356
v674q0 96 -21 137q-9 16 -21 25l-11 7q-3 2 -10 5q-31 12 -31 21q0 12 23 12l151 -8l180 8q12 0 21 -3q10 -3 10 -7q0 -5 -6 -10q-8 -7 -23 -13q-54 -19 -73 -106q-8 -36 -11 -86q-2 -36 -2 -95v-514q0 -216 111 -341q120 -134 346 -134q129 0 219 23q102 25 168 80
q146 122 146 419v449q0 248 -113 299q-41 19 -41 29q0 5 10 8q7 2 15 2l45 -4q22 -2 47 -3q33 -1 73 -1q48 -11 34 -210z" />
    <glyph glyph-name="uni1EEA" unicode="&#x1eea;" 
d="M604 1595q-72 54 -72 88q0 70 66 70q45 0 92 -51l303 -301h-86zM1422 1217q7 7 13 14q36 42 52 97q-111 29 -94 122q29 94 133 74q102 -30 61 -169q-24 -81 -116 -158q-26 -22 -48 -36q-1 -28 -3 -60q-5 -51 -5 -120v-414q0 -353 -163 -492q-74 -64 -191 -91
q-103 -25 -254 -25q-341 0 -488 123q-135 112 -135 356v674q0 96 -21 137q-9 16 -21 25l-11 7q-3 2 -10 5q-31 12 -31 21q0 12 23 12l151 -8l180 8q12 0 21 -3q10 -3 10 -7q0 -5 -6 -10q-8 -7 -23 -13q-54 -19 -73 -106q-8 -36 -11 -86q-2 -36 -2 -95v-514q0 -216 111 -341
q120 -134 346 -134q129 0 219 23q102 25 168 80q146 122 146 419v449q0 248 -113 299q-41 19 -41 29q0 5 10 8q7 2 15 2l45 -4q22 -2 47 -3q33 -1 73 -1q31 -7 36 -94z" />
    <glyph glyph-name="uni1EE8" unicode="&#x1ee8;" 
d="M684 1401l303 301q48 51 92 51q66 0 66 -70q0 -34 -72 -88l-303 -194h-86zM1422 1217q7 7 13 14q36 42 52 97q-111 29 -94 122q29 94 133 74q102 -30 61 -169q-24 -81 -116 -158q-26 -22 -48 -36q-1 -28 -3 -60q-5 -51 -5 -120v-414q0 -353 -163 -492q-74 -64 -191 -91
q-103 -25 -254 -25q-341 0 -488 123q-135 112 -135 356v674q0 96 -21 137q-9 16 -21 25l-11 7q-3 2 -10 5q-31 12 -31 21q0 12 23 12l151 -8l180 8q12 0 21 -3q10 -3 10 -7q0 -5 -6 -10q-8 -7 -23 -13q-54 -19 -73 -106q-8 -36 -11 -86q-2 -36 -2 -95v-514q0 -216 111 -341
q120 -134 346 -134q129 0 219 23q102 25 168 80q146 122 146 419v449q0 248 -113 299q-41 19 -41 29q0 5 10 8q7 2 15 2l45 -4q22 -2 47 -3q33 -1 73 -1q31 -7 36 -94z" />
    <glyph glyph-name="uni1EEC" unicode="&#x1eec;" 
d="M660 1781q88 35 167 35q85 0 142 -34q69 -42 69 -118q0 -39 -33 -76q-12 -13 -31 -29l-35 -27q-22 -18 -34 -29q-16 -14 -27 -28q-25 -31 -22 -78h-47q-3 49 17 90q7 15 20 35q7 10 23 31l24 32q12 18 20 34q19 35 19 69q0 88 -95 88q-88 0 -141 -131zM1422 1217
q7 7 13 14q36 42 52 97q-111 29 -94 122q29 94 133 74q102 -30 61 -169q-24 -81 -116 -158q-26 -22 -48 -36q-1 -28 -3 -60q-5 -51 -5 -120v-414q0 -353 -163 -492q-74 -64 -191 -91q-103 -25 -254 -25q-341 0 -488 123q-135 112 -135 356v674q0 96 -21 137q-9 16 -21 25
l-11 7q-3 2 -10 5q-31 12 -31 21q0 12 23 12l151 -8l180 8q12 0 21 -3q10 -3 10 -7q0 -5 -6 -10q-8 -7 -23 -13q-54 -19 -73 -106q-8 -36 -11 -86q-2 -36 -2 -95v-514q0 -216 111 -341q120 -134 346 -134q129 0 219 23q102 25 168 80q146 122 146 419v449q0 248 -113 299
q-41 19 -41 29q0 5 10 8q7 2 15 2l45 -4q22 -2 47 -3q33 -1 73 -1q31 -7 36 -94z" />
    <glyph glyph-name="uni1EEE" unicode="&#x1eee;" 
d="M1192 1669q-42 -215 -225 -215q-38 0 -79 14q-30 11 -73 33l-8 4q-1 1 -5 3l-4 2l-16 8l-32 14q-34 14 -60 14q-88 0 -113 -92h-61q22 94 69 145q55 60 144 60q36 0 79 -14q30 -10 77 -31q48 -24 70 -33q37 -14 63 -14q87 0 114 102h60zM1422 1217q7 7 13 14q36 42 52 97
q-111 29 -94 122q29 94 133 74q102 -30 61 -169q-24 -81 -116 -158q-26 -22 -48 -36q-1 -28 -3 -60q-5 -51 -5 -120v-414q0 -353 -163 -492q-74 -64 -191 -91q-103 -25 -254 -25q-341 0 -488 123q-135 112 -135 356v674q0 96 -21 137q-9 16 -21 25l-11 7q-3 2 -10 5
q-31 12 -31 21q0 12 23 12l151 -8l180 8q12 0 21 -3q10 -3 10 -7q0 -5 -6 -10q-8 -7 -23 -13q-54 -19 -73 -106q-8 -36 -11 -86q-2 -36 -2 -95v-514q0 -216 111 -341q120 -134 346 -134q129 0 219 23q102 25 168 80q146 122 146 419v449q0 248 -113 299q-41 19 -41 29
q0 5 10 8q7 2 15 2l45 -4q22 -2 47 -3q33 -1 73 -1q31 -7 36 -94z" />
    <glyph glyph-name="uni1EF0" unicode="&#x1ef0;" 
d="M853 -180q98 0 98 -100q0 -98 -98 -98q-100 0 -100 98q0 100 100 100zM1422 1217q7 7 13 14q36 42 52 97q-111 29 -94 122q29 94 133 74q102 -30 61 -169q-24 -81 -116 -158q-26 -22 -48 -36q-1 -28 -3 -60q-5 -51 -5 -120v-414q0 -353 -163 -492q-74 -64 -191 -91
q-103 -25 -254 -25q-341 0 -488 123q-135 112 -135 356v674q0 96 -21 137q-9 16 -21 25l-11 7q-3 2 -10 5q-31 12 -31 21q0 12 23 12l151 -8l180 8q12 0 21 -3q10 -3 10 -7q0 -5 -6 -10q-8 -7 -23 -13q-54 -19 -73 -106q-8 -36 -11 -86q-2 -36 -2 -95v-514q0 -216 111 -341
q120 -134 346 -134q129 0 219 23q102 25 168 80q146 122 146 419v449q0 248 -113 299q-41 19 -41 29q0 5 10 8q7 2 15 2l45 -4q22 -2 47 -3q33 -1 73 -1q31 -7 36 -94z" />
    <glyph glyph-name="Ohorn" unicode="&#x1a0;" horiz-adv-x="1705" 
d="M1271 192q128 164 128 449q0 305 -128 474q-140 185 -419 185q-280 0 -419 -185q-128 -169 -128 -474q0 -285 128 -449q141 -182 419 -182t419 182zM1363 1181q8 -6 16 -13q112 -92 173 -217q66 -134 66 -292q0 -160 -66 -296q-61 -126 -173 -220q-220 -184 -527 -184
t-527 184q-112 94 -173 220q-66 136 -66 296q0 158 66 292q61 125 173 217q221 184 527 184q270 0 474 -143q12 11 21 22q36 42 52 97q-111 29 -94 122q29 94 133 74q102 -30 61 -169q-24 -81 -116 -158q-10 -9 -20 -16z" />
    <glyph glyph-name="uni1EDC" unicode="&#x1edc;" horiz-adv-x="1705" 
d="M1271 192q128 164 128 449q0 305 -128 474q-140 185 -419 185q-280 0 -419 -185q-128 -169 -128 -474q0 -285 128 -449q141 -182 419 -182t419 182zM618 1595q-71 54 -71 88q0 70 65 70q45 0 92 -51l304 -301h-86zM1363 1181q8 -6 16 -13q112 -92 173 -217
q66 -134 66 -292q0 -160 -66 -296q-61 -126 -173 -220q-220 -184 -527 -184t-527 184q-112 94 -173 220q-66 136 -66 296q0 158 66 292q61 125 173 217q221 184 527 184q270 0 474 -143q12 11 21 22q36 42 52 97q-111 29 -94 122q29 94 133 74q102 -30 61 -169
q-24 -81 -116 -158q-10 -9 -20 -16z" />
    <glyph glyph-name="uni1EDA" unicode="&#x1eda;" horiz-adv-x="1705" 
d="M1271 192q128 164 128 449q0 305 -128 474q-140 185 -419 185q-280 0 -419 -185q-128 -169 -128 -474q0 -285 128 -449q141 -182 419 -182t419 182zM698 1401l303 301q48 51 93 51q65 0 65 -70q0 -34 -72 -88l-303 -194h-86zM1363 1181q8 -6 16 -13q112 -92 173 -217
q66 -134 66 -292q0 -160 -66 -296q-61 -126 -173 -220q-220 -184 -527 -184t-527 184q-112 94 -173 220q-66 136 -66 296q0 158 66 292q61 125 173 217q221 184 527 184q270 0 474 -143q12 11 21 22q36 42 52 97q-111 29 -94 122q29 94 133 74q102 -30 61 -169
q-24 -81 -116 -158q-10 -9 -20 -16z" />
    <glyph glyph-name="uni1EDE" unicode="&#x1ede;" horiz-adv-x="1705" 
d="M1271 192q128 164 128 449q0 305 -128 474q-140 185 -419 185q-280 0 -419 -185q-128 -169 -128 -474q0 -285 128 -449q141 -182 419 -182t419 182zM660 1781q88 35 167 35q85 0 142 -34q69 -42 69 -118q0 -39 -33 -76q-12 -13 -31 -29l-35 -27q-22 -18 -34 -29
q-16 -14 -27 -28q-25 -31 -22 -78h-47q-3 49 17 90q7 15 21 35q7 10 22 31l24 32q12 18 20 34q19 35 19 69q0 88 -95 88q-88 0 -141 -131zM1363 1181q8 -6 16 -13q112 -92 173 -217q66 -134 66 -292q0 -160 -66 -296q-61 -126 -173 -220q-220 -184 -527 -184t-527 184
q-112 94 -173 220q-66 136 -66 296q0 158 66 292q61 125 173 217q221 184 527 184q270 0 474 -143q12 11 21 22q36 42 52 97q-111 29 -94 122q29 94 133 74q102 -30 61 -169q-24 -81 -116 -158q-10 -9 -20 -16z" />
    <glyph glyph-name="uni1EE0" unicode="&#x1ee0;" horiz-adv-x="1705" 
d="M1271 192q128 164 128 449q0 305 -128 474q-140 185 -419 185q-280 0 -419 -185q-128 -169 -128 -474q0 -285 128 -449q141 -182 419 -182t419 182zM325 143q-112 94 -173 220q-66 136 -66 296q0 158 66 292q61 125 173 217q221 184 527 184t527 -184q112 -92 173 -217
q66 -134 66 -292q0 -160 -66 -296q-61 -126 -173 -220q-220 -184 -527 -184t-527 184zM1192 1669q-42 -215 -225 -215q-38 0 -79 14q-30 11 -73 33l-8 4q-1 1 -4 3q-3 1 -5 2l-16 8l-32 14q-34 14 -60 14q-88 0 -112 -92h-62q22 94 69 145q55 60 144 60q36 0 79 -14
q30 -10 77 -31q48 -24 70 -33q37 -14 63 -14q87 0 115 102h59zM1438 1524q102 -30 61 -169q-24 -81 -116 -158q-85 -71 -120 -61q-9 3 -7 10q2 8 7 11q57 42 84 74q36 42 52 97q-111 29 -94 122q29 94 133 74z" />
    <glyph glyph-name="uni1EE2" unicode="&#x1ee2;" horiz-adv-x="1705" 
d="M1271 192q128 164 128 449q0 305 -128 474q-140 185 -419 185q-280 0 -419 -185q-128 -169 -128 -474q0 -285 128 -449q141 -182 419 -182t419 182zM853 -180q98 0 98 -100q0 -98 -98 -98q-100 0 -100 98q0 100 100 100zM1363 1181q8 -6 16 -13q112 -92 173 -217
q66 -134 66 -292q0 -160 -66 -296q-61 -126 -173 -220q-220 -184 -527 -184t-527 184q-112 94 -173 220q-66 136 -66 296q0 158 66 292q61 125 173 217q221 184 527 184q270 0 474 -143q12 11 21 22q36 42 52 97q-111 29 -94 122q29 94 133 74q102 -30 61 -169
q-24 -81 -116 -158q-10 -9 -20 -16z" />
    <glyph glyph-name="Ygrave" unicode="&#x1ef2;" horiz-adv-x="1441" 
d="M791 303q0 -203 53 -256q12 -10 25 -18l23 -13q21 -11 21 -12q0 -8 -22 -8l-118 3h-137l-124 -3q-18 0 -18 8q0 3 22 14l21 11q13 8 22 18q55 55 55 256v260l-309 410l-119 144q-84 102 -127 140l-37 26q-24 15 -24 24q0 12 14 12l181 -8q38 0 121 4l104 4q16 0 16 -16
q0 -4 -10 -7l-20 -6q-54 -16 -54 -67q0 -72 123 -217l289 -349l282 326q36 43 61 77q73 100 73 154q0 32 -23 54l-21 15l-33 14q-7 4 -7 10q0 12 10 12l158 -6l174 6q10 -5 10 -14t-14 -21q-211 -169 -377 -379l-264 -321v-281zM604 1595q-72 54 -72 88q0 70 66 70
q45 0 92 -51l303 -301h-86z" />
    <glyph glyph-name="Yacute" unicode="&#xdd;" horiz-adv-x="1441" 
d="M791 303q0 -203 53 -256q12 -10 25 -18l23 -13q21 -11 21 -12q0 -8 -22 -8l-118 3h-137l-124 -3q-18 0 -18 8q0 3 22 14l21 11q13 8 22 18q55 55 55 256v260l-309 410l-119 144q-84 102 -127 140l-37 26q-24 15 -24 24q0 12 14 12l181 -8q38 0 121 4l104 4q16 0 16 -16
q0 -4 -10 -7l-20 -6q-54 -16 -54 -67q0 -72 123 -217l289 -349l282 326q36 43 61 77q73 100 73 154q0 32 -23 54l-21 15l-33 14q-7 4 -7 10q0 12 10 12l158 -6l174 6q10 -5 10 -14t-14 -21q-211 -169 -377 -379l-264 -321v-281zM571 1401l304 301q47 51 92 51q65 0 65 -70
q0 -34 -71 -88l-304 -194h-86z" />
    <glyph glyph-name="uni1EF6" unicode="&#x1ef6;" horiz-adv-x="1441" 
d="M791 303q0 -203 53 -256q12 -10 25 -18l23 -13q21 -11 21 -12q0 -8 -22 -8l-118 3h-137l-124 -3q-18 0 -18 8q0 3 22 14l21 11q13 8 22 18q55 55 55 256v260l-309 410l-119 144q-84 102 -127 140l-37 26q-24 15 -24 24q0 12 14 12l181 -8q38 0 121 4l104 4q16 0 16 -16
q0 -4 -10 -7l-20 -6q-54 -16 -54 -67q0 -72 123 -217l289 -349l282 326q36 43 61 77q73 100 73 154q0 32 -23 54l-21 15l-33 14q-7 4 -7 10q0 12 10 12l158 -6l174 6q10 -5 10 -14t-14 -21q-211 -169 -377 -379l-264 -321v-281zM607 1781q88 35 167 35q85 0 142 -34
q69 -42 69 -118q0 -39 -33 -76q-12 -13 -31 -29l-35 -27q-22 -18 -34 -29q-16 -14 -27 -28q-25 -31 -22 -78h-47q-3 49 17 90q7 15 21 35q7 10 22 31l24 32q12 18 21 34q18 35 18 69q0 88 -95 88q-88 0 -140 -131z" />
    <glyph glyph-name="uni1EF8" unicode="&#x1ef8;" horiz-adv-x="1441" 
d="M791 303q0 -203 53 -256q12 -10 25 -18l23 -13q21 -11 21 -12q0 -8 -22 -8l-118 3h-137l-124 -3q-18 0 -18 8q0 3 22 14l21 11q13 8 22 18q55 55 55 256v260l-309 410l-119 144q-84 102 -127 140l-37 26q-24 15 -24 24q0 12 14 12l181 -8q38 0 121 4l104 4q16 0 16 -16
q0 -4 -10 -7l-20 -6q-54 -16 -54 -67q0 -72 123 -217l289 -349l282 326q36 43 61 77q73 100 73 154q0 32 -23 54l-21 15l-33 14q-7 4 -7 10q0 12 10 12l158 -6l174 6q10 -5 10 -14t-14 -21q-211 -169 -377 -379l-264 -321v-281zM1139 1669q-42 -215 -225 -215q-38 0 -79 14
q-30 11 -73 33l-8 4q-1 1 -5 3l-4 2l-16 8l-32 14q-34 14 -60 14q-88 0 -113 -92h-61q22 94 69 145q55 60 144 60q36 0 79 -14q30 -10 77 -31q48 -24 70 -33q37 -14 63 -14q87 0 114 102h60z" />
    <glyph glyph-name="uni1EF4" unicode="&#x1ef4;" horiz-adv-x="1441" 
d="M791 303q0 -203 53 -256q12 -10 25 -18l23 -13q21 -11 21 -12q0 -8 -22 -8l-118 3h-137l-124 -3q-18 0 -18 8q0 3 22 14l21 11q13 8 22 18q55 55 55 256v260l-309 410l-119 144q-84 102 -127 140l-37 26q-24 15 -24 24q0 12 14 12l181 -8q38 0 121 4l104 4q16 0 16 -16
q0 -4 -10 -7l-20 -6q-54 -16 -54 -67q0 -72 123 -217l289 -349l282 326q36 43 61 77q73 100 73 154q0 32 -23 54l-21 15l-33 14q-7 4 -7 10q0 12 10 12l158 -6l174 6q10 -5 10 -14t-14 -21q-211 -169 -377 -379l-264 -321v-281zM692 -180q98 0 98 -100q0 -98 -98 -98
q-100 0 -100 98q0 100 100 100z" />
    <glyph glyph-name="agrave" unicode="&#xe0;" horiz-adv-x="1251" 
d="M775 606q-94 0 -170 -10q-96 -14 -164 -44q-171 -77 -171 -259q0 -130 90 -204q84 -69 215 -69q208 0 291 155q35 64 49 158q12 77 12 183v90h-152zM1091 307q0 -111 15 -182q18 -86 57 -98q16 -7 16 -17q0 -14 -19 -14l-99 3q-7 0 -20 -1l-36 -2q-25 0 -25 16
q0 28 -15 94l-12 52q-6 28 -8 47h-4q-63 -126 -178 -184q-103 -52 -254 -52q-167 0 -292 80q-144 93 -144 248q0 110 77 188q65 68 185 110q99 34 230 50q100 12 206 12h156q0 194 -66 284q-77 103 -262 103q-127 0 -243 -59q-137 -69 -150 -180q0 -8 -10 -8q-6 0 -8 6
l-56 194q115 50 241 76q114 23 220 23q266 0 389 -111q109 -98 109 -289v-389zM390 1389q-71 53 -71 88q0 69 65 69q45 0 92 -51l304 -301h-86z" />
    <glyph glyph-name="aacute" unicode="&#xe1;" horiz-adv-x="1251" 
d="M775 606q-94 0 -170 -10q-96 -14 -164 -44q-171 -77 -171 -259q0 -130 90 -204q84 -69 215 -69q208 0 291 155q35 64 49 158q12 77 12 183v90h-152zM1091 307q0 -111 15 -182q18 -86 57 -98q16 -7 16 -17q0 -14 -19 -14l-99 3q-7 0 -20 -1l-36 -2q-25 0 -25 16
q0 28 -15 94l-12 52q-6 28 -8 47h-4q-63 -126 -178 -184q-103 -52 -254 -52q-167 0 -292 80q-144 93 -144 248q0 110 77 188q65 68 185 110q99 34 230 50q100 12 206 12h156q0 194 -66 284q-77 103 -262 103q-127 0 -243 -59q-137 -69 -150 -180q0 -8 -10 -8q-6 0 -8 6
l-56 194q115 50 241 76q114 23 220 23q266 0 389 -111q109 -98 109 -289v-389zM470 1194l303 301q48 51 93 51q65 0 65 -69q0 -35 -72 -88l-303 -195h-86z" />
    <glyph glyph-name="uni1EA3" unicode="&#x1ea3;" horiz-adv-x="1251" 
d="M775 606q-94 0 -170 -10q-96 -14 -164 -44q-171 -77 -171 -259q0 -130 90 -204q84 -69 215 -69q208 0 291 155q35 64 49 158q12 77 12 183v90h-152zM1091 307q0 -111 15 -182q18 -86 57 -98q16 -7 16 -17q0 -14 -19 -14l-99 3q-7 0 -20 -1l-36 -2q-25 0 -25 16
q0 28 -15 94l-12 52q-6 28 -8 47h-4q-63 -126 -178 -184q-103 -52 -254 -52q-167 0 -292 80q-144 93 -144 248q0 110 77 188q65 68 185 110q99 34 230 50q100 12 206 12h156q0 194 -66 284q-77 103 -262 103q-127 0 -243 -59q-137 -69 -150 -180q0 -8 -10 -8q-6 0 -8 6
l-56 194q115 50 241 76q114 23 220 23q266 0 389 -111q109 -98 109 -289v-389zM409 1576q89 35 168 35q84 0 141 -34q69 -42 69 -118q0 -39 -33 -76q-11 -13 -31 -29l-34 -27q-23 -18 -35 -29q-16 -14 -27 -28q-25 -31 -21 -78h-48q-3 49 17 90q8 15 21 35q7 10 22 31l24 32
q12 18 21 34q19 35 19 69q0 88 -96 88q-88 0 -140 -131z" />
    <glyph glyph-name="atilde" unicode="&#xe3;" horiz-adv-x="1251" 
d="M775 606q-94 0 -170 -10q-96 -14 -164 -44q-171 -77 -171 -259q0 -130 90 -204q84 -69 215 -69q208 0 291 155q35 64 49 158q12 77 12 183v90h-152zM1091 307q0 -111 15 -182q18 -86 57 -98q16 -7 16 -17q0 -14 -19 -14l-99 3q-7 0 -20 -1l-36 -2q-25 0 -25 16
q0 28 -15 94l-12 52q-6 28 -8 47h-4q-63 -126 -178 -184q-103 -52 -254 -52q-167 0 -292 80q-144 93 -144 248q0 110 77 188q65 68 185 110q99 34 230 50q100 12 206 12h156q0 194 -66 284q-77 103 -262 103q-127 0 -243 -59q-137 -69 -150 -180q0 -8 -10 -8q-6 0 -8 6
l-56 194q115 50 241 76q114 23 220 23q266 0 389 -111q109 -98 109 -289v-389zM964 1462q-42 -215 -225 -215q-38 0 -79 15q-30 10 -73 32l-8 5q-1 0 -5 2l-4 2l-16 8l-32 14q-34 14 -60 14q-88 0 -113 -92h-61q22 94 69 145q55 60 144 60q36 0 79 -14q30 -10 77 -31
q48 -24 70 -33q37 -14 63 -14q87 0 114 102h60z" />
    <glyph glyph-name="uni1EA1" unicode="&#x1ea1;" horiz-adv-x="1251" 
d="M775 606q-94 0 -170 -10q-96 -14 -164 -44q-171 -77 -171 -259q0 -130 90 -204q84 -69 215 -69q208 0 291 155q35 64 49 158q12 77 12 183v90h-152zM1091 307q0 -111 15 -182q18 -86 57 -98q16 -7 16 -17q0 -14 -19 -14l-99 3q-7 0 -20 -1l-36 -2q-25 0 -25 16
q0 28 -15 94l-12 52q-6 28 -8 47h-4q-63 -126 -178 -184q-103 -52 -254 -52q-167 0 -292 80q-144 93 -144 248q0 110 77 188q65 68 185 110q99 34 230 50q100 12 206 12h156q0 194 -66 284q-77 103 -262 103q-127 0 -243 -59q-137 -69 -150 -180q0 -8 -10 -8q-6 0 -8 6
l-56 194q115 50 241 76q114 23 220 23q266 0 389 -111q109 -98 109 -289v-389zM629 -180q99 0 99 -100q0 -98 -99 -98q-100 0 -100 98q0 100 100 100z" />
    <glyph glyph-name="acircumflex" unicode="&#xe2;" horiz-adv-x="1251" 
d="M775 606q-94 0 -170 -10q-96 -14 -164 -44q-171 -77 -171 -259q0 -130 90 -204q84 -69 215 -69q208 0 291 155q35 64 49 158q12 77 12 183v90h-152zM1091 307q0 -111 15 -182q18 -86 57 -98q16 -7 16 -17q0 -14 -19 -14l-99 3q-7 0 -20 -1l-36 -2q-25 0 -25 16
q0 28 -15 94l-12 52q-6 28 -8 47h-4q-63 -126 -178 -184q-103 -52 -254 -52q-167 0 -292 80q-144 93 -144 248q0 110 77 188q65 68 185 110q99 34 230 50q100 12 206 12h156q0 194 -66 284q-77 103 -262 103q-127 0 -243 -59q-137 -69 -150 -180q0 -8 -10 -8q-6 0 -8 6
l-56 194q115 50 241 76q114 23 220 23q266 0 389 -111q109 -98 109 -289v-389zM378 1194h-72l254 342h129l256 -342h-71l-248 211z" />
    <glyph glyph-name="uni1EA7" unicode="&#x1ea7;" horiz-adv-x="1251" 
d="M775 606q-94 0 -170 -10q-96 -14 -164 -44q-171 -77 -171 -259q0 -130 90 -204q84 -69 215 -69q208 0 291 155q35 64 49 158q12 77 12 183v90h-152zM1091 307q0 -111 15 -182q18 -86 57 -98q16 -7 16 -17q0 -14 -19 -14l-99 3q-7 0 -20 -1l-36 -2q-25 0 -25 16
q0 28 -15 94l-12 52q-6 28 -8 47h-4q-63 -126 -178 -184q-103 -52 -254 -52q-167 0 -292 80q-144 93 -144 248q0 110 77 188q65 68 185 110q99 34 230 50q100 12 206 12h156q0 194 -66 284q-77 103 -262 103q-127 0 -243 -59q-137 -69 -150 -180q0 -8 -10 -8q-6 0 -8 6
l-56 194q115 50 241 76q114 23 220 23q266 0 389 -111q109 -98 109 -289v-389zM640 1684q-71 53 -71 88q0 69 65 69q45 0 92 -51l304 -301h-86zM378 1194h-72l254 342h129l256 -342h-71l-248 211z" />
    <glyph glyph-name="uni1EA5" unicode="&#x1ea5;" horiz-adv-x="1251" 
d="M775 606q-94 0 -170 -10q-96 -14 -164 -44q-171 -77 -171 -259q0 -130 90 -204q84 -69 215 -69q208 0 291 155q35 64 49 158q12 77 12 183v90h-152zM1091 307q0 -111 15 -182q18 -86 57 -98q16 -7 16 -17q0 -14 -19 -14l-99 3q-7 0 -20 -1l-36 -2q-25 0 -25 16
q0 28 -15 94l-12 52q-6 28 -8 47h-4q-63 -126 -178 -184q-103 -52 -254 -52q-167 0 -292 80q-144 93 -144 248q0 110 77 188q65 68 185 110q99 34 230 50q100 12 206 12h156q0 194 -66 284q-77 103 -262 103q-127 0 -243 -59q-137 -69 -150 -180q0 -8 -10 -8q-6 0 -8 6
l-56 194q115 50 241 76q114 23 220 23q266 0 389 -111q109 -98 109 -289v-389zM800 1461l303 301q48 51 93 51q65 0 65 -69q0 -35 -72 -88l-303 -195h-86zM378 1194h-72l254 342h129l256 -342h-71l-248 211z" />
    <glyph glyph-name="uni1EA9" unicode="&#x1ea9;" horiz-adv-x="1251" 
d="M775 606q-94 0 -170 -10q-96 -14 -164 -44q-171 -77 -171 -259q0 -130 90 -204q84 -69 215 -69q208 0 291 155q35 64 49 158q12 77 12 183v90h-152zM1091 307q0 -111 15 -182q18 -86 57 -98q16 -7 16 -17q0 -14 -19 -14l-99 3q-7 0 -20 -1l-36 -2q-25 0 -25 16
q0 28 -15 94l-12 52q-6 28 -8 47h-4q-63 -126 -178 -184q-103 -52 -254 -52q-167 0 -292 80q-144 93 -144 248q0 110 77 188q65 68 185 110q99 34 230 50q100 12 206 12h156q0 194 -66 284q-77 103 -262 103q-127 0 -243 -59q-137 -69 -150 -180q0 -8 -10 -8q-6 0 -8 6
l-56 194q115 50 241 76q114 23 220 23q266 0 389 -111q109 -98 109 -289v-389zM704 1798q89 35 168 35q84 0 141 -34q69 -42 69 -118q0 -39 -33 -76q-11 -13 -31 -29l-34 -27q-23 -18 -35 -29q-16 -14 -27 -28q-25 -31 -21 -78h-48q-3 49 17 90q8 15 21 35q7 10 22 31l24 32
q12 18 21 34q19 35 19 69q0 88 -96 88q-88 0 -140 -131zM378 1194h-72l254 342h129l256 -342h-71l-248 211z" />
    <glyph glyph-name="uni1EAB" unicode="&#x1eab;" horiz-adv-x="1251" 
d="M775 606q-94 0 -170 -10q-96 -14 -164 -44q-171 -77 -171 -259q0 -130 90 -204q84 -69 215 -69q208 0 291 155q35 64 49 158q12 77 12 183v90h-152zM1091 307q0 -111 15 -182q18 -86 57 -98q16 -7 16 -17q0 -14 -19 -14l-99 3q-7 0 -20 -1l-36 -2q-25 0 -25 16
q0 28 -15 94l-12 52q-6 28 -8 47h-4q-63 -126 -178 -184q-103 -52 -254 -52q-167 0 -292 80q-144 93 -144 248q0 110 77 188q65 68 185 110q99 34 230 50q100 12 206 12h156q0 194 -66 284q-77 103 -262 103q-127 0 -243 -59q-137 -69 -150 -180q0 -8 -10 -8q-6 0 -8 6
l-56 194q115 50 241 76q114 23 220 23q266 0 389 -111q109 -98 109 -289v-389zM1026 1819q-42 -215 -225 -215q-38 0 -79 15q-30 10 -73 32l-8 5q-1 0 -5 2l-4 2l-16 8l-32 14q-34 14 -60 14q-88 0 -113 -92h-61q22 94 69 145q55 60 144 60q36 0 79 -14q30 -10 77 -31
q48 -24 70 -33q37 -14 63 -14q87 0 114 102h60zM378 1194h-72l254 342h129l256 -342h-71l-248 211z" />
    <glyph glyph-name="uni1EAD" unicode="&#x1ead;" horiz-adv-x="1251" 
d="M775 606q-94 0 -170 -10q-96 -14 -164 -44q-171 -77 -171 -259q0 -130 90 -204q84 -69 215 -69q208 0 291 155q35 64 49 158q12 77 12 183v90h-152zM1091 307q0 -111 15 -182q18 -86 57 -98q16 -7 16 -17q0 -14 -19 -14l-99 3q-7 0 -20 -1l-36 -2q-25 0 -25 16
q0 28 -15 94l-12 52q-6 28 -8 47h-4q-63 -126 -178 -184q-103 -52 -254 -52q-167 0 -292 80q-144 93 -144 248q0 110 77 188q65 68 185 110q99 34 230 50q100 12 206 12h156q0 194 -66 284q-77 103 -262 103q-127 0 -243 -59q-137 -69 -150 -180q0 -8 -10 -8q-6 0 -8 6
l-56 194q115 50 241 76q114 23 220 23q266 0 389 -111q109 -98 109 -289v-389zM629 -180q99 0 99 -100q0 -98 -99 -98q-100 0 -100 98q0 100 100 100zM378 1194h-72l254 342h129l256 -342h-71l-248 211z" />
    <glyph glyph-name="abreve" unicode="&#x103;" horiz-adv-x="1251" 
d="M775 606q-94 0 -170 -10q-96 -14 -164 -44q-171 -77 -171 -259q0 -130 90 -204q84 -69 215 -69q208 0 291 155q35 64 49 158q12 77 12 183v90h-152zM1091 307q0 -111 15 -182q18 -86 57 -98q16 -7 16 -17q0 -14 -19 -14l-99 3q-7 0 -20 -1l-36 -2q-25 0 -25 16
q0 28 -15 94l-12 52q-6 28 -8 47h-4q-63 -126 -178 -184q-103 -52 -254 -52q-167 0 -292 80q-144 93 -144 248q0 110 77 188q65 68 185 110q99 34 230 50q100 12 206 12h156q0 194 -66 284q-77 103 -262 103q-127 0 -243 -59q-137 -69 -150 -180q0 -8 -10 -8q-6 0 -8 6
l-56 194q115 50 241 76q114 23 220 23q266 0 389 -111q109 -98 109 -289v-389zM384 1463q48 -137 227 -137q178 0 226 137h73q-12 -92 -74 -160q-84 -92 -225 -92q-142 0 -225 92q-63 68 -75 160h73z" />
    <glyph glyph-name="uni1EB1" unicode="&#x1eb1;" horiz-adv-x="1251" 
d="M775 606q-94 0 -170 -10q-96 -14 -164 -44q-171 -77 -171 -259q0 -130 90 -204q84 -69 215 -69q208 0 291 155q35 64 49 158q12 77 12 183v90h-152zM1091 307q0 -111 15 -182q18 -86 57 -98q16 -7 16 -17q0 -14 -19 -14l-99 3q-7 0 -20 -1l-36 -2q-25 0 -25 16
q0 28 -15 94l-12 52q-6 28 -8 47h-4q-63 -126 -178 -184q-103 -52 -254 -52q-167 0 -292 80q-144 93 -144 248q0 110 77 188q65 68 185 110q99 34 230 50q100 12 206 12h156q0 194 -66 284q-77 103 -262 103q-127 0 -243 -59q-137 -69 -150 -180q0 -8 -10 -8q-6 0 -8 6
l-56 194q115 50 241 76q114 23 220 23q266 0 389 -111q109 -98 109 -289v-389zM381 1684q-71 53 -71 88q0 69 65 69q45 0 92 -51l304 -301h-86zM384 1463q48 -137 227 -137q178 0 226 137h73q-12 -92 -74 -160q-84 -92 -225 -92q-142 0 -225 92q-63 68 -75 160h73z" />
    <glyph glyph-name="uni1EAF" unicode="&#x1eaf;" horiz-adv-x="1251" 
d="M775 606q-94 0 -170 -10q-96 -14 -164 -44q-171 -77 -171 -259q0 -130 90 -204q84 -69 215 -69q208 0 291 155q35 64 49 158q12 77 12 183v90h-152zM1091 307q0 -111 15 -182q18 -86 57 -98q16 -7 16 -17q0 -14 -19 -14l-99 3q-7 0 -20 -1l-36 -2q-25 0 -25 16
q0 28 -15 94l-12 52q-6 28 -8 47h-4q-63 -126 -178 -184q-103 -52 -254 -52q-167 0 -292 80q-144 93 -144 248q0 110 77 188q65 68 185 110q99 34 230 50q100 12 206 12h156q0 194 -66 284q-77 103 -262 103q-127 0 -243 -59q-137 -69 -150 -180q0 -8 -10 -8q-6 0 -8 6
l-56 194q115 50 241 76q114 23 220 23q266 0 389 -111q109 -98 109 -289v-389zM505 1461l303 301q48 51 93 51q65 0 65 -69q0 -35 -72 -88l-303 -195h-86zM384 1463q48 -137 227 -137q178 0 226 137h73q-12 -92 -74 -160q-84 -92 -225 -92q-142 0 -225 92q-63 68 -75 160h73
z" />
    <glyph glyph-name="uni1EB3" unicode="&#x1eb3;" horiz-adv-x="1251" 
d="M775 606q-94 0 -170 -10q-96 -14 -164 -44q-171 -77 -171 -259q0 -130 90 -204q84 -69 215 -69q208 0 291 155q35 64 49 158q12 77 12 183v90h-152zM1091 307q0 -111 15 -182q18 -86 57 -98q16 -7 16 -17q0 -14 -19 -14l-99 3q-7 0 -20 -1l-36 -2q-25 0 -25 16
q0 28 -15 94l-12 52q-6 28 -8 47h-4q-63 -126 -178 -184q-103 -52 -254 -52q-167 0 -292 80q-144 93 -144 248q0 110 77 188q65 68 185 110q99 34 230 50q100 12 206 12h156q0 194 -66 284q-77 103 -262 103q-127 0 -243 -59q-137 -69 -150 -180q0 -8 -10 -8q-6 0 -8 6
l-56 194q115 50 241 76q114 23 220 23q266 0 389 -111q109 -98 109 -289v-389zM441 1798q89 35 168 35q84 0 141 -34q69 -42 69 -118q0 -39 -33 -76q-11 -13 -31 -29l-34 -27q-23 -18 -35 -29q-16 -14 -27 -28q-25 -31 -21 -78h-48q-3 49 17 90q8 15 21 35q7 10 22 31l24 32
q12 18 21 34q19 35 19 69q0 88 -96 88q-88 0 -140 -131zM384 1463q48 -137 227 -137q178 0 226 137h73q-12 -92 -74 -160q-84 -92 -225 -92q-142 0 -225 92q-63 68 -75 160h73z" />
    <glyph glyph-name="uni1EB5" unicode="&#x1eb5;" horiz-adv-x="1251" 
d="M775 606q-94 0 -170 -10q-96 -14 -164 -44q-171 -77 -171 -259q0 -130 90 -204q84 -69 215 -69q208 0 291 155q35 64 49 158q12 77 12 183v90h-152zM1091 307q0 -111 15 -182q18 -86 57 -98q16 -7 16 -17q0 -14 -19 -14l-99 3q-7 0 -20 -1l-36 -2q-25 0 -25 16
q0 28 -15 94l-12 52q-6 28 -8 47h-4q-63 -126 -178 -184q-103 -52 -254 -52q-167 0 -292 80q-144 93 -144 248q0 110 77 188q65 68 185 110q99 34 230 50q100 12 206 12h156q0 194 -66 284q-77 103 -262 103q-127 0 -243 -59q-137 -69 -150 -180q0 -8 -10 -8q-6 0 -8 6
l-56 194q115 50 241 76q114 23 220 23q266 0 389 -111q109 -98 109 -289v-389zM1017 1765q-42 -215 -225 -215q-38 0 -79 15q-30 10 -73 32l-8 5q-1 0 -5 2l-4 2l-16 8l-32 14q-34 14 -60 14q-88 0 -113 -92h-61q22 94 69 145q55 60 144 60q36 0 79 -14q30 -10 77 -31
q48 -24 70 -33q37 -14 63 -14q87 0 114 102h60zM384 1463q48 -137 227 -137q178 0 226 137h73q-12 -92 -74 -160q-84 -92 -225 -92q-142 0 -225 92q-63 68 -75 160h73z" />
    <glyph glyph-name="uni1EB7" unicode="&#x1eb7;" horiz-adv-x="1251" 
d="M775 606q-94 0 -170 -10q-96 -14 -164 -44q-171 -77 -171 -259q0 -130 90 -204q84 -69 215 -69q208 0 291 155q35 64 49 158q12 77 12 183v90h-152zM1091 307q0 -111 15 -182q18 -86 57 -98q16 -7 16 -17q0 -14 -19 -14l-99 3q-7 0 -20 -1l-36 -2q-25 0 -25 16
q0 28 -15 94l-12 52q-6 28 -8 47h-4q-63 -126 -178 -184q-103 -52 -254 -52q-167 0 -292 80q-144 93 -144 248q0 110 77 188q65 68 185 110q99 34 230 50q100 12 206 12h156q0 194 -66 284q-77 103 -262 103q-127 0 -243 -59q-137 -69 -150 -180q0 -8 -10 -8q-6 0 -8 6
l-56 194q115 50 241 76q114 23 220 23q266 0 389 -111q109 -98 109 -289v-389zM629 -180q99 0 99 -100q0 -98 -99 -98q-100 0 -100 98q0 100 100 100zM384 1463q48 -137 227 -137q178 0 226 137h73q-12 -92 -74 -160q-84 -92 -225 -92q-142 0 -225 92q-63 68 -75 160h73z
" />
    <glyph glyph-name="egrave" unicode="&#xe8;" horiz-adv-x="1290" 
d="M284 676q-3 -13 -5 -24l-4 -26q-3 -28 -3 -51q0 -246 96 -386q112 -160 340 -160q107 0 202 47q79 40 144 110q52 55 88 122q29 53 35 85q2 11 8 19q7 10 18 10q17 0 17 -19q0 -23 -10 -51q-56 -179 -217 -282q-156 -101 -365 -101q-235 0 -396 172q-157 169 -157 406
q0 214 154 375q167 174 424 174q212 0 364 -107q165 -115 182 -313h-915zM1003 727q0 146 -97 233q-93 84 -241 84q-305 0 -377 -317h715zM435 1389q-71 53 -71 88q0 69 65 69q45 0 92 -51l304 -301h-86z" />
    <glyph glyph-name="eacute" unicode="&#xe9;" horiz-adv-x="1290" 
d="M284 676q-3 -13 -5 -24l-4 -26q-3 -28 -3 -51q0 -246 96 -386q112 -160 340 -160q107 0 202 47q79 40 144 110q52 55 88 122q29 53 35 85q2 11 8 19q7 10 18 10q17 0 17 -19q0 -23 -10 -51q-56 -179 -217 -282q-156 -101 -365 -101q-235 0 -396 172q-157 169 -157 406
q0 214 154 375q167 174 424 174q212 0 364 -107q165 -115 182 -313h-915zM1003 727q0 146 -97 233q-93 84 -241 84q-305 0 -377 -317h715zM515 1194l303 301q48 51 93 51q65 0 65 -69q0 -35 -72 -88l-303 -195h-86z" />
    <glyph glyph-name="uni1EBB" unicode="&#x1ebb;" horiz-adv-x="1290" 
d="M284 676q-3 -13 -5 -24l-4 -26q-3 -28 -3 -51q0 -246 96 -386q112 -160 340 -160q107 0 202 47q79 40 144 110q52 55 88 122q29 53 35 85q2 11 8 19q7 10 18 10q17 0 17 -19q0 -23 -10 -51q-56 -179 -217 -282q-156 -101 -365 -101q-235 0 -396 172q-157 169 -157 406
q0 214 154 375q167 174 424 174q212 0 364 -107q165 -115 182 -313h-915zM1003 727q0 146 -97 233q-93 84 -241 84q-305 0 -377 -317h715zM480 1576q89 35 168 35q84 0 141 -34q69 -42 69 -118q0 -39 -33 -76q-12 -13 -31 -29l-34 -27q-23 -18 -35 -29q-16 -14 -27 -28
q-25 -31 -21 -78h-48q-3 49 17 90q8 15 21 35q7 10 22 31l24 32q12 18 21 34q19 35 19 69q0 88 -96 88q-88 0 -140 -131z" />
    <glyph glyph-name="uni1EBD" unicode="&#x1ebd;" horiz-adv-x="1290" 
d="M284 676q-3 -13 -5 -24l-4 -26q-3 -28 -3 -51q0 -246 96 -386q112 -160 340 -160q107 0 202 47q79 40 144 110q52 55 88 122q29 53 35 85q2 11 8 19q7 10 18 10q17 0 17 -19q0 -23 -10 -51q-56 -179 -217 -282q-156 -101 -365 -101q-235 0 -396 172q-157 169 -157 406
q0 214 154 375q167 174 424 174q212 0 364 -107q165 -115 182 -313h-915zM1003 727q0 146 -97 233q-93 84 -241 84q-305 0 -377 -317h715zM1044 1462q-42 -215 -225 -215q-38 0 -79 15q-30 10 -73 32l-8 5q-1 0 -5 2l-4 2l-16 8l-32 14q-34 14 -60 14q-88 0 -113 -92h-61
q22 94 69 145q55 60 144 60q36 0 79 -14q30 -10 77 -31q48 -24 70 -33q37 -14 63 -14q87 0 114 102h60z" />
    <glyph glyph-name="uni1EB9" unicode="&#x1eb9;" horiz-adv-x="1290" 
d="M284 676q-3 -13 -5 -24l-4 -26q-3 -28 -3 -51q0 -246 96 -386q112 -160 340 -160q107 0 202 47q79 40 144 110q52 55 88 122q29 53 35 85q2 11 8 19q7 10 18 10q17 0 17 -19q0 -23 -10 -51q-56 -179 -217 -282q-156 -101 -365 -101q-235 0 -396 172q-157 169 -157 406
q0 214 154 375q167 174 424 174q212 0 364 -107q165 -115 182 -313h-915zM1003 727q0 146 -97 233q-93 84 -241 84q-305 0 -377 -317h715zM656 -180q99 0 99 -100q0 -98 -99 -98q-100 0 -100 98q0 100 100 100z" />
    <glyph glyph-name="ecircumflex" unicode="&#xea;" horiz-adv-x="1290" 
d="M284 676q-3 -13 -5 -24l-4 -26q-3 -28 -3 -51q0 -246 96 -386q112 -160 340 -160q107 0 202 47q79 40 144 110q52 55 88 122q29 53 35 85q2 11 8 19q7 10 18 10q17 0 17 -19q0 -23 -10 -51q-56 -179 -217 -282q-156 -101 -365 -101q-235 0 -396 172q-157 169 -157 406
q0 214 154 375q167 174 424 174q212 0 364 -107q165 -115 182 -313h-915zM1003 727q0 146 -97 233q-93 84 -241 84q-305 0 -377 -317h715zM423 1194h-72l254 342h129l256 -342h-71l-248 211z" />
    <glyph glyph-name="uni1EC1" unicode="&#x1ec1;" horiz-adv-x="1290" 
d="M284 676q-3 -13 -5 -24l-4 -26q-3 -28 -3 -51q0 -246 96 -386q112 -160 340 -160q107 0 202 47q79 40 144 110q52 55 88 122q29 53 35 85q2 11 8 19q7 10 18 10q17 0 17 -19q0 -23 -10 -51q-56 -179 -217 -282q-156 -101 -365 -101q-235 0 -396 172q-157 169 -157 406
q0 214 154 375q167 174 424 174q212 0 364 -107q165 -115 182 -313h-915zM1003 727q0 146 -97 233q-93 84 -241 84q-305 0 -377 -317h715zM586 1684q-71 53 -71 88q0 69 65 69q45 0 92 -51l304 -301h-86zM424 1194h-72l254 342h129l256 -342h-71l-248 211z" />
    <glyph glyph-name="uni1EBF" unicode="&#x1ebf;" horiz-adv-x="1290" 
d="M284 676q-3 -13 -5 -24l-4 -26q-3 -28 -3 -51q0 -246 96 -386q112 -160 340 -160q107 0 202 47q79 40 144 110q52 55 88 122q29 53 35 85q2 11 8 19q7 10 18 10q17 0 17 -19q0 -23 -10 -51q-56 -179 -217 -282q-156 -101 -365 -101q-235 0 -396 172q-157 169 -157 406
q0 214 154 375q167 174 424 174q212 0 364 -107q165 -115 182 -313h-915zM1003 727q0 146 -97 233q-93 84 -241 84q-305 0 -377 -317h715zM845 1461l303 301q48 51 93 51q65 0 65 -69q0 -35 -72 -88l-303 -195h-86zM424 1194h-72l254 342h129l256 -342h-71l-248 211z" />
    <glyph glyph-name="uni1EC3" unicode="&#x1ec3;" horiz-adv-x="1290" 
d="M284 676q-3 -13 -5 -24l-4 -26q-3 -28 -3 -51q0 -246 96 -386q112 -160 340 -160q107 0 202 47q79 40 144 110q52 55 88 122q29 53 35 85q2 11 8 19q7 10 18 10q17 0 17 -19q0 -23 -10 -51q-56 -179 -217 -282q-156 -101 -365 -101q-235 0 -396 172q-157 169 -157 406
q0 214 154 375q167 174 424 174q212 0 364 -107q165 -115 182 -313h-915zM1003 727q0 146 -97 233q-93 84 -241 84q-305 0 -377 -317h715zM730 1808q89 35 168 35q84 0 141 -34q69 -42 69 -118q0 -39 -33 -76q-12 -13 -31 -29l-34 -27q-23 -18 -35 -29q-16 -14 -27 -28
q-25 -31 -21 -78h-48q-3 49 17 90q8 15 21 35q7 10 22 31l24 32q12 18 21 34q19 35 19 69q0 88 -96 88q-88 0 -140 -131zM424 1194h-72l254 342h129l256 -342h-71l-248 211z" />
    <glyph glyph-name="uni1EC5" unicode="&#x1ec5;" horiz-adv-x="1290" 
d="M284 676q-3 -13 -5 -24l-4 -26q-3 -28 -3 -51q0 -246 96 -386q112 -160 340 -160q107 0 202 47q79 40 144 110q52 55 88 122q29 53 35 85q2 11 8 19q7 10 18 10q17 0 17 -19q0 -23 -10 -51q-56 -179 -217 -282q-156 -101 -365 -101q-235 0 -396 172q-157 169 -157 406
q0 214 154 375q167 174 424 174q212 0 364 -107q165 -115 182 -313h-915zM1003 727q0 146 -97 233q-93 84 -241 84q-305 0 -377 -317h715zM1105 1795q-42 -215 -225 -215q-38 0 -79 15q-30 10 -73 32l-8 5q-1 0 -5 2l-4 2l-16 8l-32 14q-34 14 -60 14q-88 0 -113 -92h-61
q22 94 69 145q55 60 144 60q36 0 79 -14q30 -10 77 -31q48 -24 70 -33q37 -14 63 -14q87 0 114 102h60zM424 1194h-72l254 342h129l256 -342h-71l-248 211z" />
    <glyph glyph-name="uni1EC7" unicode="&#x1ec7;" horiz-adv-x="1290" 
d="M284 676q-3 -13 -5 -24l-4 -26q-3 -28 -3 -51q0 -246 96 -386q112 -160 340 -160q107 0 202 47q79 40 144 110q52 55 88 122q29 53 35 85q2 11 8 19q7 10 18 10q17 0 17 -19q0 -23 -10 -51q-56 -179 -217 -282q-156 -101 -365 -101q-235 0 -396 172q-157 169 -157 406
q0 214 154 375q167 174 424 174q212 0 364 -107q165 -115 182 -313h-915zM1003 727q0 146 -97 233q-93 84 -241 84q-305 0 -377 -317h715zM656 -180q99 0 99 -100q0 -98 -99 -98q-100 0 -100 98q0 100 100 100zM424 1194h-72l254 342h129l256 -342h-71l-248 211z" />
    <glyph glyph-name="igrave" unicode="&#xec;" horiz-adv-x="530" 
d="M349 365q0 -319 86 -345l13 -2q6 -2 10 -3q9 -4 9 -11q0 -4 -8 -6q-7 -2 -16 -2l-123 3l-217 -3q-16 0 -16 8q0 11 34 25q76 35 76 290v599q0 26 -21 41q-8 5 -22 12l-12 6q-7 3 -12 6q-19 7 -19 12q0 7 14 11l224 59v-700zM7 1389q-72 53 -72 88q0 69 66 69q44 0 92 -51
l303 -301h-86z" />
    <glyph glyph-name="iacute" unicode="&#xed;" horiz-adv-x="530" 
d="M348 365q0 -319 86 -345l13 -2q7 -2 10 -3q10 -4 10 -11q0 -4 -9 -6q-6 -2 -16 -2l-123 3l-217 -3q-16 0 -16 8q0 11 35 25q76 35 76 290v599q0 26 -22 41q-7 5 -22 12l-12 6q-7 3 -12 6q-18 7 -18 12q0 7 14 11l223 59v-700zM86 1194l303 301q48 51 92 51q66 0 66 -69
q0 -35 -72 -88l-303 -195h-86z" />
    <glyph glyph-name="uni1EC9" unicode="&#x1ec9;" horiz-adv-x="530" 
d="M348 365q0 -319 86 -345l13 -2q7 -2 11 -3q9 -4 9 -11q0 -4 -8 -6q-7 -2 -16 -2l-124 3l-216 -3q-17 0 -17 8q0 11 35 25q76 35 76 290v599q0 26 -22 41q-7 5 -21 12l-13 6q-7 3 -12 6q-18 7 -18 12q0 7 14 11l223 59v-700zM79 1576q89 35 168 35q84 0 141 -34
q69 -42 69 -118q0 -39 -33 -76q-11 -13 -31 -29l-34 -27q-23 -18 -35 -29q-15 -14 -27 -28q-24 -31 -21 -78h-47q-4 49 16 90q8 15 21 35q7 10 22 31l24 32q13 18 21 34q19 35 19 69q0 88 -96 88q-88 0 -140 -131z" />
    <glyph glyph-name="itilde" unicode="&#x129;" horiz-adv-x="530" 
d="M348 365q0 -319 86 -345l13 -2q7 -2 10 -3q10 -4 10 -11q0 -4 -9 -6q-6 -2 -16 -2l-123 3l-217 -3q-16 0 -16 8q0 11 35 25q76 35 76 290v599q0 26 -22 41q-7 5 -22 12l-12 6q-7 3 -12 6q-18 7 -18 12q0 7 14 11l223 59v-700zM607 1409q-42 -215 -225 -215q-38 0 -79 15
q-30 10 -73 32l-8 5q-1 0 -5 2l-4 2l-16 8l-32 14q-34 14 -60 14q-88 0 -113 -92h-61q22 94 69 145q55 60 144 60q36 0 79 -14q30 -10 77 -31q48 -24 70 -33q37 -14 63 -14q87 0 114 102h60z" />
    <glyph glyph-name="uni1ECB" unicode="&#x1ecb;" horiz-adv-x="530" 
d="M348 365q0 -319 86 -345l13 -2q7 -2 10 -3q10 -4 10 -11q0 -4 -9 -6q-6 -2 -16 -2l-123 3l-217 -3q-16 0 -16 8q0 11 35 25q76 35 76 290v599q0 26 -22 41q-7 5 -22 12l-12 6q-7 3 -12 6q-18 7 -18 12q0 7 14 11l223 59v-700zM369 1315q0 -98 -97 -98q-96 0 -96 98t96 98
q97 0 97 -98zM273 -180q99 0 99 -100q0 -98 -99 -98q-100 0 -100 98q0 100 100 100z" />
    <glyph glyph-name="ograve" unicode="&#xf2;" horiz-adv-x="1366" 
d="M362 172q105 -152 319 -152t319 152q92 132 91 360q1 229 -91 361q-105 151 -319 151t-319 -151q-92 -132 -90 -361q-2 -228 90 -360zM262 941q178 155 419 155q242 0 419 -155q187 -164 187 -409q0 -244 -187 -408q-177 -155 -419 -155q-241 0 -419 155
q-187 164 -187 408q0 245 187 409zM448 1389q-72 53 -72 88q0 69 66 69q44 0 92 -51l303 -301h-86z" />
    <glyph glyph-name="oacute" unicode="&#xf3;" horiz-adv-x="1366" 
d="M362 172q105 -152 319 -152t319 152q92 132 91 360q1 229 -91 361q-105 151 -319 151t-319 -151q-92 -132 -90 -361q-2 -228 90 -360zM262 941q178 155 419 155q242 0 419 -155q187 -164 187 -409q0 -244 -187 -408q-177 -155 -419 -155q-241 0 -419 155
q-187 164 -187 408q0 245 187 409zM528 1194l303 301q47 51 92 51q65 0 65 -69q0 -35 -71 -88l-303 -195h-86z" />
    <glyph glyph-name="uni1ECF" unicode="&#x1ecf;" horiz-adv-x="1366" 
d="M362 172q105 -152 319 -152t319 152q92 132 91 360q1 229 -91 361q-105 151 -319 151t-319 -151q-92 -132 -90 -361q-2 -228 90 -360zM262 941q178 155 419 155q242 0 419 -155q187 -164 187 -409q0 -244 -187 -408q-177 -155 -419 -155q-241 0 -419 155
q-187 164 -187 408q0 245 187 409zM480 1576q89 35 168 35q84 0 141 -34q69 -42 69 -118q0 -39 -33 -76q-12 -13 -31 -29l-34 -27q-23 -18 -35 -29q-16 -14 -27 -28q-25 -31 -21 -78h-48q-3 49 17 90q8 15 21 35q7 10 22 31l24 32q12 18 21 34q19 35 19 69q0 88 -96 88
q-88 0 -140 -131z" />
    <glyph glyph-name="otilde" unicode="&#xf5;" horiz-adv-x="1366" 
d="M362 172q105 -152 319 -152t319 152q92 132 91 360q1 229 -91 361q-105 151 -319 151t-319 -151q-92 -132 -90 -361q-2 -228 90 -360zM262 941q178 155 419 155q242 0 419 -155q187 -164 187 -409q0 -244 -187 -408q-177 -155 -419 -155q-241 0 -419 155
q-187 164 -187 408q0 245 187 409zM1021 1462q-42 -215 -225 -215q-38 0 -79 15q-29 10 -73 32l-8 5q-1 0 -4 2q-3 1 -4 2q-10 5 -17 8l-31 14q-35 14 -61 14q-87 0 -112 -92h-62q22 94 69 145q55 60 144 60q36 0 80 -14q29 -10 76 -31q48 -24 70 -33q37 -14 63 -14
q87 0 115 102h59z" />
    <glyph glyph-name="uni1ECD" unicode="&#x1ecd;" horiz-adv-x="1366" 
d="M362 172q105 -152 319 -152t319 152q92 132 91 360q1 229 -91 361q-105 151 -319 151t-319 -151q-92 -132 -90 -361q-2 -228 90 -360zM262 941q178 155 419 155q242 0 419 -155q187 -164 187 -409q0 -244 -187 -408q-177 -155 -419 -155q-241 0 -419 155
q-187 164 -187 408q0 245 187 409zM682 -180q99 0 99 -100q0 -98 -99 -98q-100 0 -100 98q0 100 100 100z" />
    <glyph glyph-name="ocircumflex" unicode="&#xf4;" horiz-adv-x="1366" 
d="M362 172q105 -152 319 -152t319 152q92 132 91 360q1 229 -91 361q-105 151 -319 151t-319 -151q-92 -132 -90 -361q-2 -228 90 -360zM262 941q178 155 419 155q242 0 419 -155q187 -164 187 -409q0 -244 -187 -408q-177 -155 -419 -155q-241 0 -419 155
q-187 164 -187 408q0 245 187 409zM435 1194h-71l254 342h129l256 -342h-72l-248 211z" />
    <glyph glyph-name="uni1ED3" unicode="&#x1ed3;" horiz-adv-x="1366" 
d="M362 172q105 -152 319 -152t319 152q92 132 91 360q1 229 -91 361q-105 151 -319 151t-319 -151q-92 -132 -90 -361q-2 -228 90 -360zM262 941q178 155 419 155q242 0 419 -155q187 -164 187 -409q0 -244 -187 -408q-177 -155 -419 -155q-241 0 -419 155
q-187 164 -187 408q0 245 187 409zM625 1684q-72 53 -72 88q0 69 66 69q44 0 92 -51l303 -301h-86zM435 1194h-71l254 342h129l256 -342h-72l-248 211z" />
    <glyph glyph-name="uni1ED1" unicode="&#x1ed1;" horiz-adv-x="1366" 
d="M362 172q105 -152 319 -152t319 152q92 132 91 360q1 229 -91 361q-105 151 -319 151t-319 -151q-92 -132 -90 -361q-2 -228 90 -360zM262 941q178 155 419 155q242 0 419 -155q187 -164 187 -409q0 -244 -187 -408q-177 -155 -419 -155q-241 0 -419 155
q-187 164 -187 408q0 245 187 409zM867 1461l303 301q47 51 92 51q65 0 65 -69q0 -35 -71 -88l-303 -195h-86zM435 1194h-71l254 342h129l256 -342h-72l-248 211z" />
    <glyph glyph-name="uni1ED5" unicode="&#x1ed5;" horiz-adv-x="1366" 
d="M362 172q105 -152 319 -152t319 152q92 132 91 360q1 229 -91 361q-105 151 -319 151t-319 -151q-92 -132 -90 -361q-2 -228 90 -360zM262 941q178 155 419 155q242 0 419 -155q187 -164 187 -409q0 -244 -187 -408q-177 -155 -419 -155q-241 0 -419 155
q-187 164 -187 408q0 245 187 409zM765 1799q89 35 168 35q84 0 141 -34q69 -42 69 -118q0 -39 -33 -76q-12 -13 -31 -29l-34 -27q-23 -18 -35 -29q-16 -14 -27 -28q-25 -31 -21 -78h-48q-3 49 17 90q8 15 21 35q7 10 22 31l24 32q12 18 21 34q19 35 19 69q0 88 -96 88
q-88 0 -140 -131zM436 1194h-71l253 342h130l256 -342h-72l-248 211z" />
    <glyph glyph-name="uni1ED7" unicode="&#x1ed7;" horiz-adv-x="1366" 
d="M362 172q105 -152 319 -152t319 152q92 132 91 360q1 229 -91 361q-105 151 -319 151t-319 -151q-92 -132 -90 -361q-2 -228 90 -360zM262 941q178 155 419 155q242 0 419 -155q187 -164 187 -409q0 -244 -187 -408q-177 -155 -419 -155q-241 0 -419 155
q-187 164 -187 408q0 245 187 409zM1092 1792q-42 -215 -225 -215q-38 0 -79 15q-29 10 -73 32l-8 5q-1 0 -4 2q-3 1 -4 2q-10 5 -17 8l-31 14q-35 14 -61 14q-87 0 -112 -92h-62q22 94 69 145q55 60 144 60q36 0 80 -14q29 -10 76 -31q48 -24 70 -33q37 -14 63 -14
q87 0 115 102h59zM435 1194h-71l254 342h129l256 -342h-72l-248 211z" />
    <glyph glyph-name="uni1ED9" unicode="&#x1ed9;" horiz-adv-x="1366" 
d="M362 172q105 -152 319 -152t319 152q92 132 91 360q1 229 -91 361q-105 151 -319 151t-319 -151q-92 -132 -90 -361q-2 -228 90 -360zM262 941q178 155 419 155q242 0 419 -155q187 -164 187 -409q0 -244 -187 -408q-177 -155 -419 -155q-241 0 -419 155
q-187 164 -187 408q0 245 187 409zM682 -180q99 0 99 -100q0 -98 -99 -98q-100 0 -100 98q0 100 100 100zM436 1194h-71l253 342h130l256 -342h-72l-248 211z" />
    <glyph glyph-name="glyph217" unicode="&#xf9;" horiz-adv-x="1327" 
d="M325 1065v-686q0 -156 73 -250q83 -109 249 -109q180 0 278 160q88 145 88 377v201q0 110 -14 153q-13 39 -51 58l-22 9q-11 5 -11 13q0 5 18 10l232 64v-686q0 -47 2 -88q3 -55 9 -101q17 -120 60 -157l10 -9l7 -7q6 -5 6 -9q0 -8 -33 -8h-149l-62 213
q-153 -244 -438 -244q-193 0 -306 107q-110 104 -110 276v463q0 140 -59 152q-37 9 -37 22q0 9 23 12zM430 1389q-72 53 -72 88q0 69 65 69q45 0 93 -51l303 -301h-86z" />
    <glyph glyph-name="glyph218" unicode="&#xfa;" horiz-adv-x="1327" 
d="M325 1065v-686q0 -156 73 -250q83 -109 249 -109q180 0 278 160q88 145 88 377v201q0 110 -14 153q-13 39 -51 58l-22 9q-11 5 -11 13q0 5 18 10l232 64v-686q0 -47 2 -88q3 -55 9 -101q17 -120 60 -157l10 -9l7 -7q6 -5 6 -9q0 -8 -33 -8h-149l-62 213
q-153 -244 -438 -244q-193 0 -306 107q-110 104 -110 276v463q0 140 -59 152q-37 9 -37 22q0 9 23 12zM509 1194l304 301q47 51 92 51q65 0 65 -69q0 -35 -71 -88l-304 -195h-86z" />
    <glyph glyph-name="uni1EE7" unicode="&#x1ee7;" horiz-adv-x="1327" 
d="M325 1065v-686q0 -156 73 -250q83 -109 249 -109q180 0 278 160q88 145 88 377v201q0 110 -14 153q-13 39 -51 58l-22 9q-11 5 -11 13q0 5 18 10l232 64v-686q0 -47 2 -88q3 -55 9 -101q17 -120 60 -157l10 -9l7 -7q6 -5 6 -9q0 -8 -33 -8h-149l-62 213
q-153 -244 -438 -244q-193 0 -306 107q-110 104 -110 276v463q0 140 -59 152q-37 9 -37 22q0 9 23 12zM480 1576q89 35 168 35q84 0 141 -34q69 -42 69 -118q0 -39 -33 -76q-12 -13 -31 -29l-34 -27q-23 -18 -35 -29q-16 -14 -27 -28q-25 -31 -21 -78h-48q-3 49 17 90
q8 15 21 35q7 10 22 31l24 32q12 18 21 34q19 35 19 69q0 88 -96 88q-88 0 -140 -131z" />
    <glyph glyph-name="utilde" unicode="&#x169;" horiz-adv-x="1327" 
d="M325 1065v-686q0 -156 73 -250q83 -109 249 -109q180 0 278 160q88 145 88 377v201q0 110 -14 153q-13 39 -51 58l-22 9q-11 5 -11 13q0 5 18 10l232 64v-686q0 -47 2 -88q3 -55 9 -101q17 -120 60 -157l10 -9l7 -7q6 -5 6 -9q0 -8 -33 -8h-149l-62 213
q-153 -244 -438 -244q-193 0 -306 107q-110 104 -110 276v463q0 140 -59 152q-37 9 -37 22q0 9 23 12zM1022 1462q-42 -215 -225 -215q-38 0 -79 15q-30 10 -73 32l-8 5q-1 0 -4 2q-3 1 -5 2l-16 8l-32 14q-34 14 -60 14q-88 0 -112 -92h-62q22 94 69 145q55 60 144 60
q36 0 79 -14q30 -10 77 -31q48 -24 70 -33q37 -14 63 -14q87 0 115 102h59z" />
    <glyph glyph-name="uni1EE5" unicode="&#x1ee5;" horiz-adv-x="1327" 
d="M325 1065v-686q0 -156 73 -250q83 -109 249 -109q180 0 278 160q88 145 88 377v201q0 110 -14 153q-13 39 -51 58l-22 9q-11 5 -11 13q0 5 18 10l232 64v-686q0 -47 2 -88q3 -55 9 -101q17 -120 60 -157l10 -9l7 -7q6 -5 6 -9q0 -8 -33 -8h-149l-62 213
q-153 -244 -438 -244q-193 0 -306 107q-110 104 -110 276v463q0 140 -59 152q-37 9 -37 22q0 9 23 12zM682 -180q99 0 99 -100q0 -98 -99 -98q-100 0 -100 98q0 100 100 100z" />
    <glyph glyph-name="uhorn" unicode="&#x1b0;" horiz-adv-x="1327" 
d="M325 1065v-686q0 -156 73 -250q83 -109 249 -109q180 0 278 160q88 145 88 377v201q0 110 -14 153q-13 39 -51 58l-22 9q-11 5 -11 13q0 5 18 10l232 64v-686q0 -47 2 -88q3 -55 9 -101q17 -120 60 -157l10 -9l7 -7q6 -5 6 -9q0 -8 -33 -8h-149l-62 213
q-153 -244 -438 -244q-193 0 -306 107q-110 104 -110 276v463q0 140 -59 152q-37 9 -37 22q0 9 23 12zM1269 1256q102 -30 61 -169q-24 -81 -116 -158q-85 -71 -120 -61q-9 3 -7 10q2 8 7 11q57 42 84 74q36 42 52 97q-111 29 -94 122q29 94 133 74z" />
    <glyph glyph-name="uni1EEB" unicode="&#x1eeb;" horiz-adv-x="1327" 
d="M429 1389q-72 53 -72 88q0 69 66 69q45 0 92 -51l303 -301h-86zM1164 892v-513q0 -47 2 -88q3 -55 10 -101q17 -120 60 -157l10 -9l7 -7q6 -5 6 -9q0 -8 -33 -8h-150l-61 213q-154 -244 -438 -244q-194 0 -307 107q-109 104 -109 276v463q0 140 -60 152q-36 9 -36 22
q0 9 22 12l238 64v-686q0 -156 72 -250q84 -109 249 -109q181 0 279 160q88 145 88 377v201q0 110 -15 153q-12 39 -51 58l-22 9q-11 5 -11 13q0 5 19 10l231 64v-116q7 7 13 14q36 42 52 97q-111 29 -94 122q29 94 133 74q102 -30 61 -169q-24 -81 -116 -158
q-27 -23 -49 -37z" />
    <glyph glyph-name="uni1EE9" unicode="&#x1ee9;" horiz-adv-x="1327" 
d="M509 1194l303 301q48 51 92 51q66 0 66 -69q0 -35 -72 -88l-303 -195h-86zM1164 892v-513q0 -47 2 -88q3 -55 10 -101q17 -120 60 -157l10 -9l7 -7q6 -5 6 -9q0 -8 -33 -8h-150l-61 213q-154 -244 -438 -244q-194 0 -307 107q-109 104 -109 276v463q0 140 -60 152
q-36 9 -36 22q0 9 22 12l238 64v-686q0 -156 72 -250q84 -109 249 -109q181 0 279 160q88 145 88 377v201q0 110 -15 153q-12 39 -51 58l-22 9q-11 5 -11 13q0 5 19 10l231 64v-116q7 7 13 14q36 42 52 97q-111 29 -94 122q29 94 133 74q102 -30 61 -169q-24 -81 -116 -158
q-27 -23 -49 -37z" />
    <glyph glyph-name="uni1EED" unicode="&#x1eed;" horiz-adv-x="1327" 
d="M480 1576q89 35 168 35q84 0 141 -34q69 -42 69 -118q0 -39 -33 -76q-12 -13 -31 -29l-34 -27q-23 -18 -35 -29q-16 -14 -27 -28q-25 -31 -21 -78h-48q-3 49 17 90q8 15 21 35q7 10 22 31l24 32q12 18 21 34q19 35 19 69q0 88 -96 88q-88 0 -140 -131zM1165 892v-513
q0 -47 2 -88q3 -55 9 -101q17 -120 60 -157l10 -9l7 -7q6 -5 6 -9q0 -8 -33 -8h-149l-62 213q-153 -244 -438 -244q-193 0 -306 107q-110 104 -110 276v463q0 140 -59 152q-37 9 -37 22q0 9 23 12l237 64v-686q0 -156 73 -250q83 -109 249 -109q180 0 278 160q88 145 88 377
v201q0 110 -14 153q-13 39 -51 58l-22 9q-11 5 -11 13q0 5 18 10l232 64v-116q7 7 13 14q36 42 52 97q-111 29 -94 122q29 94 133 74q102 -30 61 -169q-24 -81 -116 -158q-27 -23 -49 -37z" />
    <glyph glyph-name="uni1EEF" unicode="&#x1eef;" horiz-adv-x="1327" 
d="M1022 1462q-42 -215 -225 -215q-38 0 -79 15q-30 10 -73 32l-8 5q-1 0 -4 2q-3 1 -5 2l-16 8l-32 14q-34 14 -60 14q-88 0 -112 -92h-62q22 94 69 145q55 60 144 60q36 0 79 -14q30 -10 77 -31q48 -24 70 -33q37 -14 63 -14q87 0 115 102h59zM1165 892v-513q0 -47 2 -88
q3 -55 9 -101q17 -120 60 -157l10 -9l7 -7q6 -5 6 -9q0 -8 -33 -8h-149l-62 213q-153 -244 -438 -244q-193 0 -306 107q-110 104 -110 276v463q0 140 -59 152q-37 9 -37 22q0 9 23 12l237 64v-686q0 -156 73 -250q83 -109 249 -109q180 0 278 160q88 145 88 377v201
q0 110 -14 153q-13 39 -51 58l-22 9q-11 5 -11 13q0 5 18 10l232 64v-116q7 7 13 14q36 42 52 97q-111 29 -94 122q29 94 133 74q102 -30 61 -169q-24 -81 -116 -158q-27 -23 -49 -37z" />
    <glyph glyph-name="uni1EF1" unicode="&#x1ef1;" horiz-adv-x="1327" 
d="M682 -180q99 0 99 -100q0 -98 -99 -98q-100 0 -100 98q0 100 100 100zM1165 892v-513q0 -47 2 -88q3 -55 9 -101q17 -120 60 -157l10 -9l7 -7q6 -5 6 -9q0 -8 -33 -8h-149l-62 213q-153 -244 -438 -244q-193 0 -306 107q-110 104 -110 276v463q0 140 -59 152
q-37 9 -37 22q0 9 23 12l237 64v-686q0 -156 73 -250q83 -109 249 -109q180 0 278 160q88 145 88 377v201q0 110 -14 153q-13 39 -51 58l-22 9q-11 5 -11 13q0 5 18 10l232 64v-116q7 7 13 14q36 42 52 97q-111 29 -94 122q29 94 133 74q102 -30 61 -169q-24 -81 -116 -158
q-27 -23 -49 -37z" />
    <glyph glyph-name="ohorn" unicode="&#x1a1;" horiz-adv-x="1366" 
d="M362 172q105 -152 319 -152t319 152q92 132 91 360q1 229 -91 361q-105 151 -319 151t-319 -151q-92 -132 -90 -361q-2 -228 90 -360zM262 941q178 155 419 155q242 0 419 -155q187 -164 187 -409q0 -244 -187 -408q-177 -155 -419 -155q-241 0 -419 155
q-187 164 -187 408q0 245 187 409zM1206 1256q102 -30 61 -169q-24 -81 -116 -158q-85 -71 -120 -61q-9 3 -7 10q2 8 7 11q57 42 84 74q36 42 52 97q-111 29 -94 122q29 94 133 74z" />
    <glyph glyph-name="uni1EDD" unicode="&#x1edd;" horiz-adv-x="1366" 
d="M362 172q105 -152 319 -152t319 152q92 132 91 360q1 229 -91 361q-105 151 -319 151t-319 -151q-92 -132 -91 -361q-1 -228 91 -360zM448 1389q-72 53 -72 88q0 69 65 69q45 0 93 -51l303 -301h-86zM1130 913q157 -157 157 -381q0 -244 -187 -408q-177 -155 -419 -155
t-419 155q-187 164 -187 408q0 245 187 409q177 155 419 155q240 0 415 -152q10 10 18 19q36 42 52 97q-111 29 -94 122q29 94 133 74q102 -30 61 -169q-24 -81 -116 -158q-10 -9 -20 -16z" />
    <glyph glyph-name="uni1EDB" unicode="&#x1edb;" horiz-adv-x="1366" 
d="M362 172q105 -152 319 -152t319 152q92 132 91 360q1 229 -91 361q-105 151 -319 151t-319 -151q-92 -132 -91 -361q-1 -228 91 -360zM527 1194l303 301q48 51 93 51q65 0 65 -69q0 -35 -71 -88l-304 -195h-86zM1130 913q157 -157 157 -381q0 -244 -187 -408
q-177 -155 -419 -155t-419 155q-187 164 -187 408q0 245 187 409q177 155 419 155q240 0 415 -152q10 10 18 19q36 42 52 97q-111 29 -94 122q29 94 133 74q102 -30 61 -169q-24 -81 -116 -158q-10 -9 -20 -16z" />
    <glyph glyph-name="uni1EDF" unicode="&#x1edf;" horiz-adv-x="1366" 
d="M362 172q105 -152 319 -152t319 152q92 132 91 360q1 229 -91 361q-105 151 -319 151t-319 -151q-92 -132 -90 -361q-2 -228 90 -360zM480 1576q89 35 168 35q84 0 141 -34q69 -42 69 -118q0 -39 -33 -76q-12 -13 -31 -29l-34 -27q-23 -18 -35 -29q-16 -14 -27 -28
q-25 -31 -21 -78h-48q-3 49 17 90q8 15 21 35q7 10 22 31l24 32q12 18 21 34q19 35 19 69q0 88 -96 88q-88 0 -140 -131zM1130 912q157 -156 157 -380q0 -244 -187 -408q-177 -155 -419 -155q-241 0 -419 155q-187 164 -187 408q0 245 187 409q178 155 419 155
q240 0 416 -152q10 10 18 19q36 42 52 97q-111 29 -94 122q29 94 133 74q102 -30 61 -169q-24 -81 -116 -158q-11 -9 -21 -17z" />
    <glyph glyph-name="uni1EE1" unicode="&#x1ee1;" horiz-adv-x="1366" 
d="M362 172q105 -152 319 -152t319 152q92 132 91 360q1 229 -91 361q-105 151 -319 151t-319 -151q-92 -132 -91 -361q-1 -228 91 -360zM1021 1462q-42 -215 -225 -215q-38 0 -79 15q-30 10 -73 32l-8 5q-1 0 -4 2q-3 1 -5 2l-16 8l-32 14q-34 14 -60 14q-88 0 -112 -92
h-62q22 94 69 145q55 60 144 60q36 0 79 -14q30 -10 77 -31q48 -24 70 -33q37 -14 63 -14q87 0 115 102h59zM1130 913q157 -157 157 -381q0 -244 -187 -408q-177 -155 -419 -155t-419 155q-187 164 -187 408q0 245 187 409q177 155 419 155q240 0 415 -152q10 10 18 19
q36 42 52 97q-111 29 -94 122q29 94 133 74q102 -30 61 -169q-24 -81 -116 -158q-10 -9 -20 -16z" />
    <glyph glyph-name="uni1EE3" unicode="&#x1ee3;" horiz-adv-x="1366" 
d="M362 172q105 -152 319 -152t319 152q92 132 91 360q1 229 -91 361q-105 151 -319 151t-319 -151q-92 -132 -90 -361q-2 -228 90 -360zM682 -180q99 0 99 -100q0 -98 -99 -98q-100 0 -100 98q0 100 100 100zM1130 912q157 -156 157 -380q0 -244 -187 -408
q-177 -155 -419 -155q-241 0 -419 155q-187 164 -187 408q0 245 187 409q178 155 419 155q240 0 416 -152q10 10 18 19q36 42 52 97q-111 29 -94 122q29 94 133 74q102 -30 61 -169q-24 -81 -116 -158q-11 -9 -21 -17z" />
    <glyph glyph-name="ygrave" unicode="&#x1ef3;" horiz-adv-x="1251" 
d="M641 -27q-86 -162 -183 -256q-131 -126 -336 -123l56 179q7 20 12 20q6 0 10 -4q35 -61 121 -61q87 0 169 91q79 89 79 177q0 70 -33 139l-327 664q-93 191 -162 229q-31 15 -31 29t27 14l95 -5l52 -1q37 0 88 3l57 3q23 0 32 -5q7 -3 7 -9t-10 -14l-22 -15
q-8 -6 -12 -10q-6 -7 -10 -13q-11 -17 -11 -40q0 -49 80 -201l299 -574l190 373q33 63 56 111l48 104q46 108 46 158q0 62 -58 92l-24 15q-15 9 -15 12q0 4 5 8q5 6 12 6l135 -4l137 4q6 0 13 -5q6 -4 6 -7q0 -7 -15 -17q-48 -34 -115 -140q-54 -88 -135 -249zM430 1389
q-72 53 -72 88q0 69 66 69q45 0 92 -51l303 -301h-86z" />
    <glyph glyph-name="glyph235" unicode="&#xfd;" horiz-adv-x="1251" 
d="M641 -27q-86 -162 -183 -256q-131 -126 -336 -123l56 179q7 20 12 20q6 0 10 -4q35 -61 121 -61q87 0 169 91q79 89 79 177q0 70 -33 139l-327 664q-93 191 -162 229q-31 15 -31 29t27 14l95 -5l52 -1q37 0 88 3l57 3q23 0 32 -5q7 -3 7 -9t-10 -14l-22 -15
q-8 -6 -12 -10q-6 -7 -10 -13q-11 -17 -11 -40q0 -49 80 -201l299 -574l190 373q33 63 56 111l48 104q46 108 46 158q0 62 -58 92l-24 15q-15 9 -15 12q0 4 5 8q5 6 12 6l135 -4l137 4q6 0 13 -5q6 -4 6 -7q0 -7 -15 -17q-48 -34 -115 -140q-54 -88 -135 -249zM471 1194
l303 301q47 51 92 51q65 0 65 -69q0 -35 -71 -88l-303 -195h-86z" />
    <glyph glyph-name="uni1EF7" unicode="&#x1ef7;" horiz-adv-x="1251" 
d="M641 -27q-86 -162 -183 -256q-131 -126 -336 -123l56 179q7 20 12 20q6 0 10 -4q35 -61 121 -61q87 0 169 91q79 89 79 177q0 70 -33 139l-327 664q-93 191 -162 229q-31 15 -31 29t27 14l95 -5l52 -1q37 0 88 3l57 3q23 0 32 -5q7 -3 7 -9t-10 -14l-22 -15
q-8 -6 -12 -10q-6 -7 -10 -13q-11 -17 -11 -40q0 -49 80 -201l299 -574l190 373q33 63 56 111l48 104q46 108 46 158q0 62 -58 92l-24 15q-15 9 -15 12q0 4 5 8q5 6 12 6l135 -4l137 4q6 0 13 -5q6 -4 6 -7q0 -7 -15 -17q-48 -34 -115 -140q-54 -88 -135 -249zM480 1576
q89 35 168 35q84 0 141 -34q69 -42 69 -118q0 -39 -33 -76q-12 -13 -31 -29l-34 -27q-23 -18 -35 -29q-16 -14 -27 -28q-25 -31 -21 -78h-48q-3 49 17 90q8 15 21 35q7 10 22 31l24 32q12 18 21 34q19 35 19 69q0 88 -96 88q-88 0 -140 -131z" />
    <glyph glyph-name="uni1EF9" unicode="&#x1ef9;" horiz-adv-x="1251" 
d="M641 -27q-86 -162 -183 -256q-131 -126 -336 -123l56 179q7 20 12 20q6 0 10 -4q35 -61 121 -61q87 0 169 91q79 89 79 177q0 70 -33 139l-327 664q-93 191 -162 229q-31 15 -31 29t27 14l95 -5l52 -1q37 0 88 3l57 3q23 0 32 -5q7 -3 7 -9t-10 -14l-22 -15
q-8 -6 -12 -10q-6 -7 -10 -13q-11 -17 -11 -40q0 -49 80 -201l299 -574l190 373q33 63 56 111l48 104q46 108 46 158q0 62 -58 92l-24 15q-15 9 -15 12q0 4 5 8q5 6 12 6l135 -4l137 4q6 0 13 -5q6 -4 6 -7q0 -7 -15 -17q-48 -34 -115 -140q-54 -88 -135 -249zM1022 1462
q-42 -215 -225 -215q-38 0 -79 15q-30 10 -73 32l-8 5q-1 0 -4 2q-3 1 -5 2l-16 8l-32 14q-34 14 -60 14q-88 0 -112 -92h-62q22 94 69 145q55 60 144 60q36 0 79 -14q30 -10 77 -31q48 -24 70 -33q37 -14 63 -14q87 0 115 102h59z" />
    <glyph glyph-name="uni1EF5" unicode="&#x1ef5;" horiz-adv-x="1251" 
d="M641 -27q-86 -162 -183 -256q-131 -126 -336 -123l56 179q7 20 12 20q6 0 10 -4q35 -61 121 -61q87 0 169 91q79 89 79 177q0 70 -33 139l-327 664q-93 191 -162 229q-31 15 -31 29t27 14l95 -5l52 -1q37 0 88 3l57 3q23 0 32 -5q7 -3 7 -9t-10 -14l-22 -15
q-8 -6 -12 -10q-6 -7 -10 -13q-11 -17 -11 -40q0 -49 80 -201l299 -574l190 373q33 63 56 111l48 104q46 108 46 158q0 62 -58 92l-24 15q-15 9 -15 12q0 4 5 8q5 6 12 6l135 -4l137 4q6 0 13 -5q6 -4 6 -7q0 -7 -15 -17q-48 -34 -115 -140q-54 -88 -135 -249zM682 -180
q99 0 99 -100q0 -98 -99 -98q-100 0 -100 98q0 100 100 100z" />
    <glyph glyph-name="divide" unicode="&#xf7;" horiz-adv-x="1706" 
 />
    <glyph glyph-name="ugrave" horiz-adv-x="582" 
 />
    <glyph glyph-name="uacute" horiz-adv-x="580" 
 />
    <glyph glyph-name="yacute" horiz-adv-x="629" 
 />
    <glyph glyph-name="Ccaron" unicode="&#x10c;" horiz-adv-x="1274" 
 />
    <glyph glyph-name="ccaron" unicode="&#x10d;" horiz-adv-x="922" 
 />
    <glyph glyph-name="Dslash" unicode="&#x110;" horiz-adv-x="1630" 
d="M733 678h-369v-301q0 -183 30 -253q27 -62 97 -69q105 -10 190 -10q77 0 154 6q237 20 353 155q132 154 132 478q0 316 -151 453q-143 131 -461 131h-344v-539h369v-51zM28 729h160v307q0 129 -20 182q-16 42 -58 62l-16 10q-7 6 -7 13t10 11q14 5 52 5h629
q184 0 333 -53q139 -50 238 -142q190 -177 190 -442q0 -282 -184 -469q-185 -189 -491 -213q-77 -6 -158 -6l-240 6l-319 -3q-11 0 -23 -1l-59 -4q-14 0 -14 6q0 8 22 20q79 45 98 104q17 51 17 218v338h-160v51z" />
    <glyph glyph-name="dcroat" unicode="&#x111;" horiz-adv-x="1366" 
d="M354 874q-42 -72 -63 -169q-19 -87 -19 -185q0 -200 89 -339q104 -161 289 -161q220 0 329 158q93 136 93 369q0 228 -94 355q-106 142 -321 142q-201 0 -303 -170zM1228 1485v-1032q0 -361 72 -412q28 -22 28 -29q0 -12 -18 -12q-11 0 -24 1l-68 7q-11 0 -24 -1l-68 -7
l-50 225q-155 -256 -432 -256q-244 0 -406 155q-163 157 -163 396q0 258 170 418q167 158 426 158q117 0 237 -61q95 -48 168 -122v285q0 68 -13 113q-18 59 -58 71q-21 6 -28 10q-7 3 -7 7q0 9 18 16zM606 1151l27 55h794l-27 -55h-794z" />
    <glyph glyph-name="quoteleft" unicode="&#x2018;" horiz-adv-x="366" 
d="M159 930q-106 0 -106 145q0 85 67 185q61 92 97 92q10 0 10 -9q0 -8 -4 -12q-42 -56 -59 -94q-23 -51 -23 -109q125 0 125 -90q0 -108 -107 -108z" />
    <glyph glyph-name="quoteright" unicode="&#x2019;" horiz-adv-x="357" 
d="M196 1352q107 0 107 -146q0 -84 -67 -184q-61 -92 -97 -92q-10 0 -10 8t4 12q42 57 59 95q23 50 23 108q-125 0 -125 90q0 109 106 109z" />
    <glyph glyph-name="quotedblleft" unicode="&#x201c;" horiz-adv-x="606" 
d="M463 930q-107 0 -107 145q0 85 67 185q61 92 97 92q10 0 10 -9q0 -8 -4 -12q-42 -56 -59 -94q-23 -51 -23 -109q125 0 125 -90q0 -108 -106 -108zM159 930q-106 0 -106 145q0 85 67 185q61 92 97 92q10 0 10 -9q0 -8 -4 -12q-42 -56 -59 -94q-23 -51 -23 -109
q125 0 125 -90q0 -108 -107 -108z" />
    <glyph glyph-name="quotedblright" unicode="&#x201d;" horiz-adv-x="606" 
d="M142 1352q107 0 107 -146q0 -84 -67 -184q-61 -92 -97 -92q-10 0 -10 8t4 12q42 57 59 95q23 50 23 108q-125 0 -125 90q0 109 106 109zM446 1352q106 0 106 -146q0 -84 -66 -184q-62 -92 -98 -92q-10 0 -10 8t4 12q43 57 60 95q22 50 22 108q-125 0 -125 90
q0 109 107 109z" />
    <glyph glyph-name="ellipsis" unicode="&#x2026;" horiz-adv-x="2048" 
d="M339 174q99 0 99 -100q0 -99 -99 -99q-100 0 -100 99q0 100 100 100zM1023 174q99 0 99 -100q0 -99 -99 -99q-100 0 -100 99q0 100 100 100zM1707 174q99 0 99 -100q0 -99 -99 -99q-100 0 -100 99q0 100 100 100z" />
  </font>
</defs>
</svg>
